<?xml version="1.0" standalone="no"?>
<!DOCTYPE svg PUBLIC "-//W3C//DTD SVG 20010904//EN"
 "http://www.w3.org/TR/2001/REC-SVG-20010904/DTD/svg10.dtd">
<svg version="1.0" xmlns="http://www.w3.org/2000/svg"
 width="128.000000pt" height="128.000000pt" viewBox="0 0 128.000000 128.000000"
 preserveAspectRatio="xMidYMid meet">

<g transform="translate(0.000000,128.000000) scale(0.100000,-0.100000)"
fill="#000000" stroke="none">
<path d="M1110 1191 c-30 -22 -68 -52 -83 -69 l-28 -30 48 -46 48 -46 45 48
c25 27 55 67 68 90 l23 42 -25 25 c-14 14 -29 25 -33 24 -4 0 -33 -17 -63 -38z"/>
<path d="M900 1005 l-55 -55 53 -52 52 -53 50 50 c27 27 50 54 50 60 0 6 -22
32 -48 58 l-48 47 -54 -55z"/>
<path d="M695 817 c-61 -56 -146 -135 -190 -175 l-79 -72 69 -70 c38 -39 73
-69 76 -68 4 2 69 71 144 153 76 83 153 166 171 185 l34 36 -58 56 -57 57
-110 -102z m45 -83 c11 -12 10 -18 -3 -32 -16 -15 -18 -15 -34 0 -13 14 -14
20 -3 32 7 9 16 16 20 16 4 0 13 -7 20 -16z m-80 -80 c11 -12 10 -18 -3 -32
-16 -15 -18 -15 -34 0 -13 14 -14 20 -3 32 7 9 16 16 20 16 4 0 13 -7 20 -16z
m-80 -80 c11 -12 10 -18 -3 -32 -16 -15 -18 -15 -34 0 -13 14 -14 20 -3 32 7
9 16 16 20 16 4 0 13 -7 20 -16z"/>
<path d="M285 499 c-50 -23 -91 -42 -92 -43 -1 -1 57 -62 130 -134 l133 -133
43 97 43 97 -78 78 c-43 44 -81 79 -84 78 -3 0 -45 -18 -95 -40z"/>
<path d="M75 405 c-29 -28 -30 -36 -11 -73 17 -32 242 -255 273 -271 49 -25
107 33 82 82 -16 31 -239 256 -271 273 -37 19 -45 18 -73 -11z"/>
</g>
</svg>
