<?xml version="1.0" standalone="no"?>
<!DOCTYPE svg PUBLIC "-//W3C//DTD SVG 20010904//EN"
 "http://www.w3.org/TR/2001/REC-SVG-20010904/DTD/svg10.dtd">
<svg version="1.0" xmlns="http://www.w3.org/2000/svg"
 width="419.000000pt" height="419.000000pt" viewBox="0 0 419.000000 419.000000"
 preserveAspectRatio="xMidYMid meet">

<g transform="translate(0.000000,419.000000) scale(0.100000,-0.100000)"
fill="#000000" stroke="none">
<path d="M630 2095 l0 -1485 1485 0 1485 0 0 1485 0 1485 -1485 0 -1485 0 0
-1485z m2865 770 l0 -610 -1380 0 -1380 0 -3 600 c-1 330 0 606 3 613 3 10
285 12 1382 10 l1378 -3 0 -610z m-7 -723 c9 -6 12 -34 10 -103 l-3 -94 -1380
0 -1380 0 -3 94 c-2 69 1 97 10 103 7 4 625 8 1373 8 748 0 1366 -4 1373 -8z
m-2550 -714 l2 -407 48 -3 47 -3 0 -150 0 -150 -150 0 -150 0 -3 550 c-1 303
0 556 3 563 3 9 30 12 102 10 l98 -3 3 -407z m403 12 c-1 -217 2 -400 7 -407
4 -6 28 -13 52 -15 l45 -3 0 -150 0 -150 -150 0 -150 0 0 150 0 150 48 3 47 3
0 403 c0 221 3 406 7 410 4 4 27 6 51 4 l43 -3 0 -395z m417 -12 l2 -407 48
-3 47 -3 0 -150 0 -150 -150 0 -150 0 0 150 0 150 48 3 47 3 0 403 c0 221 3
406 7 410 4 4 28 6 53 4 l45 -3 3 -407z m410 0 l2 -407 48 -3 47 -3 0 -150 0
-150 -150 0 -150 0 0 150 0 150 48 3 47 3 0 403 c0 221 3 406 7 410 4 4 28 6
53 4 l45 -3 3 -407z m410 0 l2 -407 48 -3 47 -3 0 -150 0 -150 -150 0 -150 0
0 150 0 150 48 3 47 3 0 403 c0 221 3 406 7 410 4 4 28 6 53 4 l45 -3 3 -407z
m410 0 l2 -407 48 -3 47 -3 0 -150 0 -150 -150 0 -150 0 0 150 0 150 45 3 c24
2 48 9 52 15 5 7 8 188 8 402 0 215 -1 394 0 398 0 4 21 7 48 5 l47 -3 3 -407z
m507 -153 l0 -560 -150 0 -150 0 0 150 0 150 48 3 47 3 0 403 c0 221 3 406 7
410 4 4 50 5 103 4 l95 -3 0 -560z"/>
<path d="M935 3339 l-45 -42 0 -76 c0 -76 1 -77 38 -114 37 -36 40 -37 113
-37 74 0 76 1 112 38 36 37 37 40 37 114 0 62 -4 80 -22 103 -28 36 -76 55
-138 55 -45 0 -55 -4 -95 -41z m153 -107 c4 -41 -12 -62 -47 -62 -35 0 -51 17
-51 55 0 41 7 47 55 43 37 -3 40 -5 43 -36z"/>
<path d="M1290 3333 c-49 -49 -50 -51 -50 -112 0 -58 2 -64 41 -106 l42 -45
77 0 78 0 36 40 c34 38 36 43 36 113 0 72 -1 73 -40 112 -37 36 -45 39 -105
43 l-65 4 -50 -49z m148 -75 c7 -7 12 -24 12 -38 0 -33 -17 -50 -50 -50 -14 0
-31 5 -38 12 -13 13 -17 70 -5 81 11 12 68 8 81 -5z"/>
<path d="M1685 3371 c-11 -5 -33 -23 -50 -40 -25 -28 -30 -41 -33 -100 l-4
-69 42 -46 43 -46 74 0 c74 0 76 1 114 39 38 38 39 40 39 110 0 70 -1 73 -39
113 -36 40 -42 42 -102 45 -35 1 -73 -1 -84 -6z m113 -113 c16 -16 15 -63 -2
-77 -8 -7 -30 -11 -48 -9 -29 3 -33 7 -36 36 -2 19 -1 40 2 48 7 17 67 19 84
2z"/>
<path d="M2044 3371 c-11 -5 -34 -25 -52 -45 -29 -34 -32 -42 -32 -106 0 -67
1 -71 38 -110 39 -40 40 -40 113 -40 73 0 74 0 116 42 42 42 43 43 43 110 0
66 -2 70 -39 110 -36 40 -42 42 -102 45 -35 1 -73 -1 -85 -6z m114 -113 c7 -7
12 -24 12 -38 0 -34 -17 -50 -55 -50 -38 0 -55 16 -55 50 0 34 17 50 55 50 17
0 36 -5 43 -12z"/>
<path d="M2410 3374 c-8 -4 -32 -23 -52 -42 -37 -35 -38 -38 -38 -110 0 -73 1
-75 39 -113 38 -38 40 -39 114 -39 l74 0 42 45 c39 43 41 47 41 110 0 63 -2
68 -39 107 -37 40 -42 42 -102 45 -35 1 -71 0 -79 -3z m105 -154 c0 -44 -1
-45 -33 -48 -41 -4 -62 12 -62 47 0 37 19 52 60 49 34 -3 35 -4 35 -48z"/>
<path d="M2726 3340 l-46 -43 0 -73 c0 -71 2 -76 36 -114 l36 -40 77 0 c77 0
77 0 116 40 34 35 39 46 43 98 5 65 -9 101 -52 141 -20 19 -39 25 -94 29 l-70
5 -46 -43z m149 -120 c0 -44 -1 -45 -33 -48 -43 -4 -62 12 -62 53 0 41 6 47
55 43 l40 -3 0 -45z"/>
<path d="M3085 3339 l-45 -42 0 -76 c0 -76 1 -77 38 -114 37 -36 40 -37 113
-37 74 0 76 1 112 38 36 37 37 40 37 114 0 62 -4 80 -22 103 -28 36 -76 55
-138 55 -45 0 -55 -4 -95 -41z m150 -119 c0 -44 -1 -45 -33 -48 -43 -4 -62 12
-62 53 0 41 6 47 55 43 l40 -3 0 -45z"/>
<path d="M933 2978 c-43 -44 -43 -44 -43 -119 0 -74 1 -76 38 -112 37 -36 40
-37 113 -37 74 0 76 1 112 38 36 37 37 39 37 115 0 74 -1 79 -34 114 -32 36
-37 38 -108 41 l-73 4 -42 -44z m155 -106 c4 -41 -12 -62 -47 -62 -35 0 -51
17 -51 55 0 41 7 47 55 43 37 -3 40 -5 43 -36z"/>
<path d="M1300 2994 c-44 -37 -60 -75 -60 -139 0 -51 3 -59 41 -100 l42 -45
74 0 c74 0 76 1 114 39 38 38 39 40 39 113 0 61 -4 80 -21 102 -31 40 -71 56
-138 56 -50 0 -65 -4 -91 -26z m148 -122 c4 -41 -12 -62 -47 -62 -35 0 -51 17
-51 55 0 41 7 47 55 43 37 -3 40 -5 43 -36z"/>
<path d="M1644 2976 c-43 -43 -44 -45 -44 -110 0 -64 2 -68 41 -111 l42 -45
70 0 c70 0 72 1 114 42 43 42 43 43 43 114 l0 71 -45 42 c-43 39 -47 41 -111
41 -65 0 -67 -1 -110 -44z m154 -78 c7 -7 12 -24 12 -38 0 -33 -17 -50 -50
-50 -14 0 -31 5 -38 12 -13 13 -17 70 -5 81 11 12 68 8 81 -5z"/>
<path d="M2004 2976 c-43 -43 -44 -44 -44 -113 0 -68 1 -69 43 -111 42 -41 44
-42 112 -42 68 0 70 1 112 42 42 42 43 43 43 111 0 69 -1 70 -44 113 -43 43
-44 44 -111 44 -67 0 -68 -1 -111 -44z m154 -78 c7 -7 12 -24 12 -38 0 -34
-17 -50 -55 -50 -38 0 -55 16 -55 50 0 34 17 50 55 50 17 0 36 -5 43 -12z"/>
<path d="M2366 2980 l-46 -43 0 -74 c0 -74 1 -76 39 -114 38 -38 40 -39 114
-39 l74 0 42 45 c39 43 41 47 41 110 0 63 -2 68 -39 107 -37 41 -42 42 -109
46 l-70 4 -46 -42z m149 -120 c0 -44 -1 -45 -33 -48 -40 -4 -62 12 -62 43 0
47 10 56 54 53 l41 -3 0 -45z"/>
<path d="M2726 2980 l-46 -43 0 -74 c0 -74 1 -76 39 -114 38 -38 40 -39 113
-39 73 0 74 0 113 40 39 40 40 42 40 115 0 73 -1 76 -37 112 -35 35 -43 38
-107 41 l-69 4 -46 -42z m152 -114 c4 -43 -7 -56 -48 -56 -34 0 -50 17 -50 55
0 41 7 47 55 43 39 -3 40 -4 43 -42z"/>
<path d="M3083 2978 c-43 -43 -43 -45 -43 -116 0 -69 2 -74 36 -112 l36 -40
77 0 c76 0 77 1 114 38 36 37 37 39 37 115 0 74 -1 79 -34 114 -32 36 -37 38
-108 41 l-73 4 -42 -44z m155 -106 c4 -41 -12 -62 -47 -62 -35 0 -51 17 -51
55 0 41 7 47 55 43 37 -3 40 -5 43 -36z"/>
<path d="M929 2621 c-39 -38 -39 -39 -39 -119 l0 -80 40 -36 c38 -34 44 -36
110 -36 66 0 72 2 110 36 l40 36 0 80 c0 80 0 81 -39 119 -38 38 -40 39 -111
39 -71 0 -73 -1 -111 -39z m149 -73 c7 -7 12 -26 12 -43 0 -38 -16 -55 -50
-55 -34 0 -50 17 -50 55 0 38 16 55 50 55 14 0 31 -5 38 -12z"/>
<path d="M1287 2621 l-42 -40 0 -76 0 -76 42 -40 c40 -37 45 -39 110 -39 66 0
68 1 110 42 l43 42 0 75 c0 74 0 74 -40 113 -39 37 -43 38 -111 38 -67 0 -71
-1 -112 -39z m151 -73 c7 -7 12 -26 12 -43 0 -38 -16 -55 -50 -55 -34 0 -50
17 -50 55 0 38 16 55 50 55 14 0 31 -5 38 -12z"/>
<path d="M1644 2616 c-43 -43 -44 -44 -44 -111 0 -67 1 -68 44 -111 43 -43 44
-44 112 -44 67 0 69 1 111 42 43 42 43 43 43 114 l0 71 -45 42 c-43 39 -47 41
-111 41 -65 0 -67 -1 -110 -44z m149 -70 c20 -15 23 -66 5 -84 -7 -7 -24 -12
-38 -12 -34 0 -50 17 -50 55 0 51 42 72 83 41z"/>
<path d="M2001 2615 c-39 -43 -41 -47 -41 -110 0 -63 2 -67 41 -110 l42 -45
72 0 72 0 42 45 c39 43 41 47 41 111 0 65 -1 67 -44 110 -43 44 -44 44 -113
44 l-70 0 -42 -45z m151 -72 c24 -22 24 -69 -1 -83 -43 -22 -91 2 -91 46 0 48
55 70 92 37z"/>
<path d="M2362 2617 c-42 -42 -42 -43 -42 -116 0 -73 0 -74 40 -113 40 -37 43
-38 112 -38 70 0 71 0 114 44 43 43 44 44 44 111 0 67 -1 68 -44 111 -43 43
-44 44 -113 44 -68 0 -69 -1 -111 -43z m146 -69 c18 -18 15 -85 -4 -92 -50
-19 -84 1 -84 49 0 38 16 55 50 55 14 0 31 -5 38 -12z"/>
<path d="M2722 2617 c-42 -42 -42 -43 -42 -116 0 -72 1 -74 39 -112 38 -38 40
-39 111 -39 l73 0 44 45 45 45 -4 71 c-4 69 -5 73 -46 110 -40 37 -44 39 -110
39 -67 0 -68 -1 -110 -43z m146 -69 c7 -7 12 -26 12 -43 0 -38 -16 -55 -50
-55 -34 0 -50 17 -50 55 0 38 16 55 50 55 14 0 31 -5 38 -12z"/>
<path d="M3079 2621 c-39 -38 -39 -39 -39 -119 l0 -80 40 -36 c38 -34 44 -36
110 -36 66 0 72 2 110 36 l40 36 0 83 0 83 -40 36 c-38 34 -44 36 -111 36 -70
0 -72 -1 -110 -39z m149 -73 c7 -7 12 -26 12 -43 0 -38 -16 -55 -50 -55 -34 0
-50 17 -50 55 0 38 16 55 50 55 14 0 31 -5 38 -12z"/>
</g>
</svg>
