<?xml version="1.0" encoding="utf-8"?>
<!-- Generator: Adobe Illustrator 26.5.0, SVG Export Plug-In . SVG Version: 6.00 Build 0)  -->
<svg version="1.1" id="Calque_1" xmlns="http://www.w3.org/2000/svg" xmlns:xlink="http://www.w3.org/1999/xlink" x="0px" y="0px"
	 viewBox="0 0 595.28 595.28" style="enable-background:new 0 0 595.28 595.28;" xml:space="preserve">
<style type="text/css">
	.st0{fill:#020203;}
	.st1{fill:#FFFFFF;}
	.st2{fill:#020303;}
	.st3{fill:#F5F5F5;}
	.st4{fill:#F4F3F4;}
	.st5{fill:#F8F7F7;}
	.st6{fill:#F2F2F2;}
	.st7{fill:#EFEFEF;}
	.st8{fill:#F1F1F1;}
	.st9{fill:#F6F6F6;}
	.st10{fill:#F3F3F3;}
	.st11{fill:#ECECEC;}
	.st12{fill:#EBEBEB;}
</style>
<g>
	<path class="st0" d="M303.13,22.39c88.14,0,176.31,0.15,264.46-0.22c8.41-0.02,9.92,2.28,9.92,10.17
		c-0.25,176.61-0.22,353.22,0,529.86c0,7.52-1.61,9.7-9.43,9.7c-176.93-0.25-353.84-0.25-530.77,0c-7.82,0-9.45-2.13-9.45-9.67
		c0.22-176.61,0.22-353.22,0-529.86c0-7.89,1.46-10.22,9.9-10.19C126.19,22.51,214.66,22.39,303.13,22.39z"/>
	<path class="st1" d="M303.15,41.21c81.96,0,163.9,0.12,245.86-0.17c7.92-0.02,9.67,2.4,9.65,9.92c-0.27,69.32-0.27,138.64,0,207.96
		c0.02,7.2-1.81,9.72-9.23,9.72c-164.51-0.15-329.03-0.17-493.54,0c-7.5,0-9.2-2.65-9.18-9.77c0.25-69.32,0.27-138.64,0-207.96
		c-0.02-7.62,1.88-9.9,9.7-9.87C138.64,41.31,220.9,41.21,303.15,41.21z"/>
	<path class="st1" d="M302.71,326.03c-81.34,0-162.71-0.12-244.05,0.17c-8.93,0.02-13.26-1.71-11.97-11.6
		c0.82-6.36,0.47-12.94,0.05-19.4c-0.42-6.23,2.33-8.44,8.14-7.92c1.53,0.12,3.07,0.02,4.63,0.02c162.09,0,324.18,0,486.24,0
		c12.77,0,12.99,0.02,12.67,12.42c-0.2,8.21,3.56,18.63-1.61,24.1c-5.64,5.99-16.38,2.05-24.84,2.08
		C455.54,326.11,379.13,326.03,302.71,326.03z"/>
	<path class="st1" d="M558.48,448.81c0,31.72-0.25,63.46,0.17,95.17c0.1,7.59-2.5,9.62-9.55,9.43c-13.24-0.37-26.5-0.25-39.73-0.05
		c-5.44,0.07-7.67-1.68-7.52-7.5c0.37-14.15,0.47-28.35,0-42.5c-0.2-5.99,1.86-7.92,7.37-6.95c9.13,1.56,11.18-2.52,11.11-11.23
		c-0.45-43.42,0.05-86.86-0.4-130.28c-0.1-8.81,2.72-11.5,11.08-10.69c6.41,0.62,12.96,0.57,19.37,0c6.83-0.62,8.24,2.23,8.19,8.51
		C558.33,384.74,558.48,416.78,558.48,448.81z"/>
	<path class="st1" d="M46.83,447.72c0-31.72,0.17-63.46-0.15-95.17c-0.07-6.56,1.81-8.81,8.36-8.34c7.05,0.52,14.18,0.49,21.23,0
		c6.95-0.49,9.03,2.15,9.01,8.98c-0.25,44.36,0.12,88.71-0.32,133.05c-0.07,8.31,2.37,11.48,10.34,10.12
		c6.7-1.14,8.44,1.48,8.16,8.09c-0.57,13.53-0.42,27.11-0.02,40.65c0.17,5.89-1.43,8.44-7.67,8.29c-13.56-0.3-27.11-0.3-40.65,0
		c-6.41,0.15-8.46-2.13-8.41-8.63C46.98,512.42,46.83,480.06,46.83,447.72z"/>
	<path class="st1" d="M368.83,420.02c0-21.84,0.37-43.71-0.2-65.53c-0.2-8.09,1.98-10.49,10.22-10.46c7.97,0.02,9.48,2.5,9.43,9.97
		c-0.37,43.69,0.02,87.4-0.35,131.09c-0.07,8.63,1.95,12.86,11.18,11.36c5.79-0.96,8.34,1.31,8.19,7.57
		c-0.35,13.83-0.3,27.71-0.02,41.54c0.1,5.52-1.9,7.84-7.42,7.79c-14.47-0.12-28.92-0.12-43.39,0.05c-5.47,0.07-6.65-2.62-6.58-7.5
		c0.22-14.15,0.35-28.33-0.05-42.45c-0.17-5.86,1.83-7.97,7.42-7c9.52,1.66,12.05-2.55,11.78-11.78
		C368.39,463.11,368.83,441.56,368.83,420.02z"/>
	<path class="st1" d="M312.38,421.03c0,22.17,0.27,44.36-0.17,66.52c-0.15,6.95,2,10.07,8.81,8.78c9.3-1.76,10.71,2.77,10.34,10.74
		c-0.59,12.59-0.49,25.26,0,37.88c0.27,6.73-2.38,8.56-8.58,8.44c-13.56-0.27-27.11-0.25-40.65-0.02c-5.74,0.1-8.34-1.61-8.14-7.92
		c0.42-13.85,0.45-27.73,0-41.56c-0.2-6.31,2.03-8.51,7.97-7.47c9.03,1.58,11.31-2.28,11.21-11.11
		c-0.45-43.42-0.22-86.86-0.2-130.28c0-9.7,7.57-14.42,16.35-10.32c4.08,1.93,3.04,5.67,3.04,8.88
		C312.4,376.08,312.38,398.54,312.38,421.03z"/>
	<path class="st1" d="M217.21,420.09c0-22.76,0.35-45.54-0.2-68.3c-0.2-7.62,3.39-7.74,8.88-7.5c5.44,0.25,10.86-1.46,10.79,7.79
		c-0.4,44.31,0.02,88.61-0.37,132.92c-0.07,8.66,2.03,12.94,11.18,11.4c5.86-0.99,8.24,0.87,7.99,7.35
		c-0.49,13.83-0.4,27.71-0.02,41.54c0.17,6.04-1.86,8.24-7.89,8.11c-13.83-0.3-27.68-0.22-41.54-0.05
		c-5.86,0.07-8.16-2.15-8.02-8.19c0.35-13.53,0.37-27.09-0.02-40.62c-0.2-6.58,2.23-9.13,8.56-8.14
		c8.61,1.36,11.01-2.42,10.81-10.79C216.89,463.78,217.21,441.94,217.21,420.09z"/>
	<path class="st1" d="M463.73,420.31c0,21.84,0.3,43.71-0.15,65.56c-0.15,7.74,1.66,12.05,10.12,10.51
		c7.77-1.41,9.33,2.08,9.03,9.18c-0.54,13.21-0.37,26.47-0.05,39.68c0.15,5.94-1.78,8.29-7.89,8.16
		c-13.85-0.32-27.71-0.25-41.54-0.05c-5.94,0.07-8.11-2.25-7.97-8.21c0.32-13.53,0.35-27.09-0.02-40.62
		c-0.17-6.53,2.25-9.25,8.58-8.09c9.99,1.83,11.48-3.12,11.4-11.87c-0.4-44.01,0-88.02-0.37-132.03c-0.05-7.4,2.52-8.51,9.03-8.39
		c6.51,0.12,10.22,0.59,10.02,8.81C463.39,375.36,463.73,397.85,463.73,420.31z"/>
	<path class="st1" d="M141.58,420.04c0-22.46,0.37-44.95-0.17-67.39c-0.2-8.53,4.18-8.14,10.29-8.51c7-0.4,8.78,1.73,8.73,8.66
		c-0.32,44.63,0,89.26-0.32,133.86c-0.05,7.57,2.1,11.06,9.8,9.72c8.46-1.48,10.56,2.37,10.22,10.27
		c-0.57,12.59-0.4,25.23-0.05,37.85c0.17,6.18-1.68,9.03-8.26,8.88c-13.85-0.27-27.71-0.22-41.54,0c-5.49,0.1-7.72-1.81-7.62-7.5
		c0.27-14.15,0.37-28.33-0.02-42.48c-0.15-5.84,1.81-7.99,7.42-7c9.55,1.68,12.02-2.52,11.75-11.75
		C141.14,463.14,141.58,441.56,141.58,420.04z"/>
	<path class="st2" d="M198.28,154.47c0,21.23-7.79,28.82-29.56,28.82c-18.88,0-26.99-8.93-26.99-29.66
		c0-19.27,8.91-27.14,30.68-27.11C189.53,126.51,198.28,135.99,198.28,154.47z"/>
	<path class="st2" d="M434.81,183.29c-19.59,0-27.81-8.78-27.78-29.71c0-18.6,9.28-27.09,29.56-27.06
		c18.63,0,26.99,9.28,26.99,29.88C463.56,175.05,454.73,183.29,434.81,183.29z"/>
	<path class="st0" d="M435.41,117.01c-20.26,0-28.4-8.34-28.38-29.09c0-19,8.78-27.63,28.03-27.63c20.29,0,28.52,8.44,28.52,29.19
		C463.56,108.33,454.68,117.01,435.41,117.01z"/>
	<path class="st0" d="M407.03,221.61c0-19.62,8.98-28.94,27.91-28.97c20.81,0,28.65,8.51,28.62,31.07c0,17.24-10.09,26-29.88,26
		C415.74,249.71,407.03,240.54,407.03,221.61z"/>
	<path class="st2" d="M369.06,117.01c-20.21,0-28.5-8.76-28.5-30.13c0-17.81,9.67-26.62,29.29-26.59c18.95,0,27.76,9.3,27.76,29.29
		C397.58,107.59,387.81,117.01,369.06,117.01z"/>
	<path class="st0" d="M302.48,117.01c-19.82,0-28.38-8.88-28.35-29.49c0-18.75,9.25-27.24,29.69-27.24
		c18.93,0,27.41,9.15,27.39,29.51C331.18,107.74,321.41,117.01,302.48,117.01z"/>
	<path class="st2" d="M367.89,183.29c-19.17,0-27.34-9.03-27.31-30.21c0-17.89,9.65-26.59,29.39-26.57
		c18.6,0,27.66,9.38,27.63,28.55C397.58,174.75,388.63,183.29,367.89,183.29z"/>
	<path class="st0" d="M198.28,222.1c0,19.12-9.23,27.63-29.98,27.63c-18.01,0-26.57-9.45-26.57-29.32
		c0-19.32,9.18-27.78,30.11-27.76C189.8,192.67,198.28,202.14,198.28,222.1z"/>
	<path class="st0" d="M198.28,89.36c0,19.37-8.66,27.66-28.82,27.66c-19.42,0-27.73-9.01-27.73-29.96
		c0-17.91,9.62-26.79,29.07-26.77C189.82,60.29,198.28,69.24,198.28,89.36z"/>
	<path class="st0" d="M236.21,117.01c-19.44,0-28.5-9.08-28.5-28.5c0-19.87,8.83-28.23,29.74-28.23c19.42,0,27.31,9.1,27.31,31.37
		C264.73,108.58,255.23,117.01,236.21,117.01z"/>
	<path class="st2" d="M529.79,220.97c0,20.78-8.29,28.77-29.81,28.77c-18.26,0-26.79-9.25-26.79-29.04
		c0-19.64,8.96-28.05,29.84-28.03C520.61,192.69,529.79,202.36,529.79,220.97z"/>
	<path class="st2" d="M103.56,183.29c-19.89,0-28.03-8.56-28.03-29.49c0-18.55,9.43-27.29,29.51-27.29
		c18.9,0,27.11,9.01,27.11,29.69C132.13,174.56,122.93,183.29,103.56,183.29z"/>
	<path class="st2" d="M529.79,154.84c0,20.53-8.31,28.45-29.91,28.45c-18.41,0-26.72-9.33-26.69-29.93
		c0.02-18.26,9.65-26.87,30.03-26.84C521.08,126.51,529.79,135.82,529.79,154.84z"/>
	<path class="st0" d="M132.13,221.34c0,20.51-8.41,28.4-30.26,28.38c-17.79,0-26.35-9.57-26.35-29.46
		c0-19.25,8.86-27.63,29.17-27.61C122.95,192.67,132.13,202.26,132.13,221.34z"/>
	<path class="st2" d="M264.76,154.72c0,19.4-9.03,28.57-28.1,28.57c-19.54,0-28.94-9.15-28.92-28.15c0-20.38,9.03-28.65,31.32-28.62
		C255.33,126.51,264.73,136.83,264.76,154.72z"/>
	<path class="st2" d="M331.21,154.57c0,20.14-8.98,28.72-30.06,28.72c-18.65,0-27.01-9.25-27.01-29.84
		c0-18.18,9.77-26.94,30.03-26.94C322,126.51,331.21,136.06,331.21,154.57z"/>
	<path class="st2" d="M340.58,221.24c0-19.42,9.13-28.6,28.45-28.57c19.59,0,28.57,9.3,28.57,29.59c0,19.05-9.43,27.51-30.55,27.48
		C349.32,249.71,340.58,240.31,340.58,221.24z"/>
	<path class="st0" d="M102.99,117.01c-19.52,0-27.48-8.73-27.46-30.03c0-18.06,9.45-26.72,29.12-26.69
		c19.22,0.02,27.51,8.81,27.48,29.19C132.13,108.7,123.33,117.01,102.99,117.01z"/>
	<path class="st0" d="M264.76,221.19c0,19.96-9.1,28.55-30.23,28.55c-17.64,0-26.79-10.02-26.79-29.29
		c0-18.88,9.75-27.81,30.35-27.78C255.55,192.67,264.76,202.49,264.76,221.19z"/>
	<path class="st0" d="M529.79,89.16c0,19.59-8.53,27.86-28.75,27.86c-19.82,0-27.86-8.58-27.86-29.71
		c0-18.28,9.35-27.04,28.87-27.01C521.6,60.31,529.79,68.82,529.79,89.16z"/>
	<path class="st0" d="M302.68,249.74c-19.54,0-28.55-9.28-28.55-29.39c0-18.63,9.65-27.68,29.49-27.68
		c18.8,0,27.61,9.72,27.58,30.43C331.18,240.61,321.39,249.74,302.68,249.74z"/>
	<path class="st3" d="M179.51,155.56c0.57,8.76-4.82,9.01-10.86,9.01c-7.72,0-7.72-4.92-7.89-10.59c-0.25-7.55,4.06-8.31,10.04-8.36
		C178.44,145.51,180.5,149.37,179.51,155.56z"/>
	<path class="st4" d="M425.83,155.09c-0.89-6.53,1.76-9.47,8.68-9.5c6.7-0.02,10.32,1.66,10.12,9.33c-0.15,6.36-1.66,9.8-8.78,9.72
		C429.17,164.54,425.04,162.71,425.83,155.09z"/>
	<path class="st5" d="M444.39,88.34c0.92,6.83-1.43,10.14-8.96,10.04c-7.03-0.07-9.82-2.55-9.77-9.67c0.02-6.46,2-9.5,8.91-9.47
		C441.1,79.26,445.53,80.52,444.39,88.34z"/>
	<path class="st6" d="M444.44,220.79c0.79,6.8-1.88,10.22-9.13,10.14c-6.14-0.07-9.8-1.71-9.65-8.78
		c0.12-6.26,1.19-10.71,8.86-10.71C441.1,211.44,445.33,213.22,444.44,220.79z"/>
	<path class="st3" d="M369.08,79.44c6.75-0.64,9.5,2.33,9.55,9.05c0.02,7.03-2.6,10.02-9.82,9.87c-6.56-0.15-9.4-2.65-9.55-9.3
		C359.11,81.86,362.03,78.67,369.08,79.44z"/>
	<path class="st6" d="M302.73,98.21c-6.75,0.82-9.8-2.2-9.82-9.35c-0.02-7.12,2.97-9.67,9.97-9.65c6.51,0.02,9.6,2.08,9.55,8.96
		C312.36,94.8,310.38,98.86,302.73,98.21z"/>
	<path class="st7" d="M369.77,145.76c8.14-0.87,8.86,4.13,8.88,10.42c0.02,8.11-4.97,8.44-11.03,8.44c-7.25,0-8.31-4.21-8.39-10.19
		C359.14,146.63,363.37,144.99,369.77,145.76z"/>
	<path class="st8" d="M179.53,221.26c0.84,7.37-2.94,9.65-9.72,9.7c-6.7,0.05-9.13-2.7-9.13-9.35c0-6.78,2.1-10.17,9.38-10.19
		C177.18,211.39,180.3,214.29,179.53,221.26z"/>
	<path class="st9" d="M170.01,79.44c7.37-0.84,9.75,2.77,9.65,9.7c-0.1,6.65-2.85,9.1-9.43,9.2c-7.3,0.1-9.6-3.07-9.52-9.99
		C160.78,81.64,163.33,78.62,170.01,79.44z"/>
	<path class="st9" d="M236.18,98.16c-7.62,0.87-9.4-3.24-9.52-9.95c-0.12-7.77,3.93-8.96,10.44-8.98c6.98-0.02,8.96,3.12,8.96,9.55
		C246.1,95.96,243.21,99.08,236.18,98.16z"/>
	<path class="st4" d="M510.84,221.12c0.89,6.8-2,9.87-9.23,9.82c-7.05-0.02-9.67-2.94-9.67-9.95c0.02-6.58,2.42-9.47,9.03-9.52
		C507.57,211.44,511.68,213.47,510.84,221.12z"/>
	<path class="st9" d="M94.53,154.82c-0.89-8.26,3.96-9.13,10.32-9.2c7.32-0.1,8.46,3.76,8.51,9.92c0.07,7.74-4.11,9.08-10.54,9.05
		C95.69,164.54,93.74,160.8,94.53,154.82z"/>
	<path class="st9" d="M502.25,145.79c7.37-0.84,8.66,3.29,8.73,9.52c0.1,7.59-3.74,9.33-10.32,9.25c-6.95-0.07-8.66-3.54-8.73-9.87
		C491.86,147,495.7,145.02,502.25,145.79z"/>
	<path class="st4" d="M94.48,221.09c-0.92-7.27,2.72-9.75,9.6-9.62c6.51,0.1,9.2,2.77,9.28,9.4c0.1,6.83-2.03,10.14-9.38,10.12
		C96.93,230.94,93.71,228.19,94.48,221.09z"/>
	<path class="st10" d="M236.56,145.74c6.88-0.64,9.55,2.47,9.52,9.13c-0.02,7-2.87,9.9-9.99,9.77c-6.7-0.12-9.23-2.97-9.4-9.47
		C226.51,147.89,229.73,144.99,236.56,145.74z"/>
	<path class="st7" d="M312.33,155.53c0.47,7.52-3.91,9.13-10.39,9.1c-6.73-0.02-8.98-3.04-9.08-9.55c-0.12-8.11,4.16-9.5,11.01-9.52
		C311.19,145.54,312.65,149.52,312.33,155.53z"/>
	<path class="st11" d="M378.53,221.63c0.87,7.45-3.17,9.35-9.87,9.38c-7.2,0.02-9.57-3.09-9.48-9.99c0.1-7.1,3.12-9.67,10.02-9.6
		C376.38,211.49,379.2,214.76,378.53,221.63z"/>
	<path class="st5" d="M113.16,88.29c0.72,7.74-2.94,10.07-9.85,10.07c-6.95,0-8.86-3.17-9.03-9.6c-0.2-7.45,3.02-9.62,9.97-9.47
		C110.96,79.41,114.15,81.86,113.16,88.29z"/>
	<path class="st7" d="M235.99,230.86c-7.79,0.37-9.45-4.01-9.3-10.51c0.12-6.83,3.66-9.01,9.9-8.86c6.88,0.15,9.7,3.24,9.55,10.24
		C245.96,229.08,242.42,231.51,235.99,230.86z"/>
	<path class="st5" d="M501.53,98.14c-7.59,0.89-9.47-2.99-9.6-9.8c-0.15-7.69,3.66-9.05,10.24-9.13c7-0.07,8.83,2.97,8.86,9.45
		C511.06,95.71,508.73,99.2,501.53,98.14z"/>
	<path class="st12" d="M302.21,230.91c-7.77,0.37-9.33-4.21-9.3-10.61c0.02-6.93,3.69-8.81,9.95-8.88c8.16-0.1,9.57,4.53,9.57,11.26
		C312.43,230.15,307.85,231.11,302.21,230.91z"/>
</g>
</svg>
