<svg xmlns="http://www.w3.org/2000/svg" xmlns:xlink="http://www.w3.org/1999/xlink" version="1.1" id="Calque_1" x="0px" y="0px" style="enable-background:new 0 0 1920 1080;" xml:space="preserve" viewBox="850.97 429.45 222.18 222.21">
<style type="text/css">
	.st0{fill:#F9F9F9;}
	.st1{fill:#F8F8F8;}
	.st2{fill:#010101;}
	.st3{fill:#F5F5F5;}
	.st4{fill:#F4F4F4;}
	.st5{fill:#F7F7F7;}
	.st6{fill:#F2F2F2;}
	.st7{fill:#EFEFEF;}
	.st8{fill:#F1F1F1;}
	.st9{fill:#F6F6F6;}
	.st10{fill:#F3F3F3;}
	.st11{fill:#ECECEC;}
	.st12{fill:#EBEBEB;}
</style>
<g>
	<path d="M962.24,429.54c35.63,0,71.27,0.06,106.9-0.09c3.4-0.01,4.01,0.92,4.01,4.11c-0.1,71.39-0.09,142.78,0,214.18   c0,3.04-0.65,3.92-3.81,3.92c-71.52-0.1-143.03-0.1-214.55,0c-3.16,0-3.82-0.86-3.82-3.91c0.09-71.39,0.09-142.78,0-214.18   c0-3.19,0.59-4.13,4-4.12C890.72,429.59,926.48,429.54,962.24,429.54z"/>
	<path class="st0" d="M962.25,437.15c33.13,0,66.25,0.05,99.38-0.07c3.2-0.01,3.91,0.97,3.9,4.01c-0.11,28.02-0.11,56.04,0,84.06   c0.01,2.91-0.73,3.93-3.73,3.93c-66.5-0.06-133-0.07-199.5,0c-3.03,0-3.72-1.07-3.71-3.95c0.1-28.02,0.11-56.04,0-84.06   c-0.01-3.08,0.76-4,3.92-3.99C895.75,437.19,929,437.15,962.25,437.15z"/>
	<path class="st0" d="M962.07,552.28c-32.88,0-65.77-0.05-98.65,0.07c-3.61,0.01-5.36-0.69-4.84-4.69c0.33-2.57,0.19-5.23,0.02-7.84   c-0.17-2.52,0.94-3.41,3.29-3.2c0.62,0.05,1.24,0.01,1.87,0.01c65.52,0,131.04,0,196.55,0c5.16,0,5.25,0.01,5.12,5.02   c-0.08,3.32,1.44,7.53-0.65,9.74c-2.28,2.42-6.62,0.83-10.04,0.84C1023.85,552.31,992.96,552.28,962.07,552.28z"/>
	<path class="st0" d="M1065.46,601.91c0,12.82-0.1,25.65,0.07,38.47c0.04,3.07-1.01,3.89-3.86,3.81c-5.35-0.15-10.71-0.1-16.06-0.02   c-2.2,0.03-3.1-0.68-3.04-3.03c0.15-5.72,0.19-11.46,0-17.18c-0.08-2.42,0.75-3.2,2.98-2.81c3.69,0.63,4.52-1.02,4.49-4.54   c-0.18-17.55,0.02-35.11-0.16-52.66c-0.04-3.56,1.1-4.65,4.48-4.32c2.59,0.25,5.24,0.23,7.83,0c2.76-0.25,3.33,0.9,3.31,3.44   C1065.4,576.01,1065.46,588.96,1065.46,601.91z"/>
	<path class="st0" d="M858.64,601.47c0-12.82,0.07-25.65-0.06-38.47c-0.03-2.65,0.73-3.56,3.38-3.37c2.85,0.21,5.73,0.2,8.58,0   c2.81-0.2,3.65,0.87,3.64,3.63c-0.1,17.93,0.05,35.86-0.13,53.78c-0.03,3.36,0.96,4.64,4.18,4.09c2.71-0.46,3.41,0.6,3.3,3.27   c-0.23,5.47-0.17,10.96-0.01,16.43c0.07,2.38-0.58,3.41-3.1,3.35c-5.48-0.12-10.96-0.12-16.43,0c-2.59,0.06-3.42-0.86-3.4-3.49   C858.7,627.62,858.64,614.54,858.64,601.47z"/>
	<path class="st1" d="M988.8,590.27c0-8.83,0.15-17.67-0.08-26.49c-0.08-3.27,0.8-4.24,4.13-4.23c3.22,0.01,3.83,1.01,3.81,4.03   c-0.15,17.66,0.01,35.33-0.14,52.99c-0.03,3.49,0.79,5.2,4.52,4.59c2.34-0.39,3.37,0.53,3.31,3.06c-0.14,5.59-0.12,11.2-0.01,16.79   c0.04,2.23-0.77,3.17-3,3.15c-5.85-0.05-11.69-0.05-17.54,0.02c-2.21,0.03-2.69-1.06-2.66-3.03c0.09-5.72,0.14-11.45-0.02-17.16   c-0.07-2.37,0.74-3.22,3-2.83c3.85,0.67,4.87-1.03,4.76-4.76C988.62,607.69,988.8,598.98,988.8,590.27z"/>
	<path class="st1" d="M965.98,590.68c0,8.96,0.11,17.93-0.07,26.89c-0.06,2.81,0.81,4.07,3.56,3.55c3.76-0.71,4.33,1.12,4.18,4.34   c-0.24,5.09-0.2,10.21,0,15.31c0.11,2.72-0.96,3.46-3.47,3.41c-5.48-0.11-10.96-0.1-16.43-0.01c-2.32,0.04-3.37-0.65-3.29-3.2   c0.17-5.6,0.18-11.21,0-16.8c-0.08-2.55,0.82-3.44,3.22-3.02c3.65,0.64,4.57-0.92,4.53-4.49c-0.18-17.55-0.09-35.11-0.08-52.66   c0-3.92,3.06-5.83,6.61-4.17c1.65,0.78,1.23,2.29,1.23,3.59C965.99,572.51,965.98,581.59,965.98,590.68z"/>
	<path class="st1" d="M927.51,590.3c0-9.2,0.14-18.41-0.08-27.61c-0.08-3.08,1.37-3.13,3.59-3.03c2.2,0.1,4.39-0.59,4.36,3.15   c-0.16,17.91,0.01,35.82-0.15,53.73c-0.03,3.5,0.82,5.23,4.52,4.61c2.37-0.4,3.33,0.35,3.23,2.97c-0.2,5.59-0.16,11.2-0.01,16.79   c0.07,2.44-0.75,3.33-3.19,3.28c-5.59-0.12-11.19-0.09-16.79-0.02c-2.37,0.03-3.3-0.87-3.24-3.31c0.14-5.47,0.15-10.95-0.01-16.42   c-0.08-2.66,0.9-3.69,3.46-3.29c3.48,0.55,4.45-0.98,4.37-4.36C927.38,607.96,927.51,599.13,927.51,590.3z"/>
	<path class="st1" d="M1027.16,590.39c0,8.83,0.12,17.67-0.06,26.5c-0.06,3.13,0.67,4.87,4.09,4.25c3.14-0.57,3.77,0.84,3.65,3.71   c-0.22,5.34-0.15,10.7-0.02,16.04c0.06,2.4-0.72,3.35-3.19,3.3c-5.6-0.13-11.2-0.1-16.79-0.02c-2.4,0.03-3.28-0.91-3.22-3.32   c0.13-5.47,0.14-10.95-0.01-16.42c-0.07-2.64,0.91-3.74,3.47-3.27c4.04,0.74,4.64-1.26,4.61-4.8c-0.16-17.79,0-35.58-0.15-53.37   c-0.02-2.99,1.02-3.44,3.65-3.39c2.63,0.05,4.13,0.24,4.05,3.56C1027.02,572.22,1027.16,581.31,1027.16,590.39z"/>
	<path class="st1" d="M896.94,590.28c0-9.08,0.15-18.17-0.07-27.24c-0.08-3.45,1.69-3.29,4.16-3.44c2.83-0.16,3.55,0.7,3.53,3.5   c-0.13,18.04,0,36.08-0.13,54.11c-0.02,3.06,0.85,4.47,3.96,3.93c3.42-0.6,4.27,0.96,4.13,4.15c-0.23,5.09-0.16,10.2-0.02,15.3   c0.07,2.5-0.68,3.65-3.34,3.59c-5.6-0.11-11.2-0.09-16.79,0c-2.22,0.04-3.12-0.73-3.08-3.03c0.11-5.72,0.15-11.45-0.01-17.17   c-0.06-2.36,0.73-3.23,3-2.83c3.86,0.68,4.86-1.02,4.75-4.75C896.76,607.7,896.94,598.98,896.94,590.28z"/>
	<path class="st2" d="M919.86,482.93c0,8.58-3.15,11.65-11.95,11.65c-7.63,0-10.91-3.61-10.91-11.99c0-7.79,3.6-10.97,12.4-10.96   C916.32,471.63,919.86,475.46,919.86,482.93z"/>
	<path class="st2" d="M1015.47,494.58c-7.92,0-11.24-3.55-11.23-12.01c0-7.52,3.75-10.95,11.95-10.94c7.53,0,10.91,3.75,10.91,12.08   C1027.09,491.25,1023.52,494.58,1015.47,494.58z"/>
	<path d="M1015.71,467.79c-8.19,0-11.48-3.37-11.47-11.76c0-7.68,3.55-11.17,11.33-11.17c8.2,0,11.53,3.41,11.53,11.8   C1027.09,464.28,1023.5,467.79,1015.71,467.79z"/>
	<path d="M1004.24,510.07c0-7.93,3.63-11.7,11.28-11.71c8.41,0,11.58,3.44,11.57,12.56c0,6.97-4.08,10.51-12.08,10.51   C1007.76,521.43,1004.24,517.72,1004.24,510.07z"/>
	<path class="st2" d="M988.89,467.79c-8.17,0-11.52-3.54-11.52-12.18c0-7.2,3.91-10.76,11.84-10.75c7.66,0,11.22,3.76,11.22,11.84   C1000.42,463.98,996.47,467.79,988.89,467.79z"/>
	<path d="M961.98,467.79c-8.01,0-11.47-3.59-11.46-11.92c0-7.58,3.74-11.01,12-11.01c7.65,0,11.08,3.7,11.07,11.93   C973.58,464.04,969.63,467.79,961.98,467.79z"/>
	<path class="st2" d="M988.42,494.58c-7.75,0-11.05-3.65-11.04-12.21c0-7.23,3.9-10.75,11.88-10.74c7.52,0,11.18,3.79,11.17,11.54   C1000.42,491.13,996.8,494.58,988.42,494.58z"/>
	<path d="M919.86,510.27c0,7.73-3.73,11.17-12.12,11.17c-7.28,0-10.74-3.82-10.74-11.85c0-7.81,3.71-11.23,12.17-11.22   C916.43,498.37,919.86,502.2,919.86,510.27z"/>
	<path d="M919.86,456.61c0,7.83-3.5,11.18-11.65,11.18c-7.85,0-11.21-3.64-11.21-12.11c0-7.24,3.89-10.83,11.75-10.82   C916.44,444.86,919.86,448.48,919.86,456.61z"/>
	<path d="M935.19,467.79c-7.86,0-11.52-3.67-11.52-11.52c0-8.03,3.57-11.41,12.02-11.41c7.85,0,11.04,3.68,11.04,12.68   C946.72,464.38,942.88,467.79,935.19,467.79z"/>
	<path class="st2" d="M1053.86,509.81c0,8.4-3.35,11.63-12.05,11.63c-7.38,0-10.83-3.74-10.83-11.74c0-7.94,3.62-11.34,12.06-11.33   C1050.15,498.38,1053.86,502.29,1053.86,509.81z"/>
	<path class="st2" d="M881.57,494.58c-8.04,0-11.33-3.46-11.33-11.92c0-7.5,3.81-11.03,11.93-11.03c7.64,0,10.96,3.64,10.96,12   C893.12,491.05,889.4,494.58,881.57,494.58z"/>
	<path class="st2" d="M1053.86,483.08c0,8.3-3.36,11.5-12.09,11.5c-7.44,0-10.8-3.77-10.79-12.1c0.01-7.38,3.9-10.86,12.14-10.85   C1050.34,471.63,1053.86,475.39,1053.86,483.08z"/>
	<path d="M893.12,509.96c0,8.29-3.4,11.48-12.23,11.47c-7.19,0-10.65-3.87-10.65-11.91c0-7.78,3.58-11.17,11.79-11.16   C889.41,498.37,893.12,502.25,893.12,509.96z"/>
	<path class="st2" d="M946.73,483.03c0,7.84-3.65,11.55-11.36,11.55c-7.9,0-11.7-3.7-11.69-11.38c0-8.24,3.65-11.58,12.66-11.57   C942.92,471.63,946.72,475.8,946.73,483.03z"/>
	<path class="st2" d="M973.59,482.97c0,8.14-3.63,11.61-12.15,11.61c-7.54,0-10.92-3.74-10.92-12.06c0-7.35,3.95-10.89,12.14-10.89   C969.87,471.63,973.59,475.49,973.59,482.97z"/>
	<path class="st2" d="M977.38,509.92c0-7.85,3.69-11.56,11.5-11.55c7.92,0,11.55,3.76,11.55,11.96c0,7.7-3.81,11.12-12.35,11.11   C980.91,521.43,977.38,517.63,977.38,509.92z"/>
	<path d="M881.34,467.79c-7.89,0-11.11-3.53-11.1-12.14c0-7.3,3.82-10.8,11.77-10.79c7.77,0.01,11.12,3.56,11.11,11.8   C893.12,464.43,889.56,467.79,881.34,467.79z"/>
	<path d="M946.73,509.9c0,8.07-3.68,11.54-12.22,11.54c-7.13,0-10.83-4.05-10.83-11.84c0-7.63,3.94-11.24,12.27-11.23   C943.01,498.37,946.73,502.34,946.73,509.9z"/>
	<path d="M1053.86,456.53c0,7.92-3.45,11.26-11.62,11.26c-8.01,0-11.26-3.47-11.26-12.01c0-7.39,3.78-10.93,11.67-10.92   C1050.55,444.87,1053.86,448.31,1053.86,456.53z"/>
	<path d="M962.06,521.44c-7.9,0-11.54-3.75-11.54-11.88c0-7.53,3.9-11.19,11.92-11.19c7.6,0,11.16,3.93,11.15,12.3   C973.58,517.75,969.62,521.44,962.06,521.44z"/>
	<path class="st3" d="M912.27,483.37c0.23,3.54-1.95,3.64-4.39,3.64c-3.12,0-3.12-1.99-3.19-4.28c-0.1-3.05,1.64-3.36,4.06-3.38   C911.84,479.31,912.67,480.87,912.27,483.37z"/>
	<path class="st4" d="M1011.84,483.18c-0.36-2.64,0.71-3.83,3.51-3.84c2.71-0.01,4.17,0.67,4.09,3.77   c-0.06,2.57-0.67,3.96-3.55,3.93C1013.19,487,1011.52,486.26,1011.84,483.18z"/>
	<path class="st5" d="M1019.34,456.2c0.37,2.76-0.58,4.1-3.62,4.06c-2.84-0.03-3.97-1.03-3.95-3.91c0.01-2.61,0.81-3.84,3.6-3.83   C1018.01,452.53,1019.8,453.04,1019.34,456.2z"/>
	<path class="st6" d="M1019.36,509.74c0.32,2.75-0.76,4.13-3.69,4.1c-2.48-0.03-3.96-0.69-3.9-3.55c0.05-2.53,0.48-4.33,3.58-4.33   C1018.01,505.96,1019.72,506.68,1019.36,509.74z"/>
	<path class="st3" d="M988.9,452.6c2.73-0.26,3.84,0.94,3.86,3.66c0.01,2.84-1.05,4.05-3.97,3.99c-2.65-0.06-3.8-1.07-3.86-3.76   C984.87,453.58,986.05,452.29,988.9,452.6z"/>
	<path class="st6" d="M962.08,460.19c-2.73,0.33-3.96-0.89-3.97-3.78c-0.01-2.88,1.2-3.91,4.03-3.9c2.63,0.01,3.88,0.84,3.86,3.62   C965.97,458.81,965.17,460.45,962.08,460.19z"/>
	<path class="st7" d="M989.18,479.41c3.29-0.35,3.58,1.67,3.59,4.21c0.01,3.28-2.01,3.41-4.46,3.41c-2.93,0-3.36-1.7-3.39-4.12   C984.88,479.76,986.59,479.1,989.18,479.41z"/>
	<path class="st8" d="M912.28,509.93c0.34,2.98-1.19,3.9-3.93,3.92c-2.71,0.02-3.69-1.09-3.69-3.78c0-2.74,0.85-4.11,3.79-4.12   C911.33,505.94,912.59,507.11,912.28,509.93z"/>
	<path class="st9" d="M908.43,452.6c2.98-0.34,3.94,1.12,3.9,3.92c-0.04,2.69-1.15,3.68-3.81,3.72c-2.95,0.04-3.88-1.24-3.85-4.04   C904.7,453.49,905.73,452.27,908.43,452.6z"/>
	<path class="st9" d="M935.18,460.17c-3.08,0.35-3.8-1.31-3.85-4.02c-0.05-3.14,1.59-3.62,4.22-3.63c2.82-0.01,3.62,1.26,3.62,3.86   C939.19,459.28,938.02,460.54,935.18,460.17z"/>
	<path class="st4" d="M1046.2,509.87c0.36,2.75-0.81,3.99-3.73,3.97c-2.85-0.01-3.91-1.19-3.91-4.02c0.01-2.66,0.98-3.83,3.65-3.85   C1044.88,505.96,1046.54,506.78,1046.2,509.87z"/>
	<path class="st9" d="M877.92,483.07c-0.36-3.34,1.6-3.69,4.17-3.72c2.96-0.04,3.42,1.52,3.44,4.01c0.03,3.13-1.66,3.67-4.26,3.66   C878.39,487,877.6,485.49,877.92,483.07z"/>
	<path class="st9" d="M1042.73,479.42c2.98-0.34,3.5,1.33,3.53,3.85c0.04,3.07-1.51,3.77-4.17,3.74c-2.81-0.03-3.5-1.43-3.53-3.99   C1038.53,479.91,1040.08,479.11,1042.73,479.42z"/>
	<path class="st4" d="M877.9,509.86c-0.37-2.94,1.1-3.94,3.88-3.89c2.63,0.04,3.72,1.12,3.75,3.8c0.04,2.76-0.82,4.1-3.79,4.09   C878.89,513.84,877.59,512.73,877.9,509.86z"/>
	<path class="st10" d="M935.33,479.4c2.78-0.26,3.86,1,3.85,3.69c-0.01,2.83-1.16,4-4.04,3.95c-2.71-0.05-3.73-1.2-3.8-3.83   C931.27,480.27,932.57,479.1,935.33,479.4z"/>
	<path class="st7" d="M965.96,483.36c0.19,3.04-1.58,3.69-4.2,3.68c-2.72-0.01-3.63-1.23-3.67-3.86c-0.05-3.28,1.68-3.84,4.45-3.85   C965.5,479.32,966.09,480.93,965.96,483.36z"/>
	<path class="st11" d="M992.72,510.08c0.35,3.01-1.28,3.78-3.99,3.79c-2.91,0.01-3.87-1.25-3.83-4.04c0.04-2.87,1.26-3.91,4.05-3.88   C991.85,505.98,992.99,507.3,992.72,510.08z"/>
	<path class="st5" d="M885.45,456.18c0.29,3.13-1.19,4.07-3.98,4.07c-2.81,0-3.58-1.28-3.65-3.88c-0.08-3.01,1.22-3.89,4.03-3.83   C884.56,452.59,885.85,453.58,885.45,456.18z"/>
	<path class="st7" d="M935.1,513.81c-3.15,0.15-3.82-1.62-3.76-4.25c0.05-2.76,1.48-3.64,4-3.58c2.78,0.06,3.92,1.31,3.86,4.14   C939.13,513.09,937.7,514.07,935.1,513.81z"/>
	<path class="st5" d="M1042.44,460.16c-3.07,0.36-3.83-1.21-3.88-3.96c-0.06-3.11,1.48-3.66,4.14-3.69c2.83-0.03,3.57,1.2,3.58,3.82   C1046.29,459.18,1045.35,460.59,1042.44,460.16z"/>
	<path class="st12" d="M961.87,513.83c-3.14,0.15-3.77-1.7-3.76-4.29c0.01-2.8,1.49-3.56,4.02-3.59c3.3-0.04,3.87,1.83,3.87,4.55   C966,513.52,964.15,513.91,961.87,513.83z"/>
</g>
</svg>