<?xml version="1.0" standalone="no"?>
<!DOCTYPE svg PUBLIC "-//W3C//DTD SVG 20010904//EN"
 "http://www.w3.org/TR/2001/REC-SVG-20010904/DTD/svg10.dtd">
<svg version="1.0" xmlns="http://www.w3.org/2000/svg"
 width="512.000000pt" height="512.000000pt" viewBox="0 0 512.000000 512.000000"
 preserveAspectRatio="xMidYMid meet">

<g transform="translate(0.000000,512.000000) scale(0.100000,-0.100000)"
fill="#000000" stroke="none">
<path d="M1970 4830 c-856 -65 -1601 -652 -1865 -1470 -214 -664 -94 -1376
327 -1940 87 -116 293 -324 407 -410 294 -221 612 -356 986 -416 79 -13 164
-18 300 -18 263 1 385 19 667 100 13 4 15 10 9 27 -5 12 -14 64 -21 115 -19
150 4 290 74 437 79 167 205 294 371 375 96 47 211 80 274 80 21 0 31 5 31 15
0 8 -34 167 -75 353 -77 350 -86 420 -66 528 28 146 96 241 215 301 198 100
455 159 584 135 28 -5 52 -8 52 -7 0 2 -7 38 -16 81 -153 761 -702 1378 -1439
1617 -241 79 -557 116 -815 97z m405 -1185 c290 -73 536 -284 652 -558 152
-359 81 -762 -185 -1049 -274 -295 -714 -388 -1092 -230 -241 102 -452 328
-536 576 -176 517 96 1068 616 1245 162 56 365 62 545 16z"/>
<path d="M1988 3510 c-286 -52 -545 -278 -632 -553 -78 -246 -37 -518 108
-720 122 -171 284 -281 484 -328 116 -28 311 -23 417 11 452 144 693 614 540
1053 -87 249 -306 452 -560 522 -69 19 -286 28 -357 15z m297 -205 c147 -37
277 -130 364 -261 66 -98 92 -181 98 -314 9 -186 -46 -329 -177 -461 -242
-243 -626 -247 -870 -8 -170 166 -229 405 -155 635 59 189 226 350 420 405 77
23 240 24 320 4z"/>
<path d="M2060 2848 c-65 -34 -85 -67 -85 -143 0 -49 5 -70 21 -91 33 -45 70
-67 121 -71 177 -17 250 221 93 304 -54 29 -94 29 -150 1z"/>
<path d="M3995 2854 c-99 -22 -262 -77 -317 -109 -56 -31 -85 -68 -104 -132
-28 -91 -19 -161 71 -568 93 -418 95 -437 45 -478 -23 -20 -44 -25 -120 -30
-189 -14 -310 -66 -430 -187 -128 -127 -184 -261 -184 -440 0 -179 56 -313
184 -440 124 -125 262 -183 435 -183 291 0 536 188 610 469 35 132 27 192 -99
756 -64 284 -116 526 -116 537 0 32 21 70 43 77 32 10 51 -22 101 -171 64
-193 154 -371 220 -439 75 -77 140 -100 271 -93 124 6 234 43 362 124 82 50
153 108 153 123 0 4 -20 7 -44 7 -105 0 -255 122 -353 287 -41 69 -67 136
-123 309 -85 263 -139 381 -216 465 -103 114 -228 151 -389 116z"/>
</g>
</svg>
