<?xml version="1.0" standalone="no"?>
<!DOCTYPE svg PUBLIC "-//W3C//DTD SVG 20010904//EN"
 "http://www.w3.org/TR/2001/REC-SVG-20010904/DTD/svg10.dtd">
<svg version="1.0" xmlns="http://www.w3.org/2000/svg"
 width="512.000000pt" height="512.000000pt" viewBox="0 0 512.000000 512.000000"
 preserveAspectRatio="xMidYMid meet">

<g transform="translate(0.000000,512.000000) scale(0.100000,-0.100000)"
fill="#000000" stroke="none">
<path d="M1785 5114 c-376 -38 -681 -152 -966 -360 -108 -79 -130 -124 -95
-193 33 -62 102 -66 182 -10 190 131 317 201 462 253 464 166 988 115 1412
-137 151 -90 256 -178 412 -345 64 -68 70 -72 112 -72 36 0 50 6 75 31 25 25
31 39 31 75 0 40 -6 50 -69 121 -299 339 -673 545 -1121 619 -86 14 -361 25
-435 18z"/>
<path d="M1775 4730 c-245 -28 -479 -113 -682 -249 -113 -76 -143 -109 -143
-161 0 -50 38 -97 85 -106 37 -7 60 4 183 88 132 91 294 159 462 195 119 25
381 25 500 0 277 -60 475 -171 689 -388 92 -93 100 -99 139 -99 85 0 133 80
94 156 -24 47 -182 204 -273 273 -183 137 -411 235 -644 276 -107 18 -311 26
-410 15z"/>
<path d="M1745 4244 c-292 -43 -541 -169 -740 -375 -104 -108 -167 -199 -230
-331 -89 -189 -120 -350 -112 -582 4 -117 11 -173 30 -248 53 -203 164 -402
306 -551 327 -343 803 -467 1267 -331 19 5 66 -49 356 -408 l335 -413 7 -68
c16 -142 81 -312 167 -434 131 -183 317 -379 420 -440 74 -44 168 -67 246 -60
211 20 525 257 629 475 33 69 44 194 24 270 -31 112 -133 273 -296 469 -135
160 -280 263 -454 322 l-65 22 -295 365 c-162 201 -312 387 -333 413 l-37 48
24 44 c43 77 87 198 113 313 21 90 26 138 27 256 1 166 -12 250 -60 398 -130
401 -459 707 -872 814 -101 26 -138 31 -272 33 -85 2 -168 1 -185 -1z m553
-706 c2 -23 -17 -115 -47 -228 -28 -104 -51 -193 -51 -199 0 -5 73 -55 162
-112 222 -143 247 -169 195 -204 -17 -11 -80 -18 -239 -26 l-216 -12 -52 -198
c-91 -341 -107 -342 -235 -13 -66 171 -75 189 -96 189 -13 0 -112 -4 -220 -9
-205 -9 -239 -4 -239 32 0 27 36 63 185 182 77 62 146 118 153 125 11 10 -1
48 -63 211 -85 222 -90 257 -40 262 25 2 66 -20 209 -113 97 -63 182 -115 187
-115 6 0 76 53 157 118 184 148 192 153 222 150 21 -3 25 -9 28 -40z m1587
-2561 c60 -30 105 -76 137 -137 33 -64 33 -196 0 -257 -78 -148 -253 -206
-400 -132 -70 35 -105 71 -140 148 -21 46 -24 64 -20 131 5 91 32 145 102 207
87 77 218 93 321 40z"/>
</g>
</svg>
