<?xml version="1.0" standalone="no"?>
<!DOCTYPE svg PUBLIC "-//W3C//DTD SVG 20010904//EN"
 "http://www.w3.org/TR/2001/REC-SVG-20010904/DTD/svg10.dtd">
<svg version="1.0" xmlns="http://www.w3.org/2000/svg"
 width="512.000000pt" height="512.000000pt" viewBox="0 0 512.000000 512.000000"
 preserveAspectRatio="xMidYMid meet">

<g transform="translate(0.000000,512.000000) scale(0.100000,-0.100000)"
fill="#000000" stroke="none">
<path d="M4740 5112 c0 -20 -120 -191 -194 -274 -42 -48 -112 -117 -156 -154
-70 -59 -78 -69 -69 -87 17 -30 4 -93 -26 -133 -15 -19 -406 -398 -868 -841
-463 -443 -863 -826 -888 -851 l-47 -44 -63 64 c-213 217 -576 205 -772 -25
-70 -82 -127 -212 -127 -287 0 -54 -53 -153 -105 -196 -67 -54 -109 -63 -276
-57 -228 9 -390 -26 -584 -125 -112 -58 -223 -141 -305 -229 -400 -428 -316
-1020 215 -1514 372 -345 816 -448 1170 -271 276 138 503 441 569 763 8 41 20
144 25 229 11 174 33 262 81 328 39 54 72 70 178 87 152 25 296 112 375 227
48 69 56 109 28 137 -19 19 -33 21 -125 21 -90 0 -107 3 -136 23 -43 28 -69
74 -86 146 -21 88 -18 153 9 187 21 28 1638 1734 1841 1943 103 107 140 131
199 131 31 0 42 9 119 103 103 123 240 259 326 323 34 25 62 50 62 54 0 5 -19
37 -42 72 -32 47 -55 69 -90 87 -27 13 -48 30 -48 38 0 29 -41 72 -93 97 -66
31 -97 40 -97 28z m-2882 -2976 c41 -22 289 -277 302 -309 15 -41 -9 -85 -82
-152 -51 -48 -65 -55 -99 -55 -38 0 -47 7 -179 136 -142 139 -175 185 -164
228 8 34 146 166 173 166 12 0 34 -6 49 -14z"/>
</g>
</svg>
