<?xml version="1.0" standalone="no"?>
<!DOCTYPE svg PUBLIC "-//W3C//DTD SVG 20010904//EN"
 "http://www.w3.org/TR/2001/REC-SVG-20010904/DTD/svg10.dtd">
<svg version="1.0" xmlns="http://www.w3.org/2000/svg"
 width="512.000000pt" height="512.000000pt" viewBox="0 0 512.000000 512.000000"
 preserveAspectRatio="xMidYMid meet">

<g transform="translate(0.000000,512.000000) scale(0.100000,-0.100000)"
fill="#000000" stroke="none">
<path d="M577 4946 c-95 -35 -160 -114 -173 -208 -8 -57 17 -142 54 -185 15
-17 281 -250 592 -517 404 -349 575 -490 602 -498 51 -15 122 11 149 56 32 53
34 91 8 140 -13 24 -244 298 -513 610 -394 456 -498 570 -532 587 -56 27 -138
33 -187 15z"/>
<path d="M4390 4945 c-25 -8 -59 -27 -77 -42 -69 -61 -1003 -1157 -1014 -1191
-32 -98 75 -205 173 -173 23 8 246 193 616 513 626 539 620 532 630 638 10
107 -62 219 -163 253 -58 20 -104 21 -165 2z"/>
<path d="M2480 3920 l0 -160 80 0 80 0 0 160 0 160 -80 0 -80 0 0 -160z"/>
<path d="M1997 3922 c-26 -26 -47 -52 -47 -58 0 -5 52 -61 115 -124 l115 -115
57 58 58 57 -115 115 c-63 63 -119 115 -125 115 -6 0 -32 -22 -58 -48z"/>
<path d="M2942 3857 c-61 -62 -112 -117 -112 -123 0 -13 92 -104 106 -104 5 0
61 52 124 115 l114 115 -54 55 c-30 30 -57 55 -60 55 -3 0 -56 -51 -118 -113z"/>
<path d="M2180 3108 c-716 -42 -1338 -237 -1295 -405 28 -112 347 -241 770
-312 574 -96 1259 -94 1834 5 392 67 687 183 738 289 16 33 16 37 0 70 -63
133 -481 269 -1012 329 -298 34 -707 44 -1035 24z"/>
<path d="M880 2428 c0 -79 56 -136 194 -198 502 -225 1587 -297 2396 -159 382
65 688 180 750 281 19 32 29 124 13 116 -5 -2 -44 -22 -88 -44 -678 -350
-2492 -350 -3170 0 -44 22 -83 42 -87 44 -5 2 -8 -16 -8 -40z"/>
<path d="M880 2027 l0 -125 30 -12 c42 -17 104 -90 118 -138 7 -22 12 -93 12
-158 0 -104 -3 -126 -24 -169 -23 -51 -78 -108 -115 -120 -20 -6 -21 -14 -21
-143 0 -162 7 -178 93 -235 72 -48 164 -87 307 -130 108 -33 347 -87 384 -87
14 0 16 20 16 174 l0 174 -30 12 c-42 17 -104 90 -118 138 -15 51 -15 253 0
304 14 48 76 121 118 138 l30 12 0 120 c0 86 -3 120 -12 122 -7 2 -56 12 -108
21 -233 42 -444 106 -580 176 -47 24 -88 45 -92 47 -5 2 -8 -52 -8 -121z"/>
<path d="M4145 2104 c-131 -70 -329 -131 -580 -178 l-120 -23 -3 -120 -3 -120
31 -13 c42 -17 104 -90 118 -138 7 -22 12 -93 12 -158 0 -104 -3 -126 -24
-169 -23 -51 -78 -108 -115 -120 -20 -6 -21 -13 -21 -182 l0 -175 48 6 c154
22 424 97 548 152 85 38 162 90 184 126 17 29 20 51 20 169 l0 137 -30 12
c-42 17 -104 90 -118 138 -15 51 -15 253 0 304 14 48 76 121 118 138 l30 12 0
124 c0 68 -3 123 -7 123 -5 -1 -44 -21 -88 -45z"/>
<path d="M1840 1773 l0 -111 30 -12 c42 -17 104 -90 118 -138 7 -22 12 -93 12
-158 0 -104 -3 -126 -24 -169 -23 -51 -78 -108 -115 -120 -20 -6 -21 -13 -21
-194 l0 -188 53 -6 c380 -44 954 -44 1335 0 l52 6 0 187 0 188 -30 12 c-42 17
-104 90 -118 138 -15 51 -15 253 0 304 14 48 76 121 118 138 l30 12 0 111 0
110 -47 -6 c-336 -43 -976 -43 -1336 -1 l-57 7 0 -110z"/>
<path d="M745 1735 c-24 -23 -25 -31 -25 -135 0 -104 1 -112 25 -135 15 -16
36 -25 55 -25 19 0 40 9 55 25 24 23 25 31 25 135 0 104 -1 112 -25 135 -15
16 -36 25 -55 25 -19 0 -40 -9 -55 -25z"/>
<path d="M4265 1735 c-24 -23 -25 -31 -25 -135 0 -104 1 -112 25 -135 15 -16
36 -25 55 -25 19 0 40 9 55 25 24 23 25 31 25 135 0 104 -1 112 -25 135 -15
16 -36 25 -55 25 -19 0 -40 -9 -55 -25z"/>
<path d="M1705 1495 c-24 -23 -25 -31 -25 -135 0 -104 1 -112 25 -135 15 -16
36 -25 55 -25 19 0 40 9 55 25 24 23 25 31 25 135 0 104 -1 112 -25 135 -15
16 -36 25 -55 25 -19 0 -40 -9 -55 -25z"/>
<path d="M3305 1495 c-24 -23 -25 -31 -25 -135 0 -104 1 -112 25 -135 15 -16
36 -25 55 -25 19 0 40 9 55 25 24 23 25 31 25 135 0 104 -1 112 -25 135 -15
16 -36 25 -55 25 -19 0 -40 -9 -55 -25z"/>
<path d="M880 748 c0 -79 56 -136 194 -198 502 -225 1587 -297 2396 -159 382
65 688 180 750 281 19 32 29 124 13 116 -5 -2 -44 -22 -88 -44 -678 -350
-2492 -350 -3170 0 -44 22 -83 42 -87 44 -5 2 -8 -16 -8 -40z"/>
</g>
</svg>
