<?xml version="1.0" standalone="no"?>
<!DOCTYPE svg PUBLIC "-//W3C//DTD SVG 20010904//EN"
 "http://www.w3.org/TR/2001/REC-SVG-20010904/DTD/svg10.dtd">
<svg version="1.0" xmlns="http://www.w3.org/2000/svg"
 width="512.000000pt" height="512.000000pt" viewBox="0 0 512.000000 512.000000"
 preserveAspectRatio="xMidYMid meet">

<g transform="translate(0.000000,512.000000) scale(0.100000,-0.100000)"
fill="#000000" stroke="none">
<path d="M4167 5104 c-4 -4 -7 -20 -7 -35 0 -39 -43 -180 -84 -277 -112 -267
-392 -686 -732 -1097 -59 -71 -253 -276 -430 -455 l-323 -324 -80 77 c-44 42
-86 77 -92 77 -6 0 -51 -40 -101 -89 -75 -75 -90 -93 -85 -113 4 -13 38 -54
77 -93 l70 -69 -67 -68 -66 -67 -80 75 c-43 40 -86 74 -94 74 -19 0 -193 -172
-193 -190 0 -7 35 -48 77 -91 l77 -79 -64 -65 c-36 -36 -69 -65 -75 -65 -6 0
-42 31 -80 70 -38 38 -78 70 -89 70 -26 0 -185 -159 -186 -185 0 -12 29 -49
70 -90 39 -38 70 -74 70 -80 0 -5 -243 -253 -541 -550 -364 -364 -547 -553
-560 -580 -42 -89 -9 -216 71 -274 70 -50 167 -58 244 -20 11 6 118 108 237
226 l217 216 17 -29 c59 -96 99 -144 199 -241 178 -172 283 -222 486 -230 98
-5 128 -2 195 16 141 39 204 80 366 238 80 79 150 143 155 143 5 0 45 -36 89
-80 46 -46 94 -85 113 -91 99 -33 207 64 187 169 -5 28 -27 58 -96 127 l-89
91 70 69 70 70 83 -82 c84 -84 115 -103 168 -103 62 0 126 54 136 113 11 72
-3 101 -92 195 l-84 89 67 66 68 67 74 -76 c88 -89 116 -106 178 -106 70 0
129 54 139 129 7 55 -14 93 -105 185 l-76 78 220 222 c202 204 224 230 262
305 103 208 96 455 -20 651 -46 79 -268 301 -341 342 -32 17 -57 35 -55 39 5
12 152 138 253 217 351 276 738 475 1043 538 41 8 76 16 78 18 2 2 -207 214
-464 471 -257 257 -471 465 -475 461z m-589 -2034 c21 -10 83 -65 139 -122
122 -123 146 -168 146 -273 0 -122 -22 -157 -251 -387 l-197 -198 -253 252
-252 253 257 257 258 256 58 -9 c33 -5 75 -18 95 -29z m-623 -940 l250 -250
-65 -65 c-35 -36 -69 -65 -75 -65 -13 0 -495 482 -495 495 0 10 120 135 130
135 3 0 118 -112 255 -250z m-165 -665 l-70 -70 -252 252 -253 253 70 70 70
70 252 -252 253 -253 -70 -70z m-525 -25 l250 -251 -125 -123 c-69 -68 -144
-133 -167 -145 -85 -43 -211 -43 -296 1 -55 28 -218 192 -247 248 -12 24 -25
70 -28 103 l-5 59 179 179 c98 98 181 179 184 179 3 0 118 -113 255 -250z"/>
<path d="M2156 3141 c-129 -130 -140 -152 -95 -196 53 -51 60 -48 195 86 137
136 144 151 95 200 -49 48 -64 41 -195 -90z"/>
<path d="M1807 2792 c-129 -129 -138 -148 -91 -196 48 -47 67 -38 196 91 130
130 140 152 93 198 -46 47 -68 37 -198 -93z"/>
<path d="M1452 2437 c-67 -68 -122 -132 -122 -141 0 -23 63 -86 86 -86 9 0 73
55 141 122 136 135 143 150 94 199 -49 49 -64 42 -199 -94z"/>
<path d="M203 577 l-203 -72 252 -252 252 -252 26 72 c15 40 49 136 76 214
l49 142 -110 111 c-60 60 -116 110 -125 109 -8 0 -106 -33 -217 -72z"/>
</g>
</svg>
