<?xml version="1.0" standalone="no"?>
<!DOCTYPE svg PUBLIC "-//W3C//DTD SVG 20010904//EN"
 "http://www.w3.org/TR/2001/REC-SVG-20010904/DTD/svg10.dtd">
<svg version="1.0" xmlns="http://www.w3.org/2000/svg"
 width="67.000000pt" height="67.000000pt" viewBox="0 0 67.000000 67.000000"
 preserveAspectRatio="xMidYMid meet">

<g transform="translate(0.000000,67.000000) scale(0.100000,-0.100000)"
fill="#000000" stroke="none">
<path d="M525 662 c-2 -2 -1 -10 2 -18 3 -9 -2 -14 -14 -14 -16 0 -19 -6 -16
-38 2 -35 -2 -43 -62 -102 l-66 -65 -77 0 c-92 0 -167 -30 -230 -93 -95 -95
-69 -253 51 -311 82 -40 166 -22 230 48 67 74 106 188 86 249 -11 34 -11 35
61 107 70 70 74 73 112 67 35 -4 39 -3 36 14 -2 13 2 18 13 16 12 -2 16 8 18
46 2 65 -30 97 -95 97 -25 0 -47 -1 -49 -3z m99 -33 c14 -11 26 -31 26 -43 0
-29 -46 -72 -72 -68 -15 3 -50 -25 -129 -104 -60 -60 -109 -104 -109 -99 0 5
57 67 127 137 70 70 124 131 120 135 -4 4 -67 -51 -140 -122 -124 -122 -125
-124 -25 -19 83 85 106 115 102 131 -4 14 4 28 26 46 38 32 40 33 74 6z m-299
-230 c4 -5 0 -18 -9 -28 -20 -22 -20 -40 1 -63 21 -23 36 -23 58 2 27 30 35
25 35 -25 0 -109 -84 -234 -172 -257 -153 -39 -274 147 -176 271 56 72 238
141 263 100z"/>
<path d="M147 275 c-30 -31 -41 -65 -21 -65 8 0 14 6 14 13 0 20 43 57 67 57
11 0 32 -9 47 -21 42 -33 31 -100 -20 -119 -13 -5 -24 -14 -24 -20 0 -18 28
-11 59 16 26 21 31 33 31 68 0 84 -95 128 -153 71z"/>
<path d="M168 225 c-27 -29 -49 -43 -59 -40 -12 4 -16 -1 -16 -20 0 -15 5 -25
13 -25 8 0 13 -6 12 -12 -2 -7 5 -12 14 -10 12 2 16 -2 12 -11 -4 -10 3 -14
21 -14 15 0 24 4 22 11 -3 6 16 32 41 58 61 64 45 75 -18 13 -28 -27 -50 -45
-50 -40 0 5 23 33 52 62 65 66 42 70 -27 6 l-50 -48 48 51 c28 30 44 54 39 58
-6 4 -30 -14 -54 -39z"/>
</g>
</svg>
