<?xml version="1.0" standalone="no"?>
<!DOCTYPE svg PUBLIC "-//W3C//DTD SVG 20010904//EN"
 "http://www.w3.org/TR/2001/REC-SVG-20010904/DTD/svg10.dtd">
<svg version="1.0" xmlns="http://www.w3.org/2000/svg"
 width="66.000000pt" height="69.000000pt" viewBox="0 0 66.000000 69.000000"
 preserveAspectRatio="xMidYMid meet">

<g transform="translate(0.000000,69.000000) scale(0.100000,-0.100000)"
fill="#000000" stroke="none">
<path d="M327 683 c-4 -3 -7 -15 -7 -25 0 -11 -7 -18 -20 -18 -17 0 -20 -7
-20 -44 0 -34 4 -46 18 -49 13 -4 11 -5 -5 -6 -20 -1 -23 -6 -23 -46 0 -39 3
-45 21 -45 11 0 17 -4 14 -10 -3 -5 -15 -10 -26 -10 -16 0 -19 -7 -19 -40 0
-33 4 -42 23 -50 20 -8 19 -9 -11 -9 -33 -1 -33 -2 -30 -43 3 -35 7 -43 28
-49 25 -6 24 -6 -5 -10 -28 -4 -30 -7 -30 -44 0 -36 3 -40 30 -46 l30 -6 -35
-4 c-33 -4 -35 -7 -38 -43 -3 -40 11 -60 36 -51 8 3 16 -4 19 -15 7 -26 53
-28 59 -2 4 15 17 17 102 15 80 -1 98 -4 100 -17 5 -24 53 -21 59 4 3 11 9 17
14 14 5 -3 18 -2 30 1 17 6 20 14 17 48 -3 39 -5 42 -38 48 -30 6 -31 7 -7 8
25 1 27 4 27 46 0 44 -1 45 -32 46 -31 2 -31 2 -5 6 25 4 27 8 27 49 0 41 -2
44 -27 45 -27 0 -27 1 -5 9 18 8 22 17 22 50 0 36 -2 40 -25 40 -14 0 -25 5
-25 10 0 6 9 10 20 10 17 0 20 7 20 45 0 42 -2 45 -27 46 -27 0 -27 1 -5 9 18
8 22 17 22 50 0 36 -2 40 -25 40 -20 0 -25 5 -25 25 0 20 -5 25 -25 25 -20 0
-25 -5 -25 -25 0 -24 -3 -25 -60 -25 -57 0 -60 1 -60 25 0 20 -5 25 -23 25
-13 0 -27 -3 -30 -7z m33 -33 c0 -5 -4 -10 -10 -10 -5 0 -10 5 -10 10 0 6 5
10 10 10 6 0 10 -4 10 -10z m215 -55 c0 -19 -8 -20 -137 -23 l-138 -3 0 26 0
26 138 -3 c129 -3 137 -4 137 -23z m-108 -52 c-20 -2 -52 -2 -70 0 -17 2 0 4
38 4 39 0 53 -2 32 -4z m121 -50 c3 -23 3 -23 -147 -23 l-151 0 0 25 0 26 148
-3 c144 -3 147 -3 150 -25z m-78 -53 c0 -6 -30 -10 -70 -10 -40 0 -70 4 -70
10 0 6 30 10 70 10 40 0 70 -4 70 -10z m90 -50 c0 -19 -7 -20 -160 -20 -153 0
-160 1 -160 20 0 19 7 20 160 20 153 0 160 -1 160 -20z m-117 -57 c-24 -2 -62
-2 -85 0 -24 2 -5 4 42 4 47 0 66 -2 43 -4z m125 -45 c-3 -23 -5 -23 -170 -26
l-168 -2 0 25 0 25 171 0 170 0 -3 -22z m-125 -55 c-23 -2 -64 -2 -90 0 -26 2
-7 3 42 3 50 0 71 -1 48 -3z m137 -48 l0 -25 -179 0 c-180 0 -199 4 -187 35 4
12 37 15 186 15 l180 0 0 -25z m-132 -52 c-26 -2 -71 -2 -100 0 -29 2 -8 3 47
3 55 0 79 -1 53 -3z m142 -53 c0 -19 -7 -20 -195 -20 -188 0 -195 1 -195 20 0
19 7 20 195 20 188 0 195 -1 195 -20z"/>
<path d="M340 600 c0 -5 5 -10 11 -10 5 0 7 5 4 10 -3 6 -8 10 -11 10 -2 0 -4
-4 -4 -10z"/>
<path d="M520 600 c0 -5 5 -10 10 -10 6 0 10 5 10 10 0 6 -4 10 -10 10 -5 0
-10 -4 -10 -10z"/>
<path d="M325 490 c4 -6 11 -8 16 -5 14 9 11 15 -7 15 -8 0 -12 -5 -9 -10z"/>
<path d="M530 490 c0 -5 5 -10 10 -10 6 0 10 5 10 10 0 6 -4 10 -10 10 -5 0
-10 -4 -10 -10z"/>
<path d="M310 390 c0 -5 5 -10 10 -10 6 0 10 5 10 10 0 6 -4 10 -10 10 -5 0
-10 -4 -10 -10z"/>
<path d="M540 390 c0 -5 5 -10 10 -10 6 0 10 5 10 10 0 6 -4 10 -10 10 -5 0
-10 -4 -10 -10z"/>
<path d="M315 290 c-3 -5 1 -10 10 -10 9 0 13 5 10 10 -3 6 -8 10 -10 10 -2 0
-7 -4 -10 -10z"/>
<path d="M545 290 c-3 -5 -1 -10 4 -10 6 0 11 5 11 10 0 6 -2 10 -4 10 -3 0
-8 -4 -11 -10z"/>
<path d="M305 180 c3 -5 8 -10 11 -10 2 0 4 5 4 10 0 6 -5 10 -11 10 -5 0 -7
-4 -4 -10z"/>
<path d="M555 180 c4 -6 11 -8 16 -5 14 9 11 15 -7 15 -8 0 -12 -5 -9 -10z"/>
<path d="M300 80 c0 -5 5 -10 10 -10 6 0 10 5 10 10 0 6 -4 10 -10 10 -5 0
-10 -4 -10 -10z"/>
<path d="M550 80 c0 -5 5 -10 10 -10 6 0 10 5 10 10 0 6 -4 10 -10 10 -5 0
-10 -4 -10 -10z"/>
<path d="M7 663 c-13 -12 -7 -60 8 -73 13 -11 15 -55 15 -281 0 -173 4 -269
10 -269 6 0 10 98 10 274 0 173 4 277 10 281 5 3 10 22 10 41 0 31 -3 34 -28
34 -16 0 -32 -3 -35 -7z m43 -33 c0 -11 -4 -20 -10 -20 -5 0 -10 9 -10 20 0
11 5 20 10 20 6 0 10 -9 10 -20z"/>
<path d="M110 381 c0 -230 -2 -270 -16 -281 -34 -29 0 -102 40 -87 18 7 23 72
6 82 -6 4 -10 108 -10 281 0 176 -4 274 -10 274 -6 0 -10 -96 -10 -269z m20
-320 c0 -27 -17 -35 -23 -11 -5 19 0 30 15 30 4 0 8 -9 8 -19z"/>
</g>
</svg>
