<?xml version="1.0" standalone="no"?>
<!DOCTYPE svg PUBLIC "-//W3C//DTD SVG 20010904//EN"
 "http://www.w3.org/TR/2001/REC-SVG-20010904/DTD/svg10.dtd">
<svg version="1.0" xmlns="http://www.w3.org/2000/svg"
 width="56.000000pt" height="74.000000pt" viewBox="0 0 56.000000 74.000000"
 preserveAspectRatio="xMidYMid meet">

<g transform="translate(0.000000,74.000000) scale(0.100000,-0.100000)"
fill="#000000" stroke="none">
<path d="M53 715 c-15 -14 -34 -29 -41 -35 -16 -14 -15 -35 1 -52 8 -7 26 -56
41 -107 32 -112 87 -222 129 -257 l31 -26 -13 -71 c-15 -91 -39 -141 -69 -145
-12 -2 -20 -8 -17 -13 8 -12 332 -12 340 1 3 6 -3 10 -14 10 -28 0 -58 61 -72
149 -12 70 -12 72 13 99 14 15 34 43 46 63 23 38 92 236 92 263 0 9 7 19 15
22 28 11 17 58 -21 92 l-36 32 -198 0 c-198 0 -199 0 -227 -25z m335 -12 c-60
-2 -156 -2 -215 0 -60 1 -11 3 107 3 118 0 167 -2 108 -3z m142 -48 c0 -13
-34 -15 -250 -15 -216 0 -250 2 -250 15 0 13 34 15 250 15 216 0 250 -2 250
-15z m-400 -80 c0 -19 5 -35 10 -35 6 0 10 16 10 35 0 33 2 35 34 35 39 0 46
-11 46 -76 0 -24 5 -44 10 -44 6 0 10 27 10 60 l0 60 34 0 c30 0 35 -3 38 -27
2 -16 8 -28 13 -28 6 0 11 12 13 28 3 24 8 27 38 27 30 0 34 -3 34 -27 0 -16
-7 -57 -15 -92 -9 -35 -13 -66 -11 -68 18 -19 46 70 46 147 0 38 2 40 30 40
17 0 30 -1 30 -3 0 -19 -47 -164 -70 -213 -27 -61 -81 -142 -67 -101 11 29 -3
40 -21 17 -16 -20 -17 -19 -14 29 5 65 -13 67 -23 4 -15 -107 -28 -118 -40
-33 -9 63 -25 75 -25 18 l-1 -43 -19 37 c-11 20 -24 40 -30 43 -17 11 -11 -26
11 -61 32 -53 -1 -31 -40 25 -32 47 -101 227 -101 264 0 13 8 17 35 17 33 0
35 -2 35 -35z m213 -404 c5 -50 3 -58 -25 -94 l-32 -40 -33 39 c-30 35 -32 43
-27 84 8 66 7 65 62 66 l50 0 5 -55z m32 -123 c7 -26 5 -28 -24 -28 -35 0 -39
11 -13 45 19 26 27 23 37 -17z m-125 -15 c0 -8 -12 -13 -30 -13 -32 0 -36 9
-19 41 10 20 11 20 30 3 10 -9 19 -23 19 -31z"/>
</g>
</svg>
