<?xml version="1.0" standalone="no"?>
<!DOCTYPE svg PUBLIC "-//W3C//DTD SVG 20010904//EN"
 "http://www.w3.org/TR/2001/REC-SVG-20010904/DTD/svg10.dtd">
<svg version="1.0" xmlns="http://www.w3.org/2000/svg"
 width="64.000000pt" height="70.000000pt" viewBox="0 0 64.000000 70.000000"
 preserveAspectRatio="xMidYMid meet">

<g transform="translate(0.000000,70.000000) scale(0.100000,-0.100000)"
fill="#000000" stroke="none">
<path d="M124 663 c-3 -21 -12 -45 -19 -53 -20 -23 -87 -370 -75 -385 7 -9 5
-34 -5 -81 -8 -38 -18 -79 -20 -92 -4 -17 -1 -22 14 -22 10 0 21 -7 25 -15 8
-21 86 -21 86 0 0 13 22 15 135 15 113 0 135 -2 135 -15 0 -11 11 -15 40 -15
29 0 40 4 40 15 0 8 9 15 20 15 24 0 24 7 4 105 -10 47 -12 81 -7 86 6 6 6 31
0 65 -10 54 -10 55 23 89 18 19 42 35 54 37 12 2 22 12 24 23 2 11 13 30 25
42 23 26 15 44 -11 25 -9 -7 -24 -15 -32 -18 -34 -12 -45 -22 -48 -40 -4 -19
-40 -64 -52 -64 -3 0 -14 48 -24 106 -11 58 -25 111 -31 118 -7 6 -16 29 -21
51 l-10 40 -131 3 -132 3 -7 -38z m256 -23 l0 -30 -120 0 c-66 0 -120 3 -120
8 0 4 3 17 6 30 6 21 11 22 120 22 l114 0 0 -30z m-190 -220 l0 -170 -70 0
c-38 0 -70 3 -70 7 0 10 60 306 65 321 2 6 20 12 40 12 l35 0 0 -170z m120
161 c0 -5 -6 -12 -12 -14 -10 -4 -10 -8 1 -15 13 -9 13 -13 1 -27 -12 -14 -12
-18 1 -26 12 -8 12 -10 0 -18 -13 -8 -13 -12 -1 -26 12 -14 12 -18 -1 -27 -11
-7 -11 -11 -1 -15 6 -2 12 -11 12 -18 0 -7 -6 -16 -12 -19 -10 -5 -10 -7 0
-12 6 -3 12 -12 12 -19 0 -7 -6 -16 -12 -19 -10 -5 -10 -7 0 -12 6 -3 12 -12
12 -19 0 -7 -6 -16 -12 -18 -10 -4 -9 -8 2 -16 11 -8 3 -11 -35 -11 -37 0 -46
3 -35 10 13 9 12 12 -4 22 -19 11 -19 11 0 25 19 14 19 14 0 25 -19 11 -19 11
-1 24 18 14 18 14 -1 28 -18 14 -18 15 -1 21 21 9 23 25 2 25 -21 0 -19 16 3
25 16 6 16 7 -2 21 -19 14 -19 14 -1 28 18 13 18 13 -1 24 -19 11 -19 11 1 26
11 9 14 16 8 16 -7 0 -13 5 -13 10 0 6 20 10 45 10 25 0 45 -4 45 -9z m100 7
c0 -2 11 -55 24 -118 l25 -115 -54 -54 c-30 -30 -58 -51 -64 -47 -12 8 -16
317 -4 329 6 6 73 10 73 5z m170 -148 c0 -5 -4 -10 -9 -10 -6 0 -13 5 -16 10
-3 6 1 10 9 10 9 0 16 -4 16 -10z m-108 -160 c4 -29 3 -30 -36 -30 l-40 0 29
30 c16 17 32 30 36 30 4 0 9 -13 11 -30z m-172 -85 c-13 -14 -31 -25 -41 -25
-24 0 -32 -16 -25 -46 10 -38 66 -26 66 15 0 8 14 30 32 48 27 28 39 33 80 33
44 0 48 -2 54 -27 3 -16 12 -51 19 -80 7 -28 10 -54 7 -57 -3 -3 -109 -6 -235
-6 l-229 0 6 22 c3 13 11 51 18 86 l11 62 130 0 130 0 -23 -25z m-25 -55 c3
-5 -1 -10 -9 -10 -9 0 -16 5 -16 10 0 6 4 10 9 10 6 0 13 -4 16 -10z m-178
-116 c-3 -3 -12 -4 -19 -1 -8 3 -5 6 6 6 11 1 17 -2 13 -5z m356 -1 c-7 -2
-19 -2 -25 0 -7 3 -2 5 12 5 14 0 19 -2 13 -5z"/>
</g>
</svg>
