<?xml version="1.0" standalone="no"?>
<!DOCTYPE svg PUBLIC "-//W3C//DTD SVG 20010904//EN"
 "http://www.w3.org/TR/2001/REC-SVG-20010904/DTD/svg10.dtd">
<svg version="1.0" xmlns="http://www.w3.org/2000/svg"
 width="68.000000pt" height="69.000000pt" viewBox="0 0 68.000000 69.000000"
 preserveAspectRatio="xMidYMid meet">

<g transform="translate(0.000000,69.000000) scale(0.100000,-0.100000)"
fill="#000000" stroke="none">
<path d="M324 668 c-3 -4 -70 -8 -149 -8 -117 0 -146 -3 -159 -16 -14 -13 -16
-54 -16 -295 0 -174 4 -288 10 -300 10 -17 23 -19 160 -19 82 0 151 -4 154 -8
7 -12 165 -12 172 0 3 4 40 8 83 8 46 0 82 5 89 12 17 17 17 589 0 606 -7 7
-42 12 -88 12 -42 0 -80 3 -84 7 -11 11 -166 12 -172 1z m26 -314 c0 -165 0
-305 0 -312 0 -7 -4 -10 -10 -7 -6 4 -10 118 -10 309 0 268 3 326 17 312 2 -2
4 -138 3 -302z m50 -8 c0 -193 -4 -307 -10 -311 -7 -4 -10 100 -10 304 0 201
4 311 10 311 6 0 10 -108 10 -304z m48 13 c3 -285 0 -335 -18 -324 -6 4 -10
125 -10 311 0 240 3 305 13 302 9 -4 13 -72 15 -289z m42 -13 c0 -193 -4 -307
-10 -311 -7 -4 -10 100 -10 304 0 201 4 311 10 311 6 0 10 -108 10 -304z
m-320 274 c0 -17 -7 -20 -45 -20 -25 0 -45 -4 -45 -10 0 -5 -11 -10 -25 -10
-20 0 -25 5 -25 23 0 34 6 37 77 37 56 0 63 -2 63 -20z m140 -275 l0 -296 -57
3 -58 3 -3 280 c-1 154 0 285 3 292 3 8 24 13 60 13 l55 0 0 -295z m345 0 l0
-290 -72 -3 -73 -3 0 296 0 296 73 -3 72 -3 0 -290z m-575 205 c0 -5 20 -10
45 -10 33 0 45 -4 45 -15 0 -11 -12 -15 -45 -15 -25 0 -45 -4 -45 -10 0 -5
-11 -10 -25 -10 -22 0 -25 4 -25 35 0 31 3 35 25 35 14 0 25 -4 25 -10z m0
-90 c0 -5 20 -10 45 -10 33 0 45 -4 45 -15 0 -11 -12 -15 -45 -15 -25 0 -45
-4 -45 -10 0 -5 -11 -10 -25 -10 -22 0 -25 4 -25 35 0 31 3 35 25 35 14 0 25
-4 25 -10z m0 -90 c0 -5 20 -10 45 -10 33 0 45 -4 45 -15 0 -11 -12 -15 -45
-15 -25 0 -45 -4 -45 -10 0 -5 -11 -10 -25 -10 -22 0 -25 4 -25 35 0 31 3 35
25 35 14 0 25 -4 25 -10z m0 -90 c0 -5 20 -10 45 -10 33 0 45 -4 45 -15 0 -11
-12 -15 -45 -15 -25 0 -45 -4 -45 -10 0 -5 -11 -10 -25 -10 -22 0 -25 4 -25
35 0 31 3 35 25 35 14 0 25 -4 25 -10z m0 -90 c0 -5 20 -10 45 -10 33 0 45 -4
45 -15 0 -11 -12 -15 -45 -15 -25 0 -45 -4 -45 -10 0 -5 -11 -10 -25 -10 -22
0 -25 4 -25 35 0 31 3 35 25 35 14 0 25 -4 25 -10z m4 -95 c3 -10 19 -15 46
-15 29 0 40 -4 40 -15 0 -12 -14 -15 -70 -15 l-70 0 0 30 c0 25 4 30 24 30 13
0 26 -7 30 -15z"/>
<path d="M246 591 c-37 -37 -37 -39 -34 -110 l3 -72 43 33 42 32 0 73 c0 39
-4 74 -8 77 -5 3 -25 -12 -46 -33z m34 -54 c0 -33 -6 -49 -25 -67 l-25 -23 0
48 c0 31 6 55 17 67 25 28 33 22 33 -25z"/>
<path d="M242 387 c-18 -18 -32 -36 -32 -41 0 -15 72 -96 81 -90 5 3 9 41 9
85 0 91 -8 97 -58 46z m38 -48 c0 -33 -16 -36 -34 -6 -8 13 -7 20 4 27 24 16
30 12 30 -21z"/>
<path d="M210 197 c0 -60 2 -65 38 -100 21 -21 41 -34 45 -31 4 4 7 35 7 70 0
58 -2 64 -35 93 -20 17 -40 31 -45 31 -6 0 -10 -28 -10 -63z m52 6 c17 -15 27
-93 11 -93 -21 0 -43 37 -43 72 0 42 5 46 32 21z"/>
<path d="M530 569 c0 -27 3 -30 28 -27 21 2 28 9 30 31 3 24 0 27 -27 27 -28
0 -31 -3 -31 -31z m40 1 c0 -5 -4 -10 -10 -10 -5 0 -10 5 -10 10 0 6 5 10 10
10 6 0 10 -4 10 -10z"/>
<path d="M589 534 c-17 -21 0 -49 32 -49 27 0 37 28 19 50 -16 19 -34 19 -51
-1z m35 -25 c-3 -5 -10 -7 -15 -3 -5 3 -7 10 -3 15 3 5 10 7 15 3 5 -3 7 -10
3 -15z"/>
<path d="M537 484 c-11 -11 -8 -52 3 -59 6 -3 19 -3 31 0 28 9 23 59 -6 63
-12 2 -24 0 -28 -4z m33 -24 c0 -5 -4 -10 -10 -10 -5 0 -10 5 -10 10 0 6 5 10
10 10 6 0 10 -4 10 -10z"/>
<path d="M584 416 c-11 -28 4 -48 33 -44 22 2 28 8 28 28 0 20 -6 26 -28 28
-18 2 -29 -2 -33 -12z m46 -16 c0 -5 -7 -10 -15 -10 -8 0 -15 5 -15 10 0 6 7
10 15 10 8 0 15 -4 15 -10z"/>
<path d="M534 366 c-11 -29 0 -51 26 -51 21 0 25 5 25 30 0 24 -5 31 -23 33
-13 2 -24 -3 -28 -12z m36 -21 c0 -8 -4 -15 -10 -15 -5 0 -10 7 -10 15 0 8 5
15 10 15 6 0 10 -7 10 -15z"/>
<path d="M585 299 c-10 -30 18 -58 43 -43 9 6 17 22 17 35 0 34 -50 41 -60 8z
m43 -10 c-2 -6 -8 -10 -13 -10 -5 0 -11 4 -13 10 -2 6 4 11 13 11 9 0 15 -5
13 -11z"/>
<path d="M542 261 c-8 -4 -12 -19 -10 -32 2 -18 9 -24 28 -24 28 0 39 27 20
50 -14 17 -20 18 -38 6z m28 -31 c0 -5 -4 -10 -10 -10 -5 0 -10 5 -10 10 0 6
5 10 10 10 6 0 10 -4 10 -10z"/>
<path d="M592 198 c-26 -26 1 -65 38 -53 32 10 20 65 -15 65 -6 0 -16 -5 -23
-12z m32 -29 c-3 -5 -10 -7 -15 -3 -5 3 -7 10 -3 15 3 5 10 7 15 3 5 -3 7 -10
3 -15z"/>
<path d="M537 144 c-13 -13 -7 -52 8 -58 27 -10 46 5 43 33 -3 26 -35 41 -51
25z m33 -24 c0 -5 -4 -10 -10 -10 -5 0 -10 5 -10 10 0 6 5 10 10 10 6 0 10 -4
10 -10z"/>
</g>
</svg>
