<?xml version="1.0" standalone="no"?>
<!DOCTYPE svg PUBLIC "-//W3C//DTD SVG 20010904//EN"
 "http://www.w3.org/TR/2001/REC-SVG-20010904/DTD/svg10.dtd">
<svg version="1.0" xmlns="http://www.w3.org/2000/svg"
 width="75.000000pt" height="76.000000pt" viewBox="0 0 75.000000 76.000000"
 preserveAspectRatio="xMidYMid meet">

<g transform="translate(0.000000,76.000000) scale(0.100000,-0.100000)"
fill="#000000" stroke="none">
<path d="M600 736 c-15 -9 -39 -44 -60 -88 -33 -69 -37 -73 -66 -70 -36 3 -59
-18 -51 -49 4 -15 2 -19 -9 -15 -9 3 -25 1 -36 -5 -15 -8 -19 -18 -15 -37 5
-25 3 -27 -26 -27 -29 0 -32 -3 -32 -32 0 -28 -2 -32 -23 -26 -30 7 -55 -15
-48 -43 5 -18 3 -21 -14 -17 -29 8 -53 -16 -47 -46 5 -24 3 -26 -26 -26 -29 0
-32 -3 -33 -32 0 -41 -29 -73 -65 -73 -32 0 -40 -16 -26 -47 8 -18 6 -27 -7
-42 -33 -36 7 -69 45 -35 14 13 21 13 37 3 17 -10 23 -10 37 1 8 7 14 21 13
31 -2 11 17 38 46 68 42 43 51 48 67 38 17 -10 30 -1 106 75 76 76 85 89 73
103 -12 14 -4 26 61 92 55 55 93 84 147 110 83 40 108 73 98 129 -12 63 -86
93 -146 60z m98 -26 c24 -22 28 -59 12 -91 -6 -10 -41 -35 -78 -53 -45 -23
-92 -59 -141 -110 -61 -61 -79 -74 -97 -70 -20 5 -23 2 -21 -23 2 -25 -1 -28
-26 -26 -26 2 -28 -1 -23 -21 7 -30 -17 -54 -37 -37 -18 14 -30 2 -16 -16 17
-20 -8 -46 -39 -38 -21 5 -23 3 -17 -16 6 -16 -2 -31 -36 -65 -47 -48 -60 -52
-79 -29 -11 13 -9 20 10 40 13 14 32 27 42 31 10 3 25 19 33 35 9 16 20 29 25
29 5 0 78 68 161 152 128 129 156 163 189 229 22 43 48 82 57 88 28 16 57 13
81 -9z m-228 -170 c0 -5 -4 -10 -10 -10 -5 0 -10 5 -10 10 0 6 5 10 10 10 6 0
10 -4 10 -10z m-60 -58 c0 -13 -12 -22 -22 -16 -10 6 -1 24 13 24 5 0 9 -4 9
-8z m-66 -73 c-3 -5 -10 -7 -15 -3 -5 3 -7 10 -3 15 3 5 10 7 15 3 5 -3 7 -10
3 -15z m-64 -59 c0 -5 -4 -10 -10 -10 -5 0 -10 5 -10 10 0 6 5 10 10 10 6 0
10 -4 10 -10z m127 -35 c-4 -8 -14 -15 -23 -15 -16 0 -16 2 1 20 20 22 31 20
22 -5z m-187 -25 c0 -5 -4 -10 -10 -10 -5 0 -10 5 -10 10 0 6 5 10 10 10 6 0
10 -4 10 -10z m140 -19 c0 -13 -29 -35 -37 -28 -7 8 15 37 28 37 5 0 9 -4 9
-9z m-200 -39 c0 -13 -12 -22 -22 -16 -10 6 -1 24 13 24 5 0 9 -4 9 -8z m150
-11 c0 -13 -29 -35 -37 -28 -7 8 15 37 28 37 5 0 9 -4 9 -9z m-225 -133 l40
-42 -42 34 c-35 30 -52 50 -40 50 2 0 21 -19 42 -42z m-35 -43 c-7 -9 -15 -13
-18 -10 -3 2 1 11 8 20 7 9 15 13 18 10 3 -2 -1 -11 -8 -20z"/>
</g>
</svg>
