<?xml version="1.0" encoding="utf-8"?>
<!-- Generator: Adobe Illustrator 26.5.0, SVG Export Plug-In . SVG Version: 6.00 Build 0)  -->
<svg version="1.1" id="Calque_1" xmlns="http://www.w3.org/2000/svg" xmlns:xlink="http://www.w3.org/1999/xlink" x="0px" y="0px"
	 viewBox="0 0 1920 1080" style="enable-background:new 0 0 1920 1080;" xml:space="preserve">
<style type="text/css">
	.st0{fill:#010101;}
	.st1{fill:#020202;}
	.st2{fill:#FEFEFE;}
</style>
<g>
	<path d="M42.4,385.5c5.4-5.5,11.9-6.9,19.4-6.7c18.2,0.4,36.3-0.3,54.5,0.3c7.9,0.2,11-1.6,10.8-10.2c-0.5-13.9-1.1-27.8,0.9-41.7
		c5.2-37,34.6-64.6,71.8-66.1c19.8-0.8,39.7-0.8,59.5-0.1c41.4,1.5,72.8,33.3,74.3,74.7c0.4,11.4,0.5,22.8,0,34.2
		c-0.3,6.8,2,8.5,8.5,8.3c19-0.4,38,0,57-0.2c11-0.2,16.2,4.4,16.2,15.8c-0.2,72.6-0.1,145.2,0,217.9c0,8.7-2.3,15.6-12.3,15.3
		c-9.3-0.3-11.1-7.2-11.1-15.2c0.1-65.9-0.2-131.7,0.3-197.6c0.1-9.5-1.7-13.6-12.2-12.8c-13,1-26.2,0.5-39.3,0.1
		c-6.1-0.2-8.2,2.1-8,8.1c0.3,9.7,0.1,19.4,0.1,29.1c0,8.2-3.3,14.8-12.2,14.4c-8.7-0.4-11.8-6.9-11.6-15.1
		c0.2-9.7-0.2-19.4,0.1-29.1c0.2-5.4-1.6-7.3-7.2-7.3c-49,0.2-98,0.2-147,0c-5.7,0-7.3,2.4-7.2,7.6c0.2,10.1,0.1,20.3,0,30.4
		c0,7.8-3.6,13.6-11.7,13.6c-8,0-11.8-5.6-11.9-13.5c-0.1-9.7-0.5-19.5,0.1-29.1c0.5-7.5-2.4-9.3-9.4-9.1c-13.1,0.5-26.2,0.6-39.3,0
		c-7.9-0.4-10,2.2-9.9,10c0.4,31.6,0.2,63.3,0.2,95c0,49.8-0.1,99.6,0,149.5c0.1,43,26.5,69.4,69.4,69.5c31.3,0.1,62.5,0,93.8,0
		c2.5,0,5.1,0,7.6,0c8.9,0.1,15.3,4.1,15,13.3c-0.2,8.8-6.8,11.7-15,11.6c-30.4-0.1-60.8,0-91.2-0.1c-8,0-16.2,0.5-24-0.6
		c-37.8-5.3-62.9-26.2-75.4-62.4c-0.9-2.6,0.2-6.2-3.4-7.6C42.4,581.5,42.4,483.5,42.4,385.5z"/>
	<path d="M437.9,882.2c-17.5-18.9-31.6-40.4-46.8-61.1c-5.9-8-9.5-8.2-16.4-2.1c-7.3,6.4-15.5,11.7-23.3,17.3
		c-12.9,9.3-19.5,7-22.8-8.3c-11.8-54.7-23.5-109.4-35.2-164.2c-1.2-5.8-2.8-11.5-3.5-17.3c-1.3-10.7,5.5-16,15.6-12.4
		c2,0.7,3.8,1.8,5.6,2.8c52.5,28.5,105,57,157.5,85.6c14.5,7.9,14.6,14.6,1.5,25.3c-10.3,8.4-28.2,14.3-29.2,25.2
		c-0.9,9.8,13.5,21,21.2,31.5c7,9.5,13.9,19.1,21.3,28.3c7.5,9.3,5.5,16.7-3.1,23.8c-10.6,8.7-23,15.1-32.1,25.5
		C444.6,882.2,441.2,882.2,437.9,882.2z"/>
	<path class="st0" d="M1888,329.8c-2.9,4.5-7.1,6.6-12.1,8.3c-27.5,9-55,18.2-82.3,27.8c-7.7,2.7-13.8,2.1-16.7-5.6
		c-3-8,0.9-13.4,9.2-16.2c28.3-9.4,56.5-19,84.7-28.7c7-2.4,12,0.8,17.2,4.3C1888,323,1888,326.4,1888,329.8z"/>
	<path class="st0" d="M1644.6,200.6c2.1,2.5,5.1,4.8,6.2,7.7c9,25.3,17.8,50.6,26.2,76c2.2,6.7,0.1,12.8-7.3,15.2
		c-7.4,2.4-12.2-1.3-14.6-8.1c-8.5-24.5-16.9-49.1-25.3-73.7c-2.4-6.8,0.5-12.1,4.7-17.1C1637.8,200.6,1641.2,200.6,1644.6,200.6z"
		/>
	<path d="M1383.2,558.4c0-37.6,0.2-75.1-0.2-112.7c-0.1-8.6,2.6-13.6,10.8-17.6c67.7-33,135.2-66.4,202.6-100
		c7.6-3.8,13.7-3.6,21.3,0.2c67,33.4,134.2,66.6,201.5,99.4c8.4,4.1,11.9,9.1,11.8,18.4c-0.3,75.1-0.3,150.2,0.1,225.4
		c0.1,10.5-4.3,15.8-13.3,20.2c-67.8,32.9-135.3,66.1-202.8,99.6c-5.7,2.8-10.1,2.5-15.4-0.1c-68.7-33.9-137.4-67.8-206.2-101.4
		c-8.3-4.1-9.8-10.4-9.8-18.6c0.2-37.6,0.1-75.1,0.1-112.7C1383.6,558.4,1383.4,558.4,1383.2,558.4z"/>
	<path d="M768.7,437.1c-2.4-83.2,66.5-152.9,150.7-152.5c83.4,0.4,150.6,70.1,148,153.6c-1.2,39.7-15.5,75.6-33,110.4
		c-28.6,56.8-65.3,108.1-105.1,157.4c-5.7,7-12.2,10.1-19,2.6C850.5,642.3,797.6,571.9,775,483.4
		C771.1,468.2,769.2,452.8,768.7,437.1z"/>
	<path d="M924.4,806.5c-37.6-0.3-68.9-3.5-98.9-15c-13.1-5-25.5-11.5-34.6-22.5c-17.1-20.6-3.3-56.5,23.1-60.8
		c5.4-0.9,9,1.8,11.4,6.1c2.5,4.4,2.5,9-1,12.9c-1.4,1.5-3.4,2.5-5.1,3.7c-18.5,13.7-18,21.2,2.4,32.9c22.9,13.1,48.3,17.4,74,19.2
		c36.4,2.6,72.5,0.5,107.3-12.2c8.7-3.2,17.2-7,24.2-13.3c7.5-6.6,8.2-13.4,0.2-20.1c-3.2-2.7-6.9-5-9.8-8
		c-4.1-4.3-5.9-9.4-2.1-14.9c3.7-5.2,9.4-6.4,14.6-3.7c25,13.2,39.4,42.5,11.4,65.1c-21.8,17.6-48.3,23.2-75,27.4
		C950.7,805.7,934.7,807,924.4,806.5z"/>
	<path d="M1271.8,545.6c-17.1-12.8-32.7-24.5-50.4-37.7c0,13.3-0.2,24,0.1,34.8c0.2,10.1-4.8,14.8-14.6,14.9
		c-21.1,0.1-42.2,0.1-63.4,0c-8.2,0-14.4-3.1-14.2-12.4c0.2-8.7,6.3-11.3,13.8-11.3c14.4-0.1,28.8-0.6,43.1,0.1
		c9.4,0.5,13.7-1.5,12.7-12.1c-1-10.9-0.2-21.9-0.3-32.9c0-5.7,0.4-11.3,6.1-14.2c6.3-3.2,11.2,0.1,16.1,3.8
		c24.5,18.7,49.1,37.2,73.5,56c11.3,8.7,11.4,14.2,0.3,22.6c-23.8,18.2-47.8,36.2-71.6,54.4c-6.8,5.2-14.1,10-20.8,1.4
		c-6.7-8.6-0.6-14.4,6.5-19.7C1229.4,577.9,1249.8,562.2,1271.8,545.6z"/>
	<path d="M664.3,545.6c-17-12.7-32.7-24.4-50.5-37.8c0,13.3-0.1,24.1,0,34.9c0.2,10-4.7,14.9-14.6,14.9c-21.1,0-42.2,0.1-63.4,0
		c-8.2,0-14.4-3.3-14.3-12.4c0.1-8.6,6.4-11.3,13.9-11.3c15.2-0.2,30.4-0.6,45.6,0.1c8.7,0.4,10.9-2.7,10.5-10.9
		c-0.6-12.2-0.5-24.5,0-36.7c0.5-12.8,9.3-16.9,19.7-9.2c25.4,18.9,50.6,38,75.6,57.4c11.8,9.2,11.4,14.1-0.8,23.4
		c-23.2,17.6-46.4,35.2-69.6,52.8c-1,0.8-2,1.6-3,2.3c-6.4,4.6-13.1,7.2-18.8-0.3c-5.7-7.5-1.9-13.2,4.6-18.1
		C620.7,578.7,641.8,562.6,664.3,545.6z"/>
	<path class="st0" d="M1751.5,309.9c-9.7,0-14.9-7-11.3-14.6c13.7-28.8,27.8-57.3,42.1-85.8c3.2-6.4,8.7-7.5,15-4.2
		c6.8,3.5,6.7,9.4,4.1,15.1c-7,14.8-14.5,29.3-21.7,43.9c-6.1,12.4-12.3,24.8-18.3,37.2C1759,306.4,1756,310.2,1751.5,309.9z"/>
	<path class="st1" d="M349.5,544.1c-5.5,15.1-11.7,33.3-18.9,51.1c-2,5-7.6,6-13.1,3.6c-5.6-2.4-8.1-7-6.5-12.1
		c5.5-17.5,11.5-35,18-52.2c2.1-5.6,8.1-5.8,13.2-4.3C347.1,531.6,349.4,535.6,349.5,544.1z"/>
	<path class="st0" d="M212.5,661.8c-6.7,0.5-13.4,1.2-20.2,1.6c-7.6,0.4-14-2.1-14.5-10.5c-0.4-8.1,4.7-11.8,12.9-12
		c15.6-0.6,31.2-1.7,46.8-2.6c7.2-0.4,13.2,1.9,13.9,9.5c0.8,8.1-4.4,12.3-12.3,12.8c-8.9,0.6-17.7,1-26.6,1.5
		C212.6,662,212.6,661.9,212.5,661.8z"/>
	<path class="st1" d="M274.6,596.6c-0.4,4.2-1.8,7.8-6.2,10c-5,2.5-9.6,1.4-12.6-2.4c-10.3-13.3-20.3-26.8-29.7-40.7
		c-3.2-4.7-0.9-9.8,3.5-13.3c4.1-3.2,9.2-3.9,12.7,0c12,13.5,22.3,28.3,31.6,43.8C274.3,594.8,274.4,595.7,274.6,596.6z"/>
	<path class="st2" d="M226.7,378.9c-23.2,0-46.4-0.5-69.5,0.2c-9.2,0.3-11.5-2.8-10.8-11.4c1.1-13.8-1.4-27.8,1.6-41.5
		c5.5-24.3,23.6-41.1,48.4-42.6c20.2-1.2,40.5-1.3,60.6-0.1c29.5,1.7,50.2,24.1,51.1,53.9c0.3,10.1-0.5,20.3,0.3,30.3
		c0.6,8.6-1.7,11.7-10.9,11.4C273.9,378.5,250.3,378.9,226.7,378.9z"/>
	<path class="st2" d="M446.1,737.2c-8.3,6.3-15.5,11.9-22.8,17.4c-17,12.9-17.2,14.3-4.8,30.9c12.4,16.5,24.2,33.4,37.3,49.4
		c6.5,7.9,1.2,10-3.6,14.3c-5.7,5-8.8,4.9-13.4-1.7c-11.3-16.3-23.5-31.8-35.3-47.7c-13.5-18.2-15.4-18.4-34.2-4.8
		c-6.8,4.9-13.6,9.8-21.9,15.8c-10.7-48.4-21.1-95.7-32.1-145.3C359.7,689.9,402.2,713.2,446.1,737.2z"/>
	<path class="st2" d="M1809.4,460.1c0,68.4,0,135,0,201.7c0,4.7,0,8.4-5.6,11.1c-60.8,29.6-121.5,59.6-182.2,89.5
		c-3.8-3-2.1-6.6-2.1-9.6c-0.3-63.3-0.5-126.5-0.7-189.8c0-6-0.2-10.9,6.9-14.3c59-28.6,117.8-57.7,176.7-86.7
		C1804,461.3,1805.7,461.1,1809.4,460.1z"/>
	<path class="st2" d="M1407.1,459.6c26.5,13,52.4,25.8,78.4,38.5c5.1,2.5,3.8,6.9,3.8,10.9c0.1,29.1,0.2,58.2-0.1,87.4
		c-0.1,8.4,1,16.1,11.2,16.2c10.1,0.1,11.5-7.7,11.4-16.1c-0.2-28.2-0.1-56.4-0.1-86.7c27.9,13.8,54.1,26.9,80.5,39.7
		c3.3,1.6,4.1,3.7,4.1,6.9c0,67.9,0,135.7,0,203.5c-4.2,1.5-6.8-1.4-9.6-2.7c-57.5-28-114.9-56.3-172.4-84.3
		c-5.6-2.7-8.1-5.5-8.1-12.1c0.3-65.4,0.2-130.9,0.2-196.3C1406.4,463.4,1406.8,462.2,1407.1,459.6z"/>
	<path class="st2" d="M1420.4,440.4c60.8-30,119.6-59.1,178.5-88.2c4.1-2.1,7.8-4.4,12.9-1.9c25.6,12.8,51.2,25.2,78.6,38.6
		c-43.6,21.5-85.7,42.3-127.7,63c-17.3,8.6-34.7,17.1-52,25.8c-3.9,1.9-7.2,3.5-11.6,1.3C1473.5,466.4,1447.8,453.9,1420.4,440.4z"
		/>
	<path class="st2" d="M1529.5,494c61.5-30.5,121.3-60,181-89.7c4.9-2.4,8.6-1,13,1.2c22.5,11.4,45.1,22.6,67.8,33.9
		c-0.4,3.9-3.7,4.1-6,5.2c-56.9,28.2-113.8,56.5-170.7,84.6c-3.1,1.5-6.1,4.6-10.5,2.3C1579.7,519.1,1555.4,506.9,1529.5,494z"/>
	<path class="st2" d="M918.1,683.6C863,617.6,811,550.8,794,464.5c-18.8-95.7,58.1-164.7,136.1-156.6
		c83.1,8.5,132.8,85.2,109.7,167.8c-16.1,57.7-47.9,107.4-81.7,155.9C945.9,649.2,933.2,666.5,918.1,683.6z"/>
	<path d="M830.2,433.5c0.4-47.2,32.7-83.1,80.9-89.8c9.2-1.3,19.3-2,20.7,10.2c1.4,11.7-8.4,12.6-17.2,13.5
		c-33.8,3.5-59.1,28.9-61.6,61.5c-2.6,33.7,18.4,62.9,51.4,71.7c27.6,7.4,57.7-4.7,73.5-29.6c15.9-25,13.7-56.7-5.5-80
		c-5.9-7.2-17.2-14.8-4.8-23.7c11.1-8,17.3,3.8,22.9,11.1c25,32.1,26.3,75.7,3.6,108.4c-22.7,32.8-62.7,45.7-101.9,33
		C854.9,507.7,829.9,472.9,830.2,433.5z"/>
</g>
</svg>
