<?xml version="1.0" standalone="no"?>
<!DOCTYPE svg PUBLIC "-//W3C//DTD SVG 20010904//EN"
 "http://www.w3.org/TR/2001/REC-SVG-20010904/DTD/svg10.dtd">
<svg version="1.0" xmlns="http://www.w3.org/2000/svg"
 width="728.000000pt" height="269.000000pt" viewBox="0 0 728.000000 269.000000"
 preserveAspectRatio="xMidYMid meet">

<g transform="translate(0.000000,269.000000) scale(0.100000,-0.100000)"
fill="#ffffff" stroke="none">
<path d="M6272 2678 c-7 -7 -12 -21 -12 -31 0 -23 99 -317 113 -335 14 -18 57
-11 71 10 8 14 -1 52 -44 179 -30 89 -61 168 -68 175 -17 17 -44 18 -60 2z"/>
<path d="M6866 2658 c-8 -13 -51 -98 -96 -190 -71 -144 -80 -169 -70 -188 8
-15 19 -20 38 -18 24 3 36 21 109 163 106 207 107 211 83 235 -26 26 -46 25
-64 -2z"/>
<path d="M537 2436 c-135 -49 -197 -150 -205 -333 l-5 -113 -142 0 c-121 0
-146 -3 -164 -17 l-22 -18 3 -585 3 -585 26 -56 c37 -79 90 -133 167 -171 l66
-33 268 -3 267 -3 16 25 c20 30 7 63 -28 71 -12 3 -132 6 -267 7 -212 3 -250
5 -281 21 -47 24 -95 71 -122 121 -22 41 -22 46 -22 586 l0 545 113 3 112 3 0
-90 c0 -84 2 -92 24 -106 51 -34 76 6 76 121 l0 74 315 0 315 0 0 -90 c0 -83
2 -91 24 -105 51 -34 76 6 76 121 l0 74 115 0 115 0 0 -433 c0 -456 0 -457 45
-457 45 0 45 -1 45 492 0 452 -1 468 -19 478 -11 5 -82 10 -159 10 l-140 0 -4
118 c-6 174 -49 251 -170 312 -61 30 -61 30 -232 30 -118 -1 -183 -5 -209 -14z
m392 -96 c48 -24 95 -79 110 -129 6 -21 11 -79 11 -130 l0 -91 -320 0 -320 0
0 93 c0 112 12 157 52 203 58 66 83 73 266 74 143 0 168 -2 201 -20z"/>
<path d="M3353 2350 c-310 -56 -517 -340 -482 -662 27 -244 181 -558 414 -843
120 -146 151 -177 177 -173 16 2 56 46 133 149 202 269 343 514 406 707 40
124 51 281 25 381 -51 199 -204 362 -395 421 -75 24 -205 33 -278 20z m216
-95 c222 -53 390 -262 391 -487 0 -158 -100 -403 -272 -666 -97 -148 -221
-312 -233 -309 -17 6 -131 146 -209 257 -196 280 -289 509 -289 715 0 151 51
264 164 369 124 115 286 159 448 121z"/>
<path d="M3370 2114 c-154 -41 -259 -180 -260 -341 0 -157 87 -283 235 -339
77 -29 194 -26 266 8 75 34 134 95 172 176 56 120 40 260 -41 367 -39 51 -71
66 -98 45 -22 -19 -17 -46 16 -83 118 -135 82 -339 -75 -419 -57 -29 -153 -35
-212 -13 -179 68 -233 304 -100 437 44 44 113 78 158 78 65 0 100 47 63 84
-19 19 -52 19 -124 0z"/>
<path d="M7042 2180 c-96 -33 -180 -64 -188 -71 -19 -15 -18 -53 2 -70 13 -11
38 -5 162 35 237 78 251 84 258 112 8 30 -11 54 -40 53 -11 0 -99 -27 -194
-59z"/>
<path d="M5723 1985 l-433 -213 0 -490 c0 -453 1 -490 18 -505 18 -16 849
-427 864 -427 5 0 129 59 276 131 147 72 340 167 430 210 129 63 165 84 172
105 16 40 13 946 -2 967 -15 19 -855 437 -878 436 -8 0 -210 -96 -447 -214z
m774 -41 c-1 -1 -166 -82 -367 -181 l-365 -179 -165 79 -165 80 370 182 369
183 163 -81 c89 -45 161 -82 160 -83z m263 -129 l145 -73 -367 -182 -366 -181
-154 77 -153 77 360 178 c198 97 367 177 375 178 8 0 80 -33 160 -74z m-1050
-522 c0 -202 1 -213 20 -223 23 -12 54 0 64 26 3 8 6 96 6 195 l0 179 165 -82
165 -83 0 -412 c0 -227 -2 -413 -5 -413 -3 0 -171 81 -373 180 l-367 179 -3
416 -2 415 165 -82 165 -83 0 -212z m1259 -40 l0 -418 -327 -160 c-180 -88
-348 -170 -374 -182 l-48 -23 0 416 0 415 373 184 c204 102 373 185 375 185 1
0 2 -188 1 -417z"/>
<path d="M2177 1603 c-4 -3 -7 -55 -7 -115 l0 -108 -112 0 c-122 0 -161 -11
-166 -47 -7 -45 18 -53 174 -53 81 0 154 5 165 10 16 9 19 22 19 95 0 47 3 85
7 85 6 0 193 -138 193 -143 0 -1 -61 -47 -135 -102 -146 -108 -166 -134 -126
-167 29 -23 29 -23 211 115 170 128 184 142 170 167 -6 11 -84 75 -175 144
-153 117 -197 141 -218 119z"/>
<path d="M4572 1598 c-8 -8 -12 -48 -12 -115 l0 -103 -109 0 c-134 0 -161 -8
-161 -49 0 -20 7 -34 19 -41 11 -5 84 -10 165 -10 178 0 176 -1 176 111 0 43
2 79 5 79 10 0 185 -135 185 -142 0 -4 -60 -53 -134 -108 -74 -56 -137 -108
-140 -116 -12 -31 29 -73 57 -58 6 4 87 63 179 133 129 96 168 131 168 148 0
17 -40 53 -172 153 -95 71 -182 130 -193 130 -12 0 -26 -5 -33 -12z"/>
<path d="M1132 1373 c-20 -37 -72 -196 -72 -218 0 -34 34 -51 63 -32 30 20 96
220 81 245 -16 24 -60 28 -72 5z"/>
<path d="M736 1304 c-9 -8 -16 -22 -16 -29 0 -23 122 -184 144 -191 14 -5 25
0 38 16 21 26 18 33 -55 135 -66 92 -80 101 -111 69z"/>
<path d="M981 962 c-6 -12 14 -124 70 -387 43 -204 83 -380 88 -392 16 -35 46
-28 126 32 41 30 78 55 82 55 5 -1 51 -59 103 -130 57 -79 104 -132 117 -136
37 -10 193 113 193 152 0 6 -45 71 -100 144 -55 73 -100 134 -100 135 0 1 36
28 80 60 129 95 144 79 -262 299 -188 102 -352 186 -364 186 -13 0 -28 -8 -33
-18z m457 -305 l153 -84 -68 -54 c-37 -30 -69 -63 -71 -72 -2 -11 38 -73 98
-153 l101 -135 -28 -22 c-15 -12 -31 -22 -34 -22 -4 0 -51 58 -106 130 -75 99
-104 131 -123 133 -17 1 -46 -14 -90 -47 -36 -27 -66 -49 -67 -48 -2 3 -123
551 -123 560 0 9 86 -36 358 -186z"/>
<path d="M590 953 c-32 -4 -60 -25 -60 -45 0 -4 9 -17 19 -27 16 -16 30 -18
107 -14 49 2 104 6 121 9 39 6 59 35 43 64 -10 18 -20 20 -103 18 -51 0 -108
-3 -127 -5z"/>
<path d="M3015 671 c-88 -54 -118 -136 -76 -205 67 -108 300 -174 576 -163
293 12 485 102 485 227 0 41 -21 80 -65 119 -37 32 -72 40 -93 19 -21 -21 -13
-46 28 -84 22 -21 40 -44 40 -52 0 -47 -137 -109 -290 -133 -96 -15 -325 -6
-405 15 -89 24 -184 74 -198 103 -10 23 -7 28 36 69 26 24 47 47 47 52 0 14
-31 52 -43 52 -7 0 -25 -8 -42 -19z"/>
</g>
</svg>
