<?xml version="1.0" encoding="utf-8"?>
<!-- Generator: Adobe Illustrator 26.3.1, SVG Export Plug-In . SVG Version: 6.00 Build 0)  -->
<svg version="1.1" id="Calque_1" xmlns="http://www.w3.org/2000/svg" xmlns:xlink="http://www.w3.org/1999/xlink" x="0px" y="0px"
	 viewBox="0 0 1920 1080" style="enable-background:new 0 0 1920 1080;" xml:space="preserve">
<style type="text/css">
	.st0{fill:#FFFFFF;}
</style>
<g>
	<path d="M1148.16,576.38c-2.79,6.52-7.84,8.82-14.79,8.96c-11.84,0.25-23.66,1.09-35.48,1.82c-10.71,0.66-15.24-3.53-15.77-14.22
		c-1.77-35.85-3.69-71.7-5.54-107.55c-1.21-23.54-2.44-47.07-3.56-70.61c-0.35-7.38,4.29-12.38,11.58-12.78
		c13.41-0.74,26.82-1.51,40.24-2.1c9.02-0.39,13.5,3.63,13.98,12.54c1.71,31.95,3.33,63.9,4.97,95.85
		c1.27,24.88,2.52,49.76,3.8,74.63c0.06,1.07,0.38,2.12,0.57,3.18C1148.16,569.53,1148.16,572.96,1148.16,576.38z"/>
	<path d="M796.27,563.39c-2.8-2.87-5.26-5.41-7.73-7.94c-5.52-5.65-5.63-12.08-0.13-17.8c9.24-9.59,18.54-19.12,27.86-28.63
		c6.18-6.31,12.51-6.39,18.87-0.23c19.98,19.4,39.92,38.84,59.88,58.27c22.5,21.89,44.99,43.79,67.49,65.68
		c7.4,7.2,7.49,12.98,0.29,20.41c-8.76,9.03-17.53,18.05-26.31,27.06c-6.53,6.7-12.72,6.83-19.38,0.32
		c-1.74-1.7-3.22-3.68-5.01-5.76c-1.41,1.35-2.29,2.13-3.11,2.97c-5.97,6.12-11.88,12.3-17.92,18.35c-4.59,4.6-9.98,4.72-14.55,0.29
		c-33.46-32.52-66.9-65.06-100.32-97.62c-4.58-4.46-4.6-9.8-0.09-14.53C782.75,577.25,789.5,570.38,796.27,563.39z M802.04,609.41
		c4.41-4.42,9.01-9.05,13.73-13.79c-1.23-1.32-2.7-2.9-4.32-4.65c6.79-6.7,13.45-13.27,19.98-19.72c-4.33-4.27-8.3-8.19-11.93-11.77
		c-11.19,11.17-22.56,22.52-33.73,33.67C791.14,598.52,796.72,604.09,802.04,609.41z M879.02,686.73
		c11.44-11.39,22.81-22.72,33.73-33.6c-3.45-3.53-7.16-7.32-11.49-11.76c-6.45,6.51-13.03,13.15-20.31,20.49
		c-1.32-1.83-2.73-3.79-3.75-5.21c-5.03,5.03-9.66,9.66-14.09,14.09C868.34,676,873.84,681.53,879.02,686.73z M830.7,611.35
		c7.35-7.31,13.99-13.9,20.41-20.29c-2.3-2.31-4.41-4.43-6.78-6.8c-6.53,6.59-13.12,13.24-19.75,19.93
		c-1.96-1.87-3.71-3.52-5.14-4.88c-4.83,4.75-9.47,9.32-13.84,13.63c5.44,5.43,11.01,11,16.25,16.23
		c4.41-4.37,9.04-8.97,13.89-13.78C834.38,614.3,832.77,613.01,830.7,611.35z M864.04,603.74c-6.58,6.79-13.1,13.51-20.39,21.03
		c-1.57-2.18-2.98-4.15-3.99-5.56c-5,5-9.63,9.63-13.65,13.64c5.21,5.18,10.7,10.65,15.88,15.81c4.22-4.17,8.81-8.71,13.53-13.37
		c-1.52-1.6-3.18-3.35-4.98-5.25c6.74-6.72,13.39-13.33,20.23-20.14C868.52,607.9,866.66,606.17,864.04,603.74z M859.21,637.99
		c-5.28,5.29-9.96,9.98-14.24,14.27c4.89,4.89,10.12,10.13,14.99,14.99c4.4-4.39,9.02-8.99,13.75-13.7
		c-1.4-1.48-3.04-3.22-5.02-5.31c6.76-6.72,13.4-13.31,19.9-19.77c-1.65-1.81-3.18-3.5-4.95-5.46
		c-6.71,6.75-13.31,13.38-20.27,20.39C861.81,641.38,860.41,639.55,859.21,637.99z"/>
	<path d="M913.31,435.55c4.27,0.21,6.84,2.67,8.86,6.17c11.36,19.66,22.79,39.28,34.19,58.92c17.6,30.3,35.25,60.56,52.72,90.93
		c1.37,2.38,2.2,5.47,2.11,8.2c-0.12,3.82-2.67,6.46-6.49,7.48c-3.78,1-7.01-0.05-9.55-3.01c-0.87-1.01-1.56-2.18-2.24-3.34
		c-28.95-49.82-57.87-99.66-86.86-149.46c-2.03-3.49-3.06-6.89-1.25-10.71C906.5,437.15,909.39,435.49,913.31,435.55z"/>
	<path d="M1039.14,581.57c0.06,5.13-2.78,9.11-6.53,10.1c-4.49,1.18-8.7-0.58-10.89-4.62c-0.52-0.96-0.91-1.99-1.28-3.03
		c-19.34-54.49-38.68-108.98-58-163.48c-2.1-5.93-0.48-10.99,4.13-13.22c5.23-2.54,10.94-0.01,13.13,6.05
		c4.86,13.42,9.62,26.88,14.39,40.33c14.55,41.04,29.1,82.09,43.63,123.14C1038.35,578.67,1038.83,580.55,1039.14,581.57z"/>
	<path d="M1067.61,574.43c0.1,5.45-3.29,9.65-7.93,10.21c-5.2,0.62-9.61-2.47-10.49-7.97c-1.65-10.37-2.98-20.79-4.42-31.19
		c-4.06-29.39-8.1-58.78-12.15-88.17c-2.52-18.26-5.09-36.52-7.54-54.79c-0.85-6.3,2.33-11.04,7.62-11.81
		c5.67-0.82,9.79,2.62,10.92,9.18c0.41,2.41,0.73,4.83,1.07,7.25c5.34,38.7,10.67,77.4,16,116.1c2.23,16.21,4.47,32.41,6.7,48.62
		C1067.52,572.82,1067.56,573.8,1067.61,574.43z"/>
	<path d="M862.53,474.33c3.62-0.02,6.12,1.88,8.35,4.54c18.05,21.38,36.15,42.72,54.23,64.07c18.71,22.1,37.43,44.2,56.12,66.32
		c4.84,5.73,3.64,12.79-2.56,15.59c-4.14,1.87-8.07,0.8-11.68-3.42c-8.57-10.03-17.08-20.12-25.6-30.2
		c-28.11-33.2-56.24-66.38-84.25-99.66c-1.78-2.11-3.31-4.97-3.66-7.65C852.78,478.43,857,474.35,862.53,474.33z"/>
	<path class="st0" d="M802.04,609.41c-5.32-5.31-10.9-10.88-16.27-16.24c11.17-11.15,22.54-22.51,33.73-33.67
		c3.62,3.58,7.6,7.5,11.93,11.77c-6.53,6.44-13.19,13.01-19.98,19.72c1.63,1.75,3.1,3.33,4.32,4.65
		C811.06,600.35,806.45,604.98,802.04,609.41z"/>
	<path class="st0" d="M879.02,686.73c-5.18-5.2-10.68-10.73-15.92-15.98c4.43-4.43,9.06-9.06,14.09-14.09
		c1.02,1.42,2.43,3.38,3.75,5.21c7.28-7.35,13.86-13.99,20.31-20.49c4.34,4.44,8.05,8.23,11.49,11.76
		C901.83,664,890.46,675.33,879.02,686.73z"/>
	<path class="st0" d="M830.7,611.35c2.07,1.66,3.68,2.95,5.05,4.05c-4.86,4.82-9.48,9.41-13.89,13.78
		c-5.24-5.23-10.82-10.8-16.25-16.23c4.37-4.31,9.02-8.88,13.84-13.63c1.43,1.36,3.17,3.01,5.14,4.88
		c6.63-6.69,13.22-13.34,19.75-19.93c2.36,2.37,4.47,4.49,6.78,6.8C844.7,597.45,838.06,604.04,830.7,611.35z"/>
	<path class="st0" d="M864.04,603.74c2.61,2.43,4.47,4.16,6.63,6.17c-6.84,6.81-13.48,13.43-20.23,20.14
		c1.81,1.9,3.46,3.64,4.98,5.25c-4.71,4.66-9.3,9.19-13.53,13.37c-5.18-5.16-10.68-10.63-15.88-15.81
		c4.02-4.02,8.64-8.64,13.65-13.64c1.01,1.41,2.42,3.38,3.99,5.56C850.94,617.25,857.46,610.52,864.04,603.74z"/>
	<path class="st0" d="M859.21,637.99c1.2,1.56,2.6,3.39,4.15,5.4c6.96-7,13.56-13.64,20.27-20.39c1.78,1.96,3.31,3.64,4.95,5.46
		c-6.5,6.46-13.14,13.05-19.9,19.77c1.98,2.09,3.62,3.83,5.02,5.31c-4.73,4.71-9.35,9.32-13.75,13.7
		c-4.86-4.86-10.1-10.1-14.99-14.99C849.25,647.96,853.93,643.27,859.21,637.99z"/>
</g>
</svg>
