<?xml version="1.0" encoding="utf-8"?>
<!-- Generator: Adobe Illustrator 26.3.1, SVG Export Plug-In . SVG Version: 6.00 Build 0)  -->
<svg version="1.1" id="Calque_1" xmlns="http://www.w3.org/2000/svg" xmlns:xlink="http://www.w3.org/1999/xlink" x="0px" y="0px"
	 viewBox="0 0 1920 1080" style="enable-background:new 0 0 1920 1080;" xml:space="preserve">
<style type="text/css">
	.st0{fill:#010101;}
	.st1{fill:#020202;}
	.st2{fill:#E0E0E0;}
</style>
<g>
	<path d="M1042.48,491.06c-2.33,2.67-4.23,4.94-6.23,7.12c-29.95,32.69-60.08,65.21-89.72,98.18c-5.69,6.33-9.03,6.92-14.86,0.41
		c-8.96-10-18.67-19.37-28.49-28.56c-5.24-4.91-6.87-7.94-0.34-13.81c33.7-30.31,66.88-61.2,100.27-91.85
		c3.15-2.89,5.85-6.82,10.75-1.5c8.1,8.78,16.83,16.96,25.23,25.46C1040.37,487.78,1041.28,489.43,1042.48,491.06z"/>
	<path class="st0" d="M784.07,625.08c0.8-8.97,3.7-15.18,10.46-18.7c7.28-3.78,15.04-3.61,20.9,2.14
		c25.62,25.14,51.17,50.37,76.05,76.24c7.56,7.86,6.34,17.86-1.55,25.46c-7.91,7.61-17.74,8.14-25.55,0.56
		c-25.42-24.64-50.31-49.83-75.09-75.11C786.38,632.7,785.38,627.84,784.07,625.08z"/>
	<path class="st0" d="M905.62,672.66c-26.09-25.99-52.1-51.91-78.05-77.77c0.96-0.52,2.58-1.58,4.32-2.34
		c16.79-7.33,35.81-23.27,49.82-19.68c16.7,4.28,29.01,25.42,43.44,39.03c4.2,3.96,5.16,7.26,2.43,12.84
		C919.72,640.76,912.65,657.18,905.62,672.66z"/>
	<path class="st0" d="M1118.74,364.4c9.69-0.44,19,14.11,14.2,22.29c-4.52,7.7-9.52,15.19-14.98,22.25
		c-19.55,25.28-27.91,24.96-47.35-0.99c-2.04-2.72-3.21-4.17-0.19-7.15c13.52-13.33,28.19-25.12,44.55-34.76
		C1116.22,365.29,1117.67,364.86,1118.74,364.4z"/>
	<path class="st1" d="M1051.71,479.98c-6.43-7.48-11.41-15.36-18.3-20.82c-11.89-9.42-11.51-15.6,0.37-25.51
		c21.79-18.16,20.7-18.54,41.87,1.38c7.97,7.5,9.35,12.3,0.65,19.73c-6.4,5.46-11.55,12.38-17.33,18.58
		C1057.38,475.03,1055.55,476.48,1051.71,479.98z"/>
	<path class="st2" d="M984.05,524.17c-4.48-0.65-7.66-3.18-7.93-7.44c-0.32-5.07,2.94-8.43,7.98-8.58c4.42-0.13,7.49,3.03,7.8,7.25
		C992.28,520.54,988.86,523.28,984.05,524.17z"/>
	<path class="st2" d="M968.12,539.77c-0.27,4.36-2.85,7.53-6.97,8.12c-5.09,0.74-8.69-2.52-8.99-7.44c-0.3-5.03,3.16-8.38,8.21-8.33
		C964.72,532.17,967.22,535.35,968.12,539.77z"/>
	<path class="st2" d="M944.17,564.6c-1.42,4.77-4.26,8.16-9.43,7.21c-4.13-0.76-7.19-3.94-6.54-8.42c0.71-4.85,4.09-8.07,9.24-7.18
		C941.62,556.95,943.98,560.19,944.17,564.6z"/>
</g>
</svg>
