<?xml version="1.0" encoding="utf-8"?>
<!-- Generator: Adobe Illustrator 26.3.1, SVG Export Plug-In . SVG Version: 6.00 Build 0)  -->
<svg version="1.1" id="Calque_1" xmlns="http://www.w3.org/2000/svg" xmlns:xlink="http://www.w3.org/1999/xlink" x="0px" y="0px"
	 viewBox="0 0 1920 1080" style="enable-background:new 0 0 1920 1080;" xml:space="preserve">
<style type="text/css">
	.st0{fill:#161616;}
	.st1{fill:#232323;}
	.st2{fill:#A4A4A4;}
	.st3{fill:#939393;}
	.st4{fill:#7D7D7D;}
	.st5{fill:#676767;}
	.st6{fill:#515151;}
	.st7{fill:#6C6C6C;}
	.st8{fill:#848484;}
	.st9{fill:#FEFEFE;}
</style>
<g>
	<path d="M1080.89,606.91c0,0.47,0,0.94,0,1.41c-0.54,1.82-0.1,3.68-0.24,5.52c0.12,1.29-0.27,2.61,0.24,3.87c0,0.47,0,0.94,0,1.41
		c-0.32,0.3-0.22,0.7-0.24,1.06c0,0.29,0,0.57,0,0.86c0.06,0.46-0.16,0.97,0.24,1.36c0,0.63,0,1.25,0,1.88
		c-0.65,5.81-0.77,11.65-1.57,17.46c-1.23,8.89-7.57,14.73-16.57,14.73c-69.9,0.02-139.8,0-209.7,0.03c-4.48,0-8.01-1.62-10.89-5.01
		c-1.42-1.66-1.58-3.68-2.11-5.61c0-57.12,0-114.24,0-171.36c0.87-9.13,4.09-17.43,9.1-25.05c7.71-11.72,18.39-19.3,32.09-22.46
		c13.21-3.05,26.45-2.92,39.54,0.63c13.48,3.65,23.55,12.04,31.31,23.39c5.6,8.18,9.85,17.07,13.6,26.21
		c3.47,8.47,6.68,17.06,10.76,25.26c5.13,10.31,10.78,20.31,18.59,28.94c5.41,5.98,12.17,9.43,19.85,11.44
		c6.92,1.81,13.94,2.92,21.08,3.37c9.23,0.58,18.01,2.64,25.45,8.5c5.76,4.54,10.11,10.24,12.98,16.99
		c3.89,9.16,6.14,18.7,6.26,28.69c0,0.31,0.01,0.62,0.24,0.87c0,0.63,0,1.25,0,1.88c-0.32,0.29-0.22,0.68-0.24,1.04
		c0,0.28,0,0.56,0,0.84c0,0.28,0,0.56,0,0.84C1080.67,606.23,1080.57,606.61,1080.89,606.91z"/>
	<path class="st0" d="M1080.44,613.96c0.2-1.88-0.51-3.83,0.45-5.64c0,1.88,0,3.76,0,5.63
		C1080.74,614.16,1080.59,614.16,1080.44,613.96z"/>
	<path class="st1" d="M1080.44,613.96c0.15-0.01,0.3-0.01,0.45-0.01c0,1.25,0,2.5,0,3.76
		C1079.93,616.55,1080.63,615.2,1080.44,613.96z"/>
	<path class="st2" d="M1080.89,622.4c-0.82-0.27-0.36-0.9-0.39-1.39c0.12-0.24,0.25-0.23,0.39-0.02
		C1080.89,621.46,1080.89,621.93,1080.89,622.4z"/>
	<path class="st3" d="M1080.5,604.07c-0.06-0.39-0.19-0.81,0.39-0.92c0,0.31,0,0.63,0,0.94
		C1080.75,604.31,1080.62,604.29,1080.5,604.07z"/>
	<path class="st4" d="M1080.5,604.07c0.13,0,0.26,0,0.39,0.01c0,0.31,0,0.63,0,0.94c-0.14,0.22-0.27,0.2-0.39-0.02
		C1080.5,604.7,1080.5,604.39,1080.5,604.07z"/>
	<path class="st5" d="M1080.5,605.01c0.13,0,0.26,0.01,0.39,0.02c0,0.31,0,0.63,0,0.94c-0.14,0.21-0.28,0.22-0.4-0.02
		C1080.49,605.63,1080.5,605.32,1080.5,605.01z"/>
	<path class="st6" d="M1080.49,605.95c0.13,0.01,0.26,0.01,0.4,0.02c0,0.31,0,0.63,0,0.94
		C1080.44,606.72,1080.42,606.35,1080.49,605.95z"/>
	<path class="st7" d="M1080.49,620.07c-0.07-0.4-0.1-0.79,0.4-0.96c0,0.31,0,0.63,0,0.94
		C1080.76,620.26,1080.63,620.26,1080.49,620.07z"/>
	<path class="st8" d="M1080.49,620.07c0.13-0.01,0.27-0.01,0.4-0.02c0,0.31,0,0.63,0,0.94c-0.13,0.01-0.26,0.02-0.39,0.02
		C1080.5,620.7,1080.49,620.38,1080.49,620.07z"/>
	<path class="st9" d="M957.24,643.92c-34.81,0-69.61-0.02-104.42,0.05c-2.2,0-2.68-0.61-2.66-2.71c0.09-14,0.09-28.01,0-42.01
		c-0.01-1.91,0.56-2.33,2.33-2.24c2.74,0.14,5.49,0.14,8.23,0c1.62-0.08,1.9,0.51,1.89,1.98c-0.06,10.09,0.02,20.19-0.08,30.28
		c-0.02,1.82,0.5,2.22,2.21,2.13c2.89-0.15,5.81-0.16,8.7,0c1.89,0.11,2.49-0.33,2.46-2.36c-0.12-9.93-0.02-19.87-0.09-29.81
		c-0.01-1.66,0.24-2.39,2.12-2.23c2.26,0.19,4.55,0.15,6.81,0.01c1.61-0.1,2.1,0.32,2.08,2.01c-0.09,10.01,0,20.03-0.09,30.04
		c-0.02,1.81,0.39,2.44,2.3,2.33c2.97-0.17,5.96-0.19,8.93,0c1.99,0.13,2.26-0.65,2.24-2.37c-0.07-9.94,0-19.87-0.07-29.81
		c-0.01-1.64,0.21-2.39,2.11-2.22c2.33,0.2,4.7,0.14,7.05,0.01c1.46-0.08,1.82,0.35,1.81,1.81c-0.07,10.09,0.01,20.19-0.08,30.28
		c-0.02,1.79,0.37,2.41,2.27,2.3c3.05-0.18,6.12-0.14,9.17-0.01c1.58,0.07,1.92-0.45,1.91-1.94c-0.07-10.09,0.02-20.19-0.08-30.28
		c-0.02-1.79,0.46-2.28,2.21-2.16c2.34,0.16,4.71,0.14,7.05,0c1.48-0.08,1.81,0.4,1.8,1.82c-0.06,10.09,0.02,20.19-0.08,30.28
		c-0.02,1.87,0.5,2.38,2.33,2.29c3.05-0.15,6.12-0.13,9.17-0.01c1.55,0.06,1.95-0.4,1.94-1.94c-0.07-10.09,0.01-20.19-0.08-30.28
		c-0.02-1.74,0.38-2.3,2.17-2.17c2.26,0.17,4.55,0.17,6.81,0c1.74-0.13,2,0.53,1.99,2.09c-0.07,10.01,0.02,20.03-0.09,30.04
		c-0.02,1.9,0.55,2.33,2.33,2.25c3.05-0.14,6.12-0.14,9.17,0c1.63,0.08,1.89-0.52,1.88-1.98c-0.06-9.94,0.05-19.87-0.09-29.81
		c-0.03-2.25,0.68-2.76,2.73-2.6c2.18,0.17,4.39,0.14,6.58,0c1.52-0.09,1.8,0.47,1.79,1.86c-0.06,10.09,0.03,20.19-0.08,30.28
		c-0.02,1.93,0.59,2.32,2.35,2.24c2.89-0.14,5.81-0.19,8.7,0.02c2.08,0.15,2.37-0.62,2.35-2.47c-0.09-9.94,0.01-19.87-0.1-29.81
		c-0.02-1.83,0.52-2.23,2.21-2.12c2.18,0.15,4.4,0.16,6.58,0c1.72-0.12,2.22,0.33,2.2,2.13c-0.1,10.01-0.01,20.03-0.09,30.04
		c-0.01,1.71,0.33,2.32,2.15,2.21c2.97-0.17,5.96-0.15,8.93-0.01c1.78,0.09,2.35-0.35,2.33-2.25c-0.11-9.94-0.01-19.87-0.09-29.81
		c-0.02-1.79,0.36-2.49,2.28-2.33c2.18,0.18,4.39,0.16,6.58,0c1.73-0.12,2.24,0.34,2.22,2.15c-0.1,10.01,0,20.03-0.09,30.04
		c-0.01,1.71,0.33,2.3,2.15,2.2c3.13-0.17,6.27-0.13,9.4-0.01c1.46,0.06,1.82-0.35,1.81-1.8c-0.07-10.17,0-20.34-0.08-30.51
		c-0.01-1.61,0.34-2.11,2.03-2.07c5.09,0.12,10.19,0.08,15.29,0.02c1.17-0.01,1.61,0.22,1.6,1.52c-0.05,14.55-0.08,29.11,0.02,43.66
		c0.01,2.13-1.2,1.71-2.39,1.71C1027.17,643.92,992.2,643.92,957.24,643.92z"/>
</g>
</svg>
