<?xml version="1.0" encoding="utf-8"?>
<!-- Generator: Adobe Illustrator 26.3.1, SVG Export Plug-In . SVG Version: 6.00 Build 0)  -->
<svg version="1.1" id="Calque_1" xmlns="http://www.w3.org/2000/svg" xmlns:xlink="http://www.w3.org/1999/xlink" x="0px" y="0px"
	 viewBox="0 0 1920 1080" style="enable-background:new 0 0 1920 1080;" xml:space="preserve">
<style type="text/css">
	.st0{fill:#424242;}
	.st1{fill:#FEFEFE;}
</style>
<g>
	<path d="M871.42,743.86c-15.87-1.47-29.62-7.83-41.54-18.25c-3.4-2.97-6.4-6.4-9.8-9.37c-2.06-1.81-1.5-2.65,0.38-4.09
		c16.79-12.82,33.51-25.75,50.26-38.62c7.79-5.99,8.11-10.31,1.21-17.21c-9.41-9.4-18.81-18.81-28.23-28.2
		c-6.37-6.35-10.99-6.06-16.43,1c-12.97,16.85-25.97,33.67-38.85,50.59c-1.74,2.29-2.6,2.18-4.64,0.26
		c-12.47-11.7-22.3-25.05-25.86-42.08c-5.36-25.65-0.23-48.61,19.16-67.18c6.25-5.99,14.32-9.58,21.85-13.75
		c6.74-3.73,12.35-8.63,17.64-14.1c6.28-6.5,12.74-12.84,19.16-19.2c6.62-6.56,14.1-5.96,18.89,2.05
		c7.99,13.35,24.05,16.15,35.16,8.88c3.16-2.07,4.91-4.67,5.34-8.36c1.17-10.16,2.3-20.33,3.63-30.47
		c3.98-30.22,30.49-55.37,60.81-58.68c18.22-1.99,29.88,2.71,49.44,14.89c-0.22,1.16-1.22,1.69-1.98,2.39
		c-23.93,22.3-47.87,44.6-71.82,66.88c-7.55,7.02-7.72,12.76-0.48,20.01c8.36,8.38,16.71,16.76,25.12,25.1
		c6.34,6.3,12.5,6.14,18.61-0.42c22.39-24.03,44.8-48.05,67.1-72.16c2.12-2.29,3.06-2.71,4.82,0.35c4.45,7.72,8.8,15.51,11.45,24
		c3.35,10.69,2.24,21.52-0.35,32.25c-6.34,26.21-30.25,47.75-57.02,51.28c-8.43,1.11-16.87,2.15-25.32,3.07
		c-11.49,1.26-17.32,7.39-17.3,18.81c0.01,8.49,3.38,15.45,10.39,20.46c11.56,8.25,11.96,13.21,1.84,23.34
		c-1.13,1.13-2.21,2.31-3.39,3.38c-14.47,13.11-26.48,27.97-35.94,45.25c-9.52,17.39-26.29,24.67-45.13,27.82
		c-0.95,0.16-2.17-0.52-2.84,0.75c-3.46,0-6.92,0-10.38,0C874.84,743.54,873.01,744.59,871.42,743.86z"/>
	<path d="M1164.53,354.22c-2.4,6.13-7.45,10.1-11.87,14.58c-4.67,4.73-9.42,9.38-14.08,14.13c-1.27,1.3-1.89,1.89-3.59,0.07
		c-5.71-6.11-11.72-11.96-17.75-17.76c-1.25-1.2-1.51-1.74-0.2-3.03c7.49-7.36,14.71-15.01,22.39-22.18
		c8.33-7.77,20.55-4.38,24.37,6.43c0.17,0.48,0.48,0.92,0.72,1.37C1164.53,349.96,1164.53,352.09,1164.53,354.22z"/>
	<path class="st0" d="M871.42,743.86c1.73-0.3,3.45-0.54,4.98,0.66c-1.6,0-3.19,0-4.79,0C871.51,744.31,871.45,744.09,871.42,743.86
		z"/>
	<path d="M969.5,559.29c-1.34,0.07-1.72-0.76-2.26-1.29c-8.29-8.26-16.49-16.62-24.89-24.77c-2.39-2.31-0.35-3.09,0.88-4.23
		c32.01-29.83,64.04-59.65,96.06-89.47c22.68-21.12,45.38-42.22,67.97-63.43c2.27-2.14,3.52-2.15,5.59,0.14
		c3.56,3.94,7.35,7.71,11.28,11.29c2.23,2.03,2.37,3.26,0.19,5.59c-22.31,23.76-44.48,47.64-66.69,71.48
		c-28.65,30.76-57.29,61.51-85.94,92.27C970.89,557.72,970.11,558.61,969.5,559.29z"/>
	<path d="M855.64,662.95c-0.44,1.81-1.4,2.15-2.1,2.69c-15.12,11.67-30.28,23.3-45.37,35.02c-1.61,1.25-2.48,1.12-3.93-0.27
		c-6.15-5.92-6.2-5.86-1.07-12.53c10.19-13.25,20.51-26.4,30.48-39.81c2.48-3.34,3.73-3.05,6.26-0.25
		c4.36,4.82,9.12,9.28,13.75,13.84C854.32,662.28,855.21,662.67,855.64,662.95z"/>
	<path d="M782.63,702.06c4.72,4.8,9.25,9.46,13.84,14.05c1.14,1.14,1.88,1.9,0.25,3.37c-2.95,2.66-5.58,5.67-8.52,8.35
		c-4.68,4.27-11.05,4.17-15.38-0.06c-4.34-4.24-4.64-10.71-0.43-15.36C775.59,708.87,779.08,705.62,782.63,702.06z"/>
	<path class="st1" d="M913.42,640.82c0.3-7.96,2.62-15.2,7.21-21.62c4.59-6.42,6.42-13.28,4.33-21.02
		c-1.09-4.02-0.04-7.45,3.44-9.78c4.82-3.23,10.99-0.52,12.64,5.62c3.09,11.51,1.44,22.45-5.21,32.31
		c-4.21,6.24-6.21,12.63-5.18,20.19c0.73,5.4-2.25,9.12-6.93,9.87c-4.44,0.71-8.34-2.35-9.42-7.68
		C913.78,646.12,913.7,643.45,913.42,640.82z"/>
	<path class="st1" d="M854.61,569.68c6.94,1.71,13.47-1.18,19.93-5.43c9.67-6.36,20.36-7.91,31.59-4.96
		c5.45,1.43,8.08,5.46,6.94,10.29c-1.06,4.47-5.29,7.11-10.57,5.83c-8.1-1.96-15.08-0.11-21.75,4.61
		c-7.76,5.49-16.55,7.5-26.01,6.53c-1.18-0.12-2.37-0.3-3.52-0.59c-5.07-1.29-7.71-4.86-7.04-9.45
		C844.85,571.92,848.31,569.41,854.61,569.68z"/>
</g>
</svg>
