<?xml version="1.0" encoding="utf-8"?>
<!-- Generator: Adobe Illustrator 26.3.1, SVG Export Plug-In . SVG Version: 6.00 Build 0)  -->
<svg version="1.1" id="Calque_1" xmlns="http://www.w3.org/2000/svg" xmlns:xlink="http://www.w3.org/1999/xlink" x="0px" y="0px"
	 viewBox="0 0 1920 1080" style="enable-background:new 0 0 1920 1080;" xml:space="preserve">
<style type="text/css">
	.st0{fill:#4E4E4E;}
	.st1{fill:#353535;}
	.st2{fill:#333333;}
	.st3{fill:#797979;}
	.st4{fill:#444444;}
	.st5{fill:#636363;}
	.st6{fill:#898989;}
	.st7{fill:#FEFEFE;}
</style>
<g>
	<path d="M781.07,515.89c1.83-4.51,1.73-9.4,2.62-14.09c5.75-30.22,19.74-56.09,41.41-77.69c20.97-20.9,46.08-34.68,75.25-40.28
		c39.2-7.54,75.98-0.86,109.68,20.68c29.29,18.72,49.39,44.87,60.71,77.73c2.68,7.77,4.59,15.75,5.86,24.13
		c-15.37-2.64-29.15,2.41-42.75,8.19c-11.68,4.96-16.04,14.71-17.02,26.56c-0.82,9.94,2.52,19.26,4.45,28.77
		c1.75,8.63,3.78,17.21,5.79,25.79c0.5,2.15,0.22,3-2.3,3.23c-32.04,2.86-55.32,33.87-49.34,65.57c1.18,6.25,1.21,6.37-4.92,8.02
		c-41.12,11.1-80.32,6.6-116.92-15.5c-37.08-22.39-60.05-55.16-69.44-97.42c-1.08-4.86-1.55-9.85-2.32-14.78
		c-0.1-0.62,0.22-1.45-0.74-1.71c0-0.93,0-1.86,0-2.79c0.48-0.45,0.32-1.05,0.36-1.6c0-0.43,0-0.86,0-1.3c0-0.44,0-0.87,0-1.31
		c-0.09-0.7,0.24-1.47-0.36-2.08c0-3.02,0-6.04,0-9.07c0.61-0.63,0.26-1.42,0.36-2.13c0-0.6,0-1.19,0-1.79
		c-0.04-0.57,0.15-1.19-0.36-1.66C781.07,518.22,781.07,517.05,781.07,515.89z"/>
	<path class="st0" d="M781.67,520.73c0,0.7-0.01,1.39-0.01,2.09c-0.17,0.36-0.37,0.36-0.59,0.05c0-0.7,0-1.39,0-2.09
		C781.25,520.48,781.45,520.45,781.67,520.73z"/>
	<path class="st1" d="M781.07,522.86c0.2-0.01,0.4-0.03,0.59-0.05c0.11,0.8,0.27,1.61-0.59,2.14
		C781.07,524.26,781.07,523.56,781.07,522.86z"/>
	<path class="st2" d="M781.07,534.02c0.86,0.52,0.68,1.33,0.62,2.12c-0.22,0.28-0.43,0.29-0.62-0.03
		C781.07,535.42,781.07,534.72,781.07,534.02z"/>
	<path class="st3" d="M781.67,520.73c-0.2,0.03-0.4,0.04-0.61,0.05c0-0.46,0-0.93,0-1.39C781.89,519.55,781.73,520.16,781.67,520.73
		z"/>
	<path class="st4" d="M781.07,536.12c0.21,0,0.42,0.01,0.62,0.03c-0.02,0.47-0.03,0.95-0.04,1.42c-0.22,0.26-0.41,0.24-0.58-0.05
		C781.07,537.05,781.07,536.58,781.07,536.12z"/>
	<path class="st5" d="M781.07,537.51c0.19,0.02,0.38,0.04,0.58,0.05c0,0.46,0.01,0.92,0.01,1.39c-0.22,0.26-0.41,0.27-0.59-0.04
		C781.07,538.44,781.07,537.98,781.07,537.51z"/>
	<path class="st6" d="M781.07,538.91c0.2,0.01,0.39,0.02,0.59,0.04c0.08,0.57,0.28,1.2-0.59,1.36
		C781.07,539.84,781.07,539.37,781.07,538.91z"/>
	<path d="M1138.23,601.39c-2.2,3.68-5.48,5.53-8.52,7.54c-8.82,5.83-18.24,10.11-29.07,10.4c-9,0.23-15.87-3.43-20.76-11.01
		c-6.36-9.85-10.14-20.77-13.65-31.84c-0.56-1.76-1.16-3.56-2.1-5.12c-1.49-2.46-3.74-2.34-5.12,0.17
		c-1.17,2.13-1.19,4.41-0.67,6.77c4.89,21.84,9.58,43.72,14.67,65.51c5.35,22.89-7.48,46.08-29.5,52.61
		c-22.74,6.74-45.95-4.94-54.04-27.19c-9.96-27.39,9.68-56.63,39.1-58.18c1.39-0.07,2.79-0.09,4.18-0.16
		c6.09-0.28,9.25-3.91,8.02-9.88c-2.61-12.72-5.54-25.37-8.27-38.07c-1.46-6.79-3.53-13.48-3.25-20.57
		c0.33-8.45,3.71-14.51,12.08-17.62c7.63-2.84,15.27-5.58,23.37-6.49c11.91-1.34,20.19,4.49,26.24,14.17
		c5.72,9.16,8.64,19.45,11.59,29.69c3.33,11.54,8.25,22.13,16.84,30.77C1125.21,598.77,1130.35,601.22,1138.23,601.39z"/>
	<path class="st7" d="M997.83,529.43c0.2,37.1-30.32,67.82-67.64,68.08c-37.41,0.26-68.04-30.07-68.3-67.64
		c-0.26-37.35,30.15-68.04,67.69-68.31C966.78,461.29,997.63,491.97,997.83,529.43z"/>
	<path d="M872.69,529.51c0.1-31.5,25.82-57.09,57.25-56.98c31.55,0.11,57.06,25.78,56.91,57.25c-0.15,31.4-25.62,56.78-57.01,56.82
		C898.43,586.65,872.59,560.84,872.69,529.51z"/>
	<path class="st7" d="M929.67,486.29c23.79-0.16,43.14,19.01,43.37,42.97c0.22,23.91-19.16,43.54-43.11,43.66
		c-23.65,0.12-43.23-19.28-43.47-43.07C886.22,506.04,905.64,486.46,929.67,486.29z"/>
	<path d="M929.73,541.04c-6.4-0.03-11.43-5.14-11.4-11.56c0.03-6.37,5.22-11.51,11.56-11.47c6.25,0.04,11.56,5.41,11.5,11.63
		C941.32,535.96,936.1,541.07,929.73,541.04z"/>
</g>
</svg>
