<?xml version="1.0" encoding="utf-8"?>
<!-- Generator: Adobe Illustrator 26.3.1, SVG Export Plug-In . SVG Version: 6.00 Build 0)  -->
<svg version="1.1" id="Calque_1" xmlns="http://www.w3.org/2000/svg" xmlns:xlink="http://www.w3.org/1999/xlink" x="0px" y="0px"
	 viewBox="0 0 1920 1080" style="enable-background:new 0 0 1920 1080;" xml:space="preserve">
<style type="text/css">
	.st0{fill:#656565;}
	.st1{fill:#808080;}
	.st2{fill:#565656;}
	.st3{fill:#727272;}
	.st4{fill:#8D8D8D;}
	.st5{fill:#AAAAAA;}
	.st6{fill:#FEFEFE;}
</style>
<g>
	<path d="M938.67,423.04c2.07,0.96,4.36,0.86,6.54,1.22c21.24,3.51,38.61,13.71,52.46,30.09c2.06,2.43,2.02,5.45-0.06,7.36
		c-2.12,1.95-5.27,1.67-7.44-0.89c-6.11-7.21-13.12-13.36-21.4-17.96c-14.99-8.31-30.99-11.37-47.99-9.06
		c-13.42,1.82-25.4,7.04-36.1,15.28c-1.02,0.79-2.06,1.58-3.37,1.84c-2.2,0.43-4.33-0.62-5.34-2.59c-1.07-2.08-0.62-4.56,1.39-6.15
		c2.45-1.93,4.98-3.77,7.59-5.46c9.1-5.88,18.99-9.82,29.59-12.02c3-0.62,6.14-0.47,9.03-1.66c0.76,0,1.53,0,2.29,0
		c0.28,0.31,0.66,0.22,1.01,0.24c0.43-0.05,0.91,0.13,1.28-0.24c1.98,0,3.97,0,5.95,0c0.28,0.31,0.66,0.21,1.02,0.24
		c0.27,0,0.55,0,0.82,0c0.27,0,0.54,0,0.82,0c0.35-0.02,0.73,0.07,1.01-0.24C938.06,423.04,938.36,423.04,938.67,423.04z"/>
	<path class="st0" d="M928.15,423.04c-0.33,0.62-0.88,0.44-1.39,0.39c-0.14-0.09-0.18-0.18-0.13-0.27c0.05-0.08,0.1-0.12,0.15-0.12
		C927.23,423.04,927.69,423.04,928.15,423.04z"/>
	<path class="st1" d="M926.77,423.04c0,0.13,0,0.26-0.02,0.39c-0.38,0.05-0.78,0.16-0.9-0.39
		C926.16,423.04,926.47,423.04,926.77,423.04z"/>
	<path class="st2" d="M935.03,423.43c-0.4,0.08-0.75,0.05-0.94-0.38c0.31,0,0.61,0,0.92,0c0.14,0.08,0.19,0.16,0.15,0.25
		C935.12,423.38,935.08,423.43,935.03,423.43z"/>
	<path class="st3" d="M935.03,423.43c-0.01-0.13-0.02-0.26-0.02-0.38c0.3,0,0.61,0,0.92,0c0.14,0.08,0.19,0.16,0.15,0.25
		c-0.04,0.09-0.09,0.13-0.13,0.13C935.64,423.43,935.33,423.43,935.03,423.43z"/>
	<path class="st4" d="M935.94,423.43c-0.01-0.13-0.02-0.25-0.02-0.38c0.31,0,0.61,0,0.92,0c0.14,0.08,0.19,0.16,0.15,0.25
		c-0.04,0.09-0.09,0.13-0.14,0.13C936.55,423.43,936.25,423.43,935.94,423.43z"/>
	<path class="st5" d="M936.85,423.43c-0.01-0.13-0.02-0.26-0.02-0.38c0.31,0,0.61,0,0.92,0
		C937.65,423.64,937.23,423.49,936.85,423.43z"/>
	<path d="M873.06,519.28c-0.09-25.75,18.03-48.72,43.3-54.89c32.69-7.98,65.4,14.28,69.78,47.57c1.58,12.04-0.48,23.51-6.22,34.25
		c-0.72,1.35-0.85,2.24,0.23,3.55c9.52,11.61,18.94,23.3,28.39,34.96c0.57,0.7,1.06,1.41,2.06,1.68
		c8.91,2.41,16.06,7.52,21.92,14.51c4.21,5.02,8.32,10.11,11.54,15.86c4.91,8.79,4.2,17.04-2.33,24.71
		c-5.05,5.93-11.02,10.74-18.16,13.91c-6.69,2.97-13.41,2.78-19.22-1.8c-10.54-8.3-19.19-18.23-23.92-31.07
		c-1.13-3.08-1.71-6.32-1.89-9.6c-0.06-1.04-0.36-1.85-1.02-2.67c-9.57-11.77-19.12-23.54-28.62-35.36
		c-0.92-1.14-1.67-1.31-3.05-0.92c-28.49,8.09-57.12-5.73-68.65-33.09C874.56,534.63,873.09,526.93,873.06,519.28z"/>
	<path d="M980.79,473.9c-1.95,0.13-3.25-1.01-4.42-2.38c-4.53-5.33-9.69-9.93-15.84-13.28c-19.09-10.36-38.3-10.5-57.57-0.44
		c-3.18,1.66-5.96,3.94-8.94,5.91c-1.74,1.15-3.59,1.2-5.36,0.05c-1.76-1.15-2.44-2.84-2.18-4.92c0.18-1.46,1.03-2.52,2.14-3.38
		c13.78-10.67,29.32-15.78,46.79-14.73c17.02,1.02,31.63,7.56,43.9,19.35c1.86,1.79,3.58,3.75,5.23,5.74
		c1.32,1.58,1.64,3.47,0.67,5.34C984.31,472.87,982.87,473.94,980.79,473.9z"/>
	<path class="st6" d="M948.39,496.77c-0.86,3.31-1.93,7.42-3.01,11.53c-0.46,1.76-0.86,3.55-1.46,5.27
		c-0.44,1.26-0.08,1.87,1.01,2.56c4.51,2.83,8.96,5.74,13.39,8.7c1.29,0.86,3.16,1.74,2.65,3.58c-0.5,1.81-2.51,1.67-4.09,1.76
		c-5.25,0.31-10.49,0.66-15.74,0.82c-1.52,0.05-2.08,0.62-2.43,1.97c-1.32,5.15-2.7,10.28-4.12,15.41c-0.4,1.45-0.74,3.36-2.47,3.48
		c-1.9,0.13-2.44-1.83-3.01-3.28c-1.91-4.79-3.81-9.6-5.52-14.47c-0.63-1.81-1.52-2.15-3.32-2c-5.08,0.41-10.19,0.58-15.29,0.8
		c-0.98,0.04-2-0.01-2.93-0.27c-1.36-0.39-1.76-1.34-1.03-2.65c0.57-1.02,1.44-1.77,2.33-2.49c4.08-3.31,8.14-6.65,12.26-9.9
		c0.93-0.73,1.11-1.33,0.66-2.45c-1.98-4.93-3.88-9.89-5.72-14.88c-0.56-1.52-1.64-3.42-0.06-4.65c1.55-1.2,3.18,0.23,4.55,1.11
		c4.43,2.81,8.83,5.67,13.19,8.59c1.08,0.72,1.76,0.66,2.75-0.18c3.85-3.23,7.78-6.36,11.69-9.51c0.77-0.62,1.56-1.24,2.42-1.7
		C947.3,492.75,948.46,493.47,948.39,496.77z"/>
	<path class="st6" d="M1001.25,624.68c0.1-7.67,6.14-13.67,13.68-13.57c7.58,0.1,13.55,6.25,13.42,13.83
		c-0.12,7.38-6.19,13.39-13.45,13.33C1007.21,638.2,1001.16,632.17,1001.25,624.68z"/>
</g>
</svg>
