<?xml version="1.0" encoding="utf-8"?>
<!-- Generator: Adobe Illustrator 26.3.1, SVG Export Plug-In . SVG Version: 6.00 Build 0)  -->
<svg version="1.1" id="Calque_1" xmlns="http://www.w3.org/2000/svg" xmlns:xlink="http://www.w3.org/1999/xlink" x="0px" y="0px"
	 viewBox="0 0 1920 1080" style="enable-background:new 0 0 1920 1080;" xml:space="preserve">
<style type="text/css">
	.st0{fill:#010101;}
</style>
<g>
	<path d="M960.07,497.99c30.89,0.34,61.58,2.4,91.6,10.44c8.56,2.29,16.95,5.06,24.73,9.37c2.17,1.2,4.26,2.64,6.11,4.28
		c4.61,4.07,4.6,7.88-0.08,11.94c-6.55,5.68-14.57,8.58-22.63,11.15c-20.54,6.57-41.74,9.62-63.17,11.35
		c-20.94,1.69-41.91,1.98-62.88,0.71c-26.45-1.6-52.65-4.78-77.85-13.59c-5.88-2.06-11.63-4.49-16.68-8.26
		c-6.83-5.09-6.86-9.78,0.1-14.81c8.53-6.16,18.45-9.23,28.43-11.97c18.22-5,36.85-7.64,55.66-9.12
		C935.6,498.53,947.82,497.97,960.07,497.99z"/>
	<path d="M960,683.94c-17.25,0.01-34.44-1.03-51.58-2.92c-1.97-0.22-2.46-0.84-2.44-2.69c0.08-7.74,0.1-15.49-0.01-23.23
		c-0.03-1.81,0.72-2.52,2.2-3.29c6.42-3.37,9.62-8.84,9.81-16.03c0.11-3.87,0.1-7.75,0-11.61c-0.19-7.2-3.37-12.69-9.81-16.02
		c-1.7-0.88-2.29-1.81-2.21-3.67c0.16-3.49,0.26-7.01-0.02-10.48c-0.24-2.95,0.98-3.17,3.41-2.88c15.63,1.9,31.34,2.72,47.08,2.85
		c18.25,0.15,36.45-0.68,54.58-2.86c2.64-0.32,3.25,0.52,2.99,2.88c-0.15,1.36-0.1,2.75-0.01,4.12c0.34,5.11,0.48,9.74-5.53,12.45
		c-3.36,1.51-5.17,5.36-5.83,9.2c-1.14,6.68-1.13,13.43-0.06,20.09c0.86,5.37,4.13,9.36,8.94,11.76c2.04,1.02,2.54,2.17,2.51,4.26
		c-0.11,7.49-0.09,14.99-0.01,22.48c0.02,1.85-0.46,2.48-2.44,2.69C994.43,682.91,977.25,683.96,960,683.94z"/>
	<path d="M1085.96,570.28c0,5.99-0.07,11.23,0.04,16.48c0.04,1.74-0.57,2.58-2.11,3.37c-6.61,3.38-9.79,8.97-9.91,16.33
		c-0.06,3.75-0.08,7.5,0.01,11.24c0.16,7.21,3.35,12.69,9.78,16.04c1.68,0.87,2.31,1.78,2.25,3.67c-0.15,4.37-0.36,8.77,0.03,13.11
		c0.47,5.19-1.91,8.52-5.88,11.25c-6.76,4.65-14.36,7.42-22.08,9.89c-9.52,3.04-19.3,5.01-29.1,6.88c-1.93,0.37-3.17,0.49-3.08-2.32
		c0.23-6.99,0.12-13.99,0.04-20.99c-0.02-1.68,0.45-2.57,2.06-3.39c6.61-3.36,9.81-8.97,9.96-16.32c0.08-3.87,0.11-7.75-0.02-11.62
		c-0.24-7.05-3.4-12.47-9.69-15.71c-1.91-0.98-2.37-2.07-2.3-4c0.12-3.87,0.22-7.76-0.03-11.61c-0.17-2.68,0.66-3.54,3.37-3.97
		c15.17-2.41,30.1-5.77,44.32-11.79C1077.71,575.09,1081.65,573.03,1085.96,570.28z"/>
	<path d="M834.04,570.42c17.86,10.73,37.19,14.9,56.75,18.2c2.8,0.47,3.55,1.48,3.27,4.06c-0.2,1.85-0.13,3.75-0.02,5.62
		c0.3,4.98,0.4,9.27-5.37,12.19c-4.7,2.38-6.46,7.74-6.6,13.14c-0.11,4.12-0.13,8.25-0.01,12.37c0.21,7.06,3.42,12.41,9.68,15.73
		c1.62,0.86,2.37,1.67,2.33,3.61c-0.13,6.99-0.1,13.99-0.02,20.99c0.02,1.79-0.15,2.74-2.37,2.32c-15.09-2.83-30.07-5.99-44.1-12.52
		c-2.14-1-4.2-2.18-6.25-3.35c-5.18-2.98-8.29-7.05-7.33-13.45c0.28-1.83,0.1-3.74,0.03-5.62c-0.18-4.91-0.58-9.3,5.32-12.21
		c4.71-2.32,6.47-7.73,6.64-13.12c0.13-4.24,0.17-8.5,0-12.74c-0.29-6.89-3.47-12.19-9.61-15.38c-1.85-0.96-2.44-1.96-2.38-3.95
		C834.14,581.19,834.04,576.08,834.04,570.42z"/>
	<path d="M1121.93,380.02c-0.15,4.29-2.06,9.07-6.25,12.69c-27.49,23.75-54.98,47.49-82.56,71.13c-7.09,6.08-16.62,2.83-18.03-5.92
		c-0.63-3.93,1.21-6.95,3.66-9.78c14.53-16.81,29.03-33.64,43.54-50.47c8.89-10.3,17.74-20.64,26.66-30.91
		c5.46-6.28,13.49-8.25,21.04-5.32C1117.28,364.26,1121.93,371.04,1121.93,380.02z"/>
	<path d="M798.14,379.7c-0.03-8.54,4.85-15.54,12.26-18.29c7.33-2.73,15.33-0.82,20.43,5.09c23.58,27.29,47.02,54.7,70.72,81.88
		c6.94,7.96,2.3,17.3-5.31,18.57c-3.93,0.66-7-0.98-9.85-3.45c-12.93-11.18-25.89-22.34-38.83-33.5
		c-14.17-12.23-28.33-24.48-42.54-36.66C800.57,389.51,798.42,384.71,798.14,379.7z"/>
	<path d="M834.39,546.71c22.45,12.97,47.25,17.12,72.27,20.19c26.71,3.29,53.55,3.94,80.41,2.3c27.58-1.69,54.91-4.87,81.15-14.23
		c5.99-2.13,11.69-4.88,17.11-8.26c1.56,5.59,0.58,8.69-4.07,12.27c-6.52,5.02-14.15,7.79-21.87,10.27
		c-17.53,5.64-35.61,8.58-53.88,10.44c-24.03,2.46-48.11,2.97-72.22,1.5c-26.33-1.61-52.41-4.82-77.5-13.58
		c-5.17-1.81-10.18-4.04-14.84-6.99C835.92,557.44,832.61,553.44,834.39,546.71z"/>
	<path d="M834.38,672.57c18.38,11.04,38.83,15.38,59.52,18.58c28.34,4.37,56.89,5.59,85.54,4.37c23.11-0.98,46.05-3.27,68.6-8.61
		c13.1-3.1,25.89-7.1,37.54-14.39c1.45,5.97-0.63,10.1-5.38,13.25c-10.26,6.8-21.85,10.25-33.61,13.05
		c-34.26,8.16-69.1,9.95-104.16,8.75c-21.99-0.75-43.81-3.02-65.31-7.88c-10.83-2.45-21.49-5.45-31.47-10.47
		c-2-1-3.94-2.16-5.77-3.45C834.36,681.88,833.5,679.79,834.38,672.57z"/>
	<path class="st0" d="M940.38,452.26c-1.5,1.29-2.99,2.44-4.32,3.74c-4.34,4.27-4.32,4.29-8.51,0.1c-3.97-3.97-7.87-8-11.93-11.87
		c-1.47-1.4-1.86-2.36-0.08-3.78c2.4-1.92,4.14-5.97,6.77-5.86c2.24,0.1,4.36,3.67,6.48,5.76c3.2,3.15,6.36,6.33,9.52,9.52
		C938.91,450.49,939.43,451.17,940.38,452.26z"/>
	<path class="st0" d="M988.28,460.11c-0.51-0.43-0.96-0.8-1.4-1.17c-7.78-6.54-7.77-6.54-0.55-13.76c3.26-3.26,6.57-6.48,9.75-9.82
		c1.24-1.3,1.97-1.2,3.28,0.01c7.17,6.63,7.21,6.59,0.23,13.57c-3.17,3.17-6.34,6.35-9.52,9.52
		C989.54,458.98,988.98,459.46,988.28,460.11z"/>
	<path d="M954,437.67c0-0.87,0-1.75,0-2.62c0-9.91,0-9.87,10.12-9.05c1.43,0.12,1.92,0.45,1.91,1.92c-0.07,6.74-0.06,13.49,0,20.23
		c0.01,1.45-0.43,2.09-1.9,1.89c-0.12-0.02-0.25-0.01-0.37,0c-9.75,0.48-9.75,0.48-9.75-9.37C954,439.67,954,438.67,954,437.67z"/>
	<path class="st0" d="M822.07,611.91c0-2.11-0.13-4.24,0.03-6.34c0.26-3.27,2.79-5.55,5.9-5.57c3.1-0.02,5.8,2.25,5.95,5.5
		c0.21,4.34,0.22,8.71-0.01,13.05c-0.17,3.22-2.97,5.48-6.06,5.39c-3.11-0.08-5.55-2.39-5.79-5.69
		C821.95,616.14,822.07,614.02,822.07,611.91z"/>
	<path class="st0" d="M1097.91,612.05c0.01,2.11,0.15,4.24-0.03,6.34c-0.27,3.25-2.84,5.55-5.93,5.55c-3.09,0-5.78-2.29-5.92-5.54
		c-0.2-4.34-0.26-8.72,0.03-13.05c0.22-3.24,2.41-5.11,5.69-5.34c3.08-0.21,5.8,2.12,6.11,5.32
		C1098.08,607.56,1097.91,609.81,1097.91,612.05z"/>
	<path class="st0" d="M894.05,629.9c0-2.11-0.13-4.24,0.03-6.34c0.26-3.29,2.77-5.55,5.9-5.57c3.1-0.02,5.8,2.25,5.95,5.5
		c0.21,4.34,0.22,8.71-0.01,13.05c-0.17,3.22-2.97,5.48-6.05,5.39c-3.11-0.08-5.55-2.39-5.79-5.69
		C893.92,634.14,894.05,632.01,894.05,629.9z"/>
	<path class="st0" d="M1025.94,630.04c0,2.11,0.15,4.24-0.03,6.34c-0.27,3.25-2.84,5.55-5.93,5.55c-3.09,0-5.77-2.29-5.92-5.54
		c-0.19-4.34-0.27-8.72,0.03-13.05c0.22-3.24,2.41-5.11,5.69-5.34c3.08-0.21,5.8,2.12,6.11,5.33
		C1026.11,625.55,1025.93,627.81,1025.94,630.04z"/>
</g>
</svg>
