<?xml version="1.0" encoding="utf-8"?>
<!-- Generator: Adobe Illustrator 26.3.1, SVG Export Plug-In . SVG Version: 6.00 Build 0)  -->
<svg version="1.1" id="Calque_1" xmlns="http://www.w3.org/2000/svg" xmlns:xlink="http://www.w3.org/1999/xlink" x="0px" y="0px"
	 viewBox="0 0 1920 1080" style="enable-background:new 0 0 1920 1080;" xml:space="preserve">
<style type="text/css">
	.st0{fill:#FEFEFE;}
</style>
<g>
	<path d="M814.98,720.34c-10.77-10.88-21.54-21.76-32.29-32.66c-0.88-0.89-2.05-1.58-2.49-3.03c9.26-3.26,18.5-6.49,27.72-9.8
		c1.41-0.51,2.37-0.29,3.42,0.78c4.35,4.44,8.73,8.84,13.19,13.17c1.25,1.21,1.11,2.28,0.58,3.75c-3.03,8.47-5.96,16.97-8.93,25.47
		c-0.26,0.76-0.79,1.45-0.49,2.33C815.45,720.34,815.22,720.34,814.98,720.34z"/>
	<path d="M1041.8,481.2c9.85,4.57,16.62,12.1,23.34,19.56c16.42,18.25,16.19,45.38-0.57,63.27c-7.94,8.47-16.31,16.55-24.6,24.68
		c-1.71,1.68-1.98,2.65-0.06,4.34c2.73,2.39,5.26,5.03,7.74,7.69c4.3,4.62,4.34,10.68,0.22,14.81c-4.06,4.08-10.3,4.05-14.84-0.2
		c-2.91-2.73-5.7-5.58-8.46-8.46c-1.02-1.06-1.8-1.32-2.7,0.01c-0.06,0.09-0.17,0.16-0.25,0.25c-2.62,2.68-7.14,5.22-7.33,8.06
		c-0.2,2.93,4.62,5.38,7.2,8.08c2.03,2.13,4.18,4.14,4.78,7.2c0.88,4.51-1.07,8.87-4.96,11.1c-3.9,2.23-8.57,1.82-12.05-1.36
		c-3.03-2.77-5.92-5.7-8.73-8.69c-1.25-1.34-2.03-1.44-3.3-0.03c-2.51,2.78-7.05,5.24-7.3,8.13c-0.25,2.93,4.54,5.4,7.16,8.01
		c3.29,3.27,6,6.64,4.73,11.7c-1.91,7.62-10.6,10.59-16.6,5.5c-2.94-2.49-5.72-5.24-8.24-8.17c-2.01-2.34-3.17-1.93-5.09,0.11
		c-4.5,4.78-9.16,9.43-13.96,13.91c-17.97,16.74-45.4,16.86-63.56,0.3c-3.72-3.4-7.18-7.09-10.77-10.63
		c-3.62-3.57-6.04-7.99-8.74-12.81c-3.16,3.18-6.08,6.15-9.04,9.09c-6.74,6.7-13.32,13.57-20.29,20.02
		c-5.9,5.46-14.76,5.21-20.87-0.02c-5.85-5.01-7.3-13.82-3.17-20.41c1.17-1.86,2.77-3.49,4.34-5.05
		c23.38-23.41,46.75-46.84,70.26-70.13c2.29-2.27,2.18-3.42-0.11-5.35c-2.41-2.03-4.54-4.42-6.72-6.71
		c-1.66-1.74-1.67-3.53,0.22-5.16c3.2-2.76,6.23-5.69,8.95-8.93c1.83-2.18,3.71-2.13,5.67-0.18c2.57,2.57,5.2,5.08,7.71,7.71
		c1.04,1.09,1.85,1.27,2.78,0c0.07-0.09,0.17-0.16,0.25-0.24c2.59-2.69,6.91-5.18,7.27-8.15c0.33-2.71-4.43-5.17-6.93-7.76
		c-3.82-3.96-3.9-4.69,0.36-8.34c2.69-2.31,5.02-4.92,7.35-7.55c1.77-2,3.54-2.05,5.41-0.21c2.51,2.47,5.08,4.88,7.47,7.46
		c1.28,1.38,2.14,1.73,3.56,0.12c2.01-2.29,4.2-4.43,6.46-6.47c1.43-1.28,1.24-2.07-0.07-3.28c-2.58-2.39-4.99-4.96-7.47-7.46
		c-1.95-1.96-2.01-3.85,0.18-5.68c3.15-2.64,6.08-5.52,8.69-8.7c1.82-2.21,3.72-2.21,5.68-0.29c2.52,2.46,5.05,4.91,7.46,7.47
		c1.16,1.23,1.86,1.55,3.29,0.16c31.63-30.65,62.39-62.03,86.15-99.49c8.92-14.06,17.53-28.26,21.84-44.55
		c0.77-2.91,1.23-5.91,1.74-8.45c21.9,21.9,43.89,43.89,65.68,65.68C1101.07,433.86,1070.84,455.9,1041.8,481.2z"/>
	<path d="M892.8,540.19c2.27,0.55,3.99,1.93,4.92,4.32c0.82,2.1-0.07,3.58-1.49,4.99c-4.4,4.37-8.75,8.79-13.17,13.13
		c-2.56,2.52-5.13,2.42-7.59-0.14c-2.36-2.45-2.4-4.83,0.06-7.33c4.34-4.42,8.76-8.78,13.13-13.18
		C889.76,540.87,890.93,539.96,892.8,540.19z"/>
	<path d="M947.43,496.76c0.04,1.33-0.71,2.24-1.54,3.07c-4.54,4.56-9.05,9.13-13.65,13.62c-2.38,2.33-4.96,2.16-7.34-0.29
		c-2.38-2.45-2.45-4.9-0.04-7.35c4.42-4.5,8.92-8.93,13.37-13.41c1.57-1.58,3.27-2.14,5.37-1.08
		C945.86,492.48,947.15,494.25,947.43,496.76z"/>
	<path d="M922.95,520.84c0.09,1.39-0.52,2.45-1.48,3.4c-4.56,4.53-9.05,9.12-13.64,13.61c-2.32,2.27-5.08,2.07-7.36-0.31
		c-2.2-2.29-2.37-4.92-0.23-7.11c4.49-4.59,9.1-9.06,13.6-13.65c1.62-1.65,3.43-2.01,5.4-1.09
		C921.36,516.71,922.75,518.39,922.95,520.84z"/>
	<path class="st0" d="M984.67,537.74c11.65-11.63,23.13-23.03,34.52-34.53c1.46-1.48,2.9-1.55,4.74-1.36
		c2.01,0.21,4.03,0.46,5.76,1.39c8.98,4.84,16.43,11.58,20.68,20.79c3.93,8.52,1.75,16.86-4.77,23.63
		c-7.89,8.2-16.06,16.12-24.1,24.18c-0.77,0.77-1.31,1.46-2.46,0.31C1007.65,560.68,996.19,549.26,984.67,537.74z"/>
	<path class="st0" d="M926.75,657.92c-5.42,0.09-10.53-1.09-14.63-4.8c-5.36-4.86-11.12-9.43-14.41-16.13
		c-0.81-1.65-1.32-3.5-1.72-5.31c-0.66-3-0.08-5.43,2.41-7.78c7.08-6.67,13.89-13.63,20.68-20.6c1.62-1.66,2.48-2.01,4.32-0.14
		c10.34,10.55,20.82,20.97,31.32,31.36c1.51,1.5,1.97,2.37,0.14,4.06c-4.29,3.99-8.34,8.24-12.49,12.38
		C938.06,655.26,932.97,657.83,926.75,657.92z"/>
	<path class="st0" d="M981.31,612.36c-3,2.89-5.91,5.6-8.71,8.42c-1,1.01-1.59,0.91-2.53-0.04c-10.91-10.97-21.84-21.92-32.82-32.83
		c-1.13-1.12-1.15-1.87,0.07-2.77c0.19-0.14,0.33-0.33,0.5-0.49c2.59-2.54,5.15-7,7.8-7.06c2.56-0.05,5.26,4.39,7.82,6.94
		C962.65,593.7,971.84,602.9,981.31,612.36z"/>
	<path class="st0" d="M1005.12,587.56c0.09,0.82-8.89,9.88-9.52,9.65c-0.51-0.19-0.93-0.69-1.34-1.1
		c-10.78-10.78-21.53-21.59-32.36-32.31c-1.35-1.34-1.27-2.1,0.05-3.31c2.32-2.15,4.55-4.4,6.72-6.71c1.04-1.11,1.69-1.13,2.79-0.02
		c10.82,10.9,21.69,21.75,32.55,32.62C1004.41,586.78,1004.79,587.21,1005.12,587.56z"/>
</g>
</svg>
