<?xml version="1.0" encoding="utf-8"?>
<!-- Generator: Adobe Illustrator 26.3.1, SVG Export Plug-In . SVG Version: 6.00 Build 0)  -->
<svg version="1.1" id="Calque_1" xmlns="http://www.w3.org/2000/svg" xmlns:xlink="http://www.w3.org/1999/xlink" x="0px" y="0px"
	 viewBox="0 0 1920 1080" style="enable-background:new 0 0 1920 1080;" xml:space="preserve">
<style type="text/css">
	.st0{fill:#4A4A4A;}
	.st1{fill:#545454;}
	.st2{fill:#BFBFBF;}
	.st3{fill:#FEFEFE;}
	.st4{fill:#FBFBFB;}
	.st5{fill:#FAFAFA;}
</style>
<g>
	<path d="M984.27,548.81c-0.25,0.62-0.23,1.3-0.38,1.94c-0.74,3.17-2.19,5.91-4.83,7.93c-3.19,2.45-7.47,2.48-10.68,0.06
		c-2.81-2.12-4.36-5.01-4.99-8.4c-0.79-4.3-0.11-8.34,2.42-11.97c1.52-2.17,3.53-3.68,6.17-4.24c2.49-0.53,4.77,0.05,6.81,1.49
		c2.8,1.98,4.33,4.79,5.09,8.08c0.15,0.67,0.26,1.36,0.39,2.03c0,0.13,0,0.26,0,0.38c-0.07,0.1-0.07,0.19,0,0.29
		c0,0.51,0,1.02,0,1.54c-0.06,0.06-0.06,0.13,0,0.19C984.27,548.36,984.27,548.59,984.27,548.81z"/>
	<path class="st0" d="M984.27,546.41c-0.12-0.1-0.15-0.19,0-0.29C984.27,546.22,984.27,546.32,984.27,546.41z"/>
	<path class="st1" d="M984.27,548.14c-0.12-0.06-0.11-0.13,0-0.19C984.27,548.01,984.27,548.08,984.27,548.14z"/>
	<path d="M957.38,557.92c0.06,0.35,0.34,0.56,0.54,0.83c0.39,0.53,0.8,1.04,1.2,1.56c0.39,0.52,0.37,0.99-0.04,1.31
		c-0.39,0.31-0.9,0.19-1.28-0.31c-1.54-1.98-3.07-3.97-4.61-5.96c-0.05-0.06-0.1-0.12-0.22-0.27c0,0.74,0,1.39,0,2.04
		c0,0.69,0,1.38,0,2.06c0,0.72-0.29,1.13-0.82,1.14c-0.55,0.01-0.84-0.39-0.84-1.15c0-1.37,0-2.74,0-4.25
		c-0.31,0.37-0.54,0.64-0.77,0.92c-1.53,1.82-3.06,3.65-4.58,5.47c-0.3,0.36-0.64,0.6-1.12,0.41c-0.55-0.22-0.66-0.87-0.22-1.4
		c0.61-0.74,1.22-1.49,1.86-2.2c0.26-0.29,0.28-0.45-0.04-0.71c-0.58-0.47-1.11-1-1.67-1.51c-0.43,0.83-0.87,1.1-1.53,0.97
		c-0.65-0.13-0.94-0.61-1.02-1.69c-0.15-0.07-0.27,0.05-0.38,0.11c-1.44,0.64-2.88,1.3-4.32,1.95c-0.36,0.16-0.72,0.18-1.03-0.1
		c-0.27-0.24-0.31-0.56-0.2-0.88c0.1-0.31,0.37-0.46,0.66-0.59c1.64-0.74,3.28-1.49,4.93-2.21c0.28-0.12,0.38-0.26,0.38-0.56
		c-0.01-2.02-0.01-4.03,0-6.05c0-0.3-0.1-0.45-0.36-0.59c-1.79-0.95-3.57-1.92-5.35-2.88c-0.7-0.38-0.78-0.54-0.56-1.33
		c0.05-0.2-0.08-0.22-0.17-0.28c-0.51-0.34-0.71-0.8-0.7-1.43c0.02-3.22,0.01-6.43,0-9.65c0-0.75,0.49-1.11,1.04-1.42
		c1.07-0.61,2.25-0.9,3.45-1.08c3.17-0.49,6.34-0.48,9.49,0.22c0.66,0.15,1.3,0.33,1.91,0.62c0.26,0.12,0.33,0.09,0.32-0.2
		c-0.05-1.22-0.17-2.46,1.1-3.29c-0.94-0.35-1.76-0.63-2.57-0.96c-1.5-0.6-2.94-1.33-4.19-2.38c-0.41-0.34-0.77-0.72-1.04-1.18
		c-0.52-0.92-0.32-1.79,0.55-2.38c1.11-0.75,2.38-1.03,3.67-1.13c5.74-0.46,11.23,0.58,16.47,2.95c1.14,0.51,2.19,1.17,3.13,2.02
		c1.6,1.44,1.38,2.92-0.58,3.78c-1.14,0.5-2.36,0.66-3.59,0.75c-3.27,0.24-6.48-0.18-9.65-0.93c-0.35-0.08-0.54-0.01-0.81,0.25
		c-0.69,0.68-0.85,1.46-0.85,2.41c0.03,7.71,0.02,15.42,0.01,23.14c0,0.32,0.07,0.57,0.28,0.83c0.63,0.77,1.22,1.56,1.83,2.34
		c0.12,0.05,0.26,0.07,0.35,0.18c0.56,0.78,1.13,1.55,1.75,2.28C957.28,557.63,957.43,557.73,957.38,557.92z"/>
	<path d="M957.38,557.92c-0.67-0.77-1.31-1.55-1.89-2.4c-0.05-0.08-0.12-0.15-0.12-0.25c-0.11-0.08-0.16-0.19-0.2-0.31
		c-2.55-4.95-2.68-9.96-0.22-14.95c1.36-2.76,3.46-4.8,6.5-5.72c0.76-0.23,1.53-0.33,2.32-0.34c1.97-0.02,3.93-0.01,5.93-0.01
		c-5.18,2.93-7.38,7.56-7.4,13.26c-0.01,5.71,2.16,10.36,7.35,13.32c0,0.02-0.06,0.02-0.1,0.02c-1.98,0-3.97,0.02-5.95-0.01
		c-2.24-0.03-4.14-0.93-5.82-2.36C957.65,558.07,957.56,557.92,957.38,557.92z"/>
	<path d="M968.26,521.19c2.03-0.65,4.1-0.83,6.19-0.83c1.96,0,3.9,0.16,5.78,0.71c0.74,0.21,1.45,0.49,2.06,0.97
		c0.35,0.28,0.52,0.62,0.52,1.07c-0.01,3.13-0.02,6.27,0,9.4c0,0.58-0.26,0.97-0.7,1.28c-0.84,0.59-1.84,0.79-2.8,1.07
		c-0.17,0.05-0.27-0.07-0.39-0.15c-1.76-1.12-3.67-1.6-5.77-1.59c-2.24,0.02-4.47,0-6.71-0.01c-0.29,0-0.41-0.11-0.41-0.38
		c0-1.61,0-3.23-0.01-4.84c0-0.25,0.14-0.27,0.33-0.31c0.96-0.2,1.89-0.47,2.7-1.04c1.38-0.97,1.65-2.4,0.69-3.79
		c-0.27-0.4-0.6-0.75-0.97-1.06C968.61,521.55,968.4,521.43,968.26,521.19z"/>
	<path class="st2" d="M955.17,554.96c0.07,0.1,0.14,0.21,0.2,0.31c-0.18,0.04-0.25-0.07-0.3-0.21
		C955.11,555.03,955.14,554.99,955.17,554.96z"/>
	<path class="st3" d="M945.87,554.66c0.34,0.04,0.53,0.07,0.72,0.08c0.49,0.02,0.87-0.29,0.92-0.73c0.05-0.47-0.2-0.83-0.71-0.91
		c-0.55-0.09-1.11-0.14-1.67-0.15c-0.32-0.01-0.39-0.13-0.39-0.43c0.01-1.89,0.01-3.78,0-5.67c0-0.3,0.11-0.45,0.37-0.58
		c1.75-0.93,3.48-1.88,5.23-2.81c0.47-0.25,0.9-0.5,0.83-1.14c0-0.04,0.07-0.1,0.16-0.22c0,0.22,0,0.37,0,0.52
		c0,3.1,0,6.21,0.01,9.31c0,0.27-0.07,0.48-0.24,0.69c-1.01,1.18-2,2.37-2.99,3.57c-0.18,0.22-0.28,0.27-0.51,0.05
		C947.05,555.73,946.5,555.24,945.87,554.66z"/>
	<path class="st4" d="M942.23,544.57c-0.93-0.5-1.8-0.98-2.68-1.45c0.86,0.07,1.7,0.17,2.54,0.22c0.11,0.01,0.25-0.01,0.2,0.17
		C942.21,543.83,942.26,544.17,942.23,544.57z"/>
	<path class="st5" d="M947.1,543.31c-0.7,0.37-1.39,0.75-2.08,1.13c-0.2,0.11-0.26,0.08-0.28-0.16c-0.06-0.91-0.07-0.9,0.84-0.94
		c0.5-0.02,1.01-0.08,1.51-0.12C947.08,543.25,947.09,543.28,947.1,543.31z"/>
</g>
</svg>
