<?xml version="1.0" encoding="utf-8"?>
<!-- Generator: Adobe Illustrator 26.3.1, SVG Export Plug-In . SVG Version: 6.00 Build 0)  -->
<svg version="1.1" id="Calque_1" xmlns="http://www.w3.org/2000/svg" xmlns:xlink="http://www.w3.org/1999/xlink" x="0px" y="0px"
	 viewBox="0 0 1920 1080" style="enable-background:new 0 0 1920 1080;" xml:space="preserve">
<style type="text/css">
	.st0{fill:#FEFEFE;}
</style>
<g>
	<path d="M965.04,435.04c-0.91,3.61-1.82,7.22-2.76,10.99c4.3-0.31,8.56-0.58,12.82-0.92c7.54-0.62,15.09-1,22.66-1.06
		c9.73-0.08,13.39,4.89,10.46,14.19c-0.47,1.49-1.09,2.91-1.93,4.25c-3.67,5.87-7.34,11.75-10.94,17.67
		c-0.7,1.15-1.15,1.59-2.61,0.88c-6.71-3.23-14.89-0.78-18.81,5.45c-4.17,6.63-2.83,14.93,3.35,19.72c1.3,1.01,1.58,1.65,0.56,2.98
		c-0.9,1.18-1.25,2.99-2.38,3.72c-1.26,0.82-2.59-0.84-3.98-1.22c-7.13-1.98-14.65,1.45-17.85,8.26
		c-3.02,6.43-0.85,14.32,5.23,18.37c1.37,0.91,1.44,1.53,0.64,2.81c-1.22,1.96-2.31,4-3.32,6.07c-0.54,1.11-0.93,1.08-1.87,0.42
		c-5.43-3.81-12.27-3.81-17.34-0.08c-5.4,3.96-7.57,10.44-5.5,16.81c1.61,4.93,5.02,8.17,9.99,9.62c1.42,0.42,1.52,0.85,1.19,2.22
		c-1.88,7.98-2.94,16.02-1.36,24.22c1.3,6.76,7.04,10.23,13.56,8.1c3.48-1.14,5.44-3.81,5.25-7.55c-0.41-8.08-0.94-16.16-1.43-24.23
		c-0.16-2.58-0.32-5.16-0.5-7.74c-0.04-0.56,0.04-1.07,0.33-1.56c2.45-4.11,2.72-8.44,1.24-12.87
		c23.49,1.38,43.51,11.39,62.11,25.26c-3.77,3-7.63,6.07-11.48,9.14c-3.78,3.01-7.52,6.08-11.37,8.99c-1.16,0.88-1.44,1.78-1.26,3.1
		c0.33,2.35,0.67,4.72,0.81,7.09c0.64,10.6-3.17,19.43-12.09,25.14c-9.4,6.01-19.84,9.96-31.15,10.57
		c-14.98,0.81-28.02-4.45-39.56-13.68c-5.35-4.27-9.69-9.48-13.66-15.07c-4.94-6.98-5.45-14.61-4.05-22.6
		c1.24-7.07,4.27-13.35,8.59-19.12c26.17-35.02,52.27-70.1,78.39-105.16c0.4-0.53,0.76-1.08,1.28-1.82c-5.01-1.53-9.86-3-14.72-4.5
		c-3.76-1.16-7.53-2.31-11.28-3.53c-1.08-0.35-1.53-0.13-1.81,0.99c-0.39,1.55-0.26,3.88-1.53,4.39c-1.18,0.48-3.05-0.68-4.61-1.14
		c-9.51-2.82-19-5.68-28.53-8.42c-1.61-0.46-1.98-1.15-1.63-2.71c0.43-1.92,0.68-3.88,0.87-5.84c0.13-1.28,0.71-1.77,1.96-2.03
		c12.84-2.7,25.67-5.46,38.5-8.21c0.24-0.05,0.45-0.24,0.68-0.36C964.5,435.04,964.77,435.04,965.04,435.04z"/>
	<path d="M977.87,527.04c0,5.48-4.48,9.99-9.95,10.02c-5.51,0.03-10.21-4.67-10.11-10.12c0.1-5.5,4.62-9.91,10.11-9.89
		C973.43,517.08,977.87,521.52,977.87,527.04z"/>
	<path d="M997.07,495.5c0.01,5.49-4.44,9.98-9.94,10.04c-5.47,0.06-10.2-4.68-10.1-10.13c0.1-5.52,4.57-9.9,10.09-9.87
		C992.68,485.57,997.06,489.95,997.07,495.5z"/>
	<path d="M946.2,570.64c-5.53-0.01-9.99-4.44-10.02-9.94c-0.03-5.42,4.48-9.98,9.95-10.06c5.48-0.08,10.18,4.61,10.11,10.1
		C956.19,566.26,951.73,570.65,946.2,570.64z"/>
	<path class="st0" d="M1007.85,582.79c-4.54-0.52-8.89-2.07-13.21-3.65c-9.31-3.4-18.37-7.37-26.84-12.56
		c-1.27-0.78-2.49-1.65-3.51-2.75c-0.28-0.3-0.59-0.61-0.47-1.06c0.17-0.6,0.72-0.54,1.17-0.55c2.06-0.06,4.06,0.42,6,1.01
		c12.18,3.68,23.83,8.6,34.76,15.15c1.1,0.66,2.1,1.5,3.08,2.33c0.48,0.41,1.21,0.87,0.8,1.66
		C1009.28,583.03,1008.53,582.69,1007.85,582.79z"/>
</g>
</svg>
