<?xml version="1.0" encoding="utf-8"?>
<!-- Generator: Adobe Illustrator 26.3.1, SVG Export Plug-In . SVG Version: 6.00 Build 0)  -->
<svg version="1.1" id="Calque_1" xmlns="http://www.w3.org/2000/svg" xmlns:xlink="http://www.w3.org/1999/xlink" x="0px" y="0px"
	 viewBox="0 0 1920 1080" style="enable-background:new 0 0 1920 1080;" xml:space="preserve">
<style type="text/css">
	.st0{fill:#FEFEFE;}
</style>
<g>
	<path d="M1086.24,430.89c-6.39,3.69-11.25,9.08-16.1,14.49c-1.27,1.41-2.45,2.9-3.66,4.36c-1.77,2.16-3.06,4.7-6.78,4.19
		c-1.85-0.25-3.58,1.47-4.97,2.93c-30.98,32.63-61.95,65.28-92.97,97.87c-1.8,1.89-2.6,3.85-2.37,6.43
		c0.27,2.97,0.57,5.92,1.97,8.61c1.55,2.98,3.96,4.53,7.39,4.38c1.98-0.08,3.97-0.25,5.93-0.11c2.92,0.21,4.14,2.13,2.92,4.79
		c-2.99,6.52-8.38,10.42-14.86,13c-1.92,0.76-3.95,1.29-6,1.38c-6.35,0.26-9.26,4.23-10.9,9.72c-1.05,3.51-1.28,7.11-1.38,10.75
		c-0.55,18.61-8,33.78-22.85,45.11c-5.86,4.47-12.5,7.29-19.93,7.95c-0.34,0.03-0.65,0.06-0.78,0.43c-3.3,0-6.61,0-9.91,0
		c-1.91-1.24-4.21-1.05-6.3-1.65c-9.19-2.64-17.29-7.25-24.55-13.38c-10.09-8.53-18.3-18.5-23.1-30.99
		c-6.7-17.42-2.59-35.72,11-48.51c13.15-12.39,28.72-17.59,46.69-15.55c6.82,0.77,13.73-5.12,14.54-12.29
		c1.22-10.74,6.93-18.31,16.97-22.04c9.94-3.7,19.13-1.66,27.12,5.42c0.19,0.16,0.35,0.35,0.55,0.5c1.2,0.95,1.74,3.25,3.21,3.02
		c1.28-0.2,2.33-1.95,3.46-3.04c27.66-26.51,55.31-53.02,82.97-79.53c1.25-1.2,2.49-2.42,3.38-3.92c0.68-1.14,1.56-2.53,1.06-3.7
		c-1.5-3.46,1.02-4.73,3.03-6.4c6.77-5.67,12.32-12.4,16.74-20.02c0.73-1.26,1.32-1.58,2.64-1.03c3.29,1.37,6.76,2.5,7.56,6.65
		c0.18,0.96,0.94,0.73,1.51,0.94c3.91,1.48,5.53,4.96,7.19,8.37C1086.74,430.22,1086.39,430.6,1086.24,430.89z"/>
	<path class="st0" d="M940.8,578.05c-0.13,0.78-0.22,1.69-0.83,2.42c-1.75,2.08-3.61,4.08-5.76,5.73c-1.77,1.36-3.78,1.32-5.39-0.24
		c-4.44-4.29-8.84-8.63-13.12-13.08c-1.84-1.91-1.78-4.01-0.05-5.98c1.52-1.73,3.16-3.37,4.88-4.9c2.03-1.82,4.18-1.84,6.19,0.1
		c4.33,4.17,8.53,8.47,12.77,12.74C940.31,575.67,940.74,576.74,940.8,578.05z"/>
</g>
</svg>
