<?xml version="1.0" encoding="utf-8"?>
<!-- Generator: Adobe Illustrator 26.3.1, SVG Export Plug-In . SVG Version: 6.00 Build 0)  -->
<svg version="1.1" id="Calque_1" xmlns="http://www.w3.org/2000/svg" xmlns:xlink="http://www.w3.org/1999/xlink" x="0px" y="0px"
	 viewBox="0 0 1920 1080" style="enable-background:new 0 0 1920 1080;" xml:space="preserve">
<style type="text/css">
	.st0{fill:#FEFEFE;}
</style>
<g>
	<path d="M1151.93,438.78c0,96.59-0.01,193.18,0.07,289.77c0,2.81-0.63,3.45-3.44,3.44c-125.7-0.08-251.41-0.08-377.11,0
		c-2.81,0-3.45-0.63-3.44-3.44c0.08-96.59,0.07-193.18,0.07-289.77c1.59-1.37,3.53-1.06,5.37-1.07c11.24-0.03,22.48-0.01,33.72-0.02
		c5.5,0,5.55-0.06,5.56-5.71c0.01-9.24,0.05-18.48-0.01-27.73c-0.16-25.09,16.67-46.45,38.85-54.29c3.8-1.34,7.84-1.13,11.72-1.92
		c73.47,0,146.95,0,220.42,0c0.9,0.99,1.13,2.21,1.15,3.48c0.09,5.12,0.16,10.24-0.02,15.36c-0.13,3.69-1.07,4.54-4.77,4.8
		c-1.74,0.12-3.5,0.06-5.24,0.06c-67.57,0-135.14,0-202.71,0c-12.5,0-22.6,4.64-29.57,15.27c-3.45,5.27-4.9,11.21-5,17.42
		c-0.15,9.49-0.07,18.98-0.03,28.48c0.02,4.25,0.4,4.61,4.81,4.63c12.24,0.05,24.48,0.02,36.72,0.02c88.55,0,177.11,0,265.66,0.02
		C1147.15,437.6,1149.75,437.04,1151.93,438.78z"/>
	<path class="st0" d="M1083.7,595.75c0,13.87-0.15,27.74,0.1,41.6c0.06,3.48-1.03,3.98-4.13,3.93c-12.37-0.18-24.74,0.09-37.1-0.18
		c-3.49-0.08-4.08,1.03-3.93,4.13c0.25,5.24-0.01,10.49,0.11,15.74c0.05,1.98-0.3,2.81-2.58,2.78c-10.74-0.13-21.49-0.01-32.23-0.11
		c-5.86-0.05-11.35-1.74-16.26-4.89c-1.75-1.12-2.65-0.81-4.07,0.46c-57.28,51.37-145.91,25.72-166.35-48.11
		c-15.77-56.96,22.71-116.66,81.16-125.93c56.63-8.98,108.63,29.19,116.84,85.84c1.08,7.43,1.55,14.93,0.41,22.41
		c-0.38,2.48,0.43,2.9,2.68,2.85c5.87-0.15,11.75,0.09,17.61-0.12c2.44-0.09,2.87,0.74,2.81,2.94c-0.16,5.62,0.02,11.24-0.09,16.86
		c-0.04,1.95,0.23,2.88,2.55,2.81c5.87-0.18,11.74-0.16,17.61,0c2.11,0.06,2.41-0.74,2.4-2.57c-0.05-24.74-0.04-49.48-0.02-74.21
		c0-1.43-0.23-2.49-1.48-3.53c-14.48-12.01-21.4-27.47-21.06-46.27c0.15-8.42,0.03-8.43,8.48-8.43c18.62,0,37.23,0.06,55.85-0.07
		c2.65-0.02,3.26,0.66,3.24,3.27c-0.12,20.36-0.12,40.73,0,61.09c0.02,2.65-0.65,3.38-3.28,3.24c-5.48-0.3-11.01,0.36-16.44-0.78
		c-2.26-0.47-2.93,0.03-2.91,2.49C1083.77,567.26,1083.7,581.51,1083.7,595.75z"/>
	<path class="st0" d="M836.07,495.3c-0.06,3.57,1.76,8.33-0.46,10.38c-1.92,1.76-6.62,0.62-10.09,0.55
		c-3.83-0.08-8.93,1.65-11.1-0.69c-1.89-2.03-0.65-7.09-0.57-10.81c0.07-3.58-1.57-8.33,0.66-10.38c1.92-1.77,6.62-0.62,10.09-0.55
		c3.83,0.08,8.94-1.65,11.1,0.69C837.54,486.5,836.07,491.58,836.07,495.3z"/>
	<path class="st0" d="M836.11,674.61c0,3.73,1.47,8.77-0.39,10.84c-2.14,2.38-7.26,0.63-11.08,0.72c-3.47,0.08-8.15,1.25-10.12-0.51
		c-2.28-2.03-0.6-6.79-0.69-10.36c-0.09-3.72-1.35-8.76,0.53-10.84c2.16-2.38,7.26-0.63,11.09-0.72c3.47-0.08,8.15-1.25,10.12,0.51
		C837.85,666.27,835.99,671.04,836.11,674.61z"/>
	<path class="st0" d="M1106,675.28c-0.1,3.57,1.74,8.33-0.52,10.37c-1.96,1.76-6.64,0.6-10.11,0.52c-3.82-0.09-8.93,1.65-11.09-0.72
		c-1.89-2.06-0.63-7.11-0.54-10.83c0.09-3.57-1.59-8.33,0.68-10.37c1.96-1.76,6.64-0.6,10.11-0.52c3.82,0.09,8.94-1.65,11.08,0.72
		C1107.47,666.5,1106,671.55,1106,675.28z"/>
	<path d="M914.19,506.26c43.96,0.07,79.35,35.17,79.55,77.93c0.02,4.4-0.85,8.68-1.43,13c-0.21,1.57-1.2,2-2.29,2.6
		c-14.16,7.79-20.51,20.37-18.05,36.08c0.31,2.01-0.29,3.26-1.66,4.56c-21.43,20.46-46.66,28.19-75.38,20.48
		c-29.34-7.88-48.48-27.3-56.12-56.65c-11.7-44.93,18.24-89.75,64.04-97.06C906.9,506.54,911.02,506.01,914.19,506.26z"/>
	<path d="M1016.23,630.17c0,2.99-0.08,5.98,0.03,8.96c0.06,1.61-0.41,2.18-2.08,2.11c-3.23-0.13-6.48,0.08-9.71-0.08
		c-6.04-0.3-10.74-5.31-10.73-11.23c0.01-5.93,4.72-10.9,10.78-11.18c3.23-0.15,6.47,0.06,9.71-0.08c1.73-0.07,2.08,0.61,2.03,2.16
		C1016.16,623.95,1016.23,627.06,1016.23,630.17z"/>
	<path d="M1063.42,506.26c6.11,0,11.96,0.06,17.8-0.04c1.85-0.03,2.59,0.35,2.54,2.41c-0.15,5.84-0.05,11.69-0.05,17.54
		C1075.9,525.07,1066.66,516.11,1063.42,506.26z"/>
	<path class="st0" d="M914.84,618.71c-18.57-0.08-33.66-15.37-33.55-34c0.11-18.54,15.46-33.61,34.09-33.46
		c18.41,0.15,33.4,15.34,33.36,33.81C948.71,603.65,933.46,618.78,914.84,618.71z"/>
	<path d="M915.17,596.22c-6.08,0.08-11.25-4.91-11.38-10.99c-0.13-6.23,5.04-11.5,11.27-11.48c6.08,0.02,11.17,5.1,11.2,11.18
		C926.28,591.01,921.25,596.13,915.17,596.22z"/>
</g>
</svg>
